<svg width="45" height="45" viewBox="0 0 45 45" fill="none" xmlns="http://www.w3.org/2000/svg">
<path d="M25.8671 41.9859L23.6374 44.2735C22.6933 45.2422 21.1667 45.2422 20.2327 44.2735L0.708068 24.2518C-0.236023 23.2831 -0.236023 21.7169 0.708068 20.7585L20.2327 0.726471C21.1768 -0.242157 22.7034 -0.242157 23.6374 0.726471L25.8671 3.01408C26.8212 3.99302 26.8011 5.59022 25.8269 6.54855L13.7245 18.3782H42.5896C43.9253 18.3782 45 19.4808 45 20.8513V24.1487C45 25.5192 43.9253 26.6218 42.5896 26.6218H13.7245L25.8269 38.4515C26.8112 39.4098 26.8313 41.007 25.8671 41.9859Z" fill="#1A5B8D"/>
</svg>
