<svg width="260" height="95" viewBox="0 0 260 95" fill="none" xmlns="http://www.w3.org/2000/svg">
<rect x="1" y="1" width="258" height="93" rx="4" fill="#D9D9D9" stroke="black" stroke-width="2"/>
<mask id="path-2-inside-1_51_114" fill="white">
<path d="M0 5C0 2.23858 2.23858 0 5 0H255C257.761 0 260 2.23858 260 5V20H0V5Z"/>
</mask>
<path d="M0 5C0 2.23858 2.23858 0 5 0H255C257.761 0 260 2.23858 260 5V20H0V5Z" fill="#1A5B8D"/>
<path d="M-2 5C-2 1.13401 1.13401 -2 5 -2H255C258.866 -2 262 1.13401 262 5H258C258 3.34315 256.657 2 255 2H5C3.34315 2 2 3.34315 2 5H-2ZM262 21H-2L2 19H258L262 21ZM-2 21V5C-2 1.13401 1.13401 -2 5 -2V2C3.34315 2 2 3.34315 2 5V19L-2 21ZM255 -2C258.866 -2 262 1.13401 262 5V21L258 19V5C258 3.34315 256.657 2 255 2V-2Z" fill="black" mask="url(#path-2-inside-1_51_114)"/>
<path d="M108.862 15.112C108.563 15.112 108.353 15.0513 108.232 14.93C108.111 14.8087 108.05 14.6127 108.05 14.342V6.306C108.05 6.11933 108.12 5.96067 108.26 5.83C108.4 5.69 108.559 5.62 108.736 5.62H111.116C111.788 5.62 112.362 5.73667 112.838 5.97C113.323 6.194 113.687 6.49733 113.93 6.88C114.173 7.25333 114.294 7.65933 114.294 8.098C114.294 8.798 114.079 9.38133 113.65 9.848C114.126 10.072 114.481 10.3707 114.714 10.744C114.947 11.108 115.064 11.5607 115.064 12.102C115.064 13.0727 114.546 13.8193 113.51 14.342C112.474 14.8553 110.925 15.112 108.862 15.112ZM111.592 9.414C111.975 9.414 112.287 9.28333 112.53 9.022C112.782 8.75133 112.908 8.448 112.908 8.112C112.908 7.78533 112.749 7.51467 112.432 7.3C112.124 7.076 111.685 6.964 111.116 6.964H109.45V9.414H111.592ZM109.45 13.782C110.691 13.7633 111.704 13.614 112.488 13.334C113.281 13.054 113.678 12.6433 113.678 12.102C113.678 11.7007 113.496 11.3787 113.132 11.136C112.768 10.884 112.255 10.758 111.592 10.758H109.45V13.782ZM117.295 15.084C117.099 15.084 116.935 15.0187 116.805 14.888C116.674 14.7573 116.609 14.594 116.609 14.398V6.376C116.609 6.124 116.632 5.942 116.679 5.83C116.735 5.718 116.837 5.64333 116.987 5.606C117.145 5.55933 117.393 5.536 117.729 5.536H118.303C119.871 5.536 121.079 5.79733 121.929 6.32C122.778 6.84267 123.203 7.57533 123.203 8.518C123.203 9.71267 122.512 10.618 121.131 11.234C122.12 12.018 122.895 12.9653 123.455 14.076C123.501 14.1693 123.525 14.2767 123.525 14.398C123.525 14.5847 123.459 14.748 123.329 14.888C123.207 15.0187 123.044 15.084 122.839 15.084C122.577 15.084 122.372 14.9627 122.223 14.72C120.991 12.76 119.889 11.78 118.919 11.78C118.629 11.78 118.317 11.808 117.981 11.864V14.398C117.981 14.594 117.911 14.7573 117.771 14.888C117.64 15.0187 117.481 15.084 117.295 15.084ZM117.981 10.576C118.989 10.5107 119.88 10.3053 120.655 9.96C121.429 9.61467 121.817 9.134 121.817 8.518C121.817 7.986 121.504 7.58 120.879 7.3C120.263 7.02 119.39 6.88 118.261 6.88H117.981V10.576ZM130.637 15.098C130.301 15.098 130.081 14.9393 129.979 14.622L128.971 11.71L126.115 12.34L125.205 14.636C125.149 14.7667 125.065 14.874 124.953 14.958C124.85 15.042 124.719 15.084 124.561 15.084C124.374 15.084 124.211 15.0187 124.071 14.888C123.931 14.7573 123.861 14.6033 123.861 14.426C123.861 14.3047 123.893 14.1647 123.959 14.006L124.519 12.606C124.463 12.5873 124.421 12.5687 124.393 12.55C124.15 12.4287 124.029 12.2233 124.029 11.934C124.029 11.766 124.075 11.6213 124.169 11.5C124.271 11.3787 124.402 11.2993 124.561 11.262L125.079 11.15L127.151 5.886C127.207 5.746 127.295 5.63867 127.417 5.564C127.538 5.48933 127.669 5.452 127.809 5.452C127.958 5.452 128.089 5.48933 128.201 5.564C128.313 5.63867 128.397 5.75533 128.453 5.914L131.239 13.992C131.248 14.0107 131.267 14.0667 131.295 14.16C131.323 14.244 131.337 14.3327 131.337 14.426C131.337 14.6033 131.271 14.762 131.141 14.902C131.01 15.0327 130.842 15.098 130.637 15.098ZM128.509 10.408L127.753 8.154L126.703 10.8L128.509 10.408ZM135.225 15.084C134.423 15.084 133.723 14.9067 133.125 14.552C132.537 14.1973 132.122 13.7633 131.879 13.25C131.777 13.026 131.725 12.844 131.725 12.704C131.725 12.508 131.795 12.3447 131.935 12.214C132.075 12.074 132.243 12.004 132.439 12.004C132.607 12.004 132.752 12.0507 132.873 12.144C132.995 12.2373 133.083 12.3633 133.139 12.522C133.289 12.9233 133.564 13.2313 133.965 13.446C134.367 13.6607 134.796 13.768 135.253 13.768C135.832 13.768 136.308 13.6327 136.681 13.362C137.064 13.082 137.255 12.7413 137.255 12.34C137.255 12.032 137.101 11.752 136.793 11.5C136.495 11.248 135.981 11.0193 135.253 10.814C134.311 10.5527 133.569 10.2167 133.027 9.806C132.486 9.386 132.215 8.812 132.215 8.084C132.215 7.58933 132.346 7.15067 132.607 6.768C132.878 6.376 133.261 6.07267 133.755 5.858C134.25 5.64333 134.829 5.536 135.491 5.536C136.443 5.536 137.19 5.72267 137.731 6.096C138.282 6.46933 138.557 6.96867 138.557 7.594C138.557 7.79933 138.492 7.972 138.361 8.112C138.231 8.252 138.067 8.322 137.871 8.322C137.703 8.322 137.559 8.266 137.437 8.154C137.316 8.042 137.246 7.902 137.227 7.734C137.19 7.47267 137.017 7.258 136.709 7.09C136.401 6.91267 135.995 6.824 135.491 6.824C134.866 6.824 134.39 6.93133 134.063 7.146C133.737 7.35133 133.573 7.63133 133.573 7.986C133.573 8.31267 133.741 8.588 134.077 8.812C134.413 9.036 134.964 9.26 135.729 9.484C136.672 9.75467 137.386 10.1187 137.871 10.576C138.357 11.0333 138.599 11.598 138.599 12.27C138.599 12.7927 138.445 13.2687 138.137 13.698C137.829 14.1273 137.414 14.468 136.891 14.72C136.378 14.9627 135.823 15.084 135.225 15.084ZM140.236 15C140.04 15 139.872 14.9347 139.732 14.804C139.601 14.664 139.536 14.496 139.536 14.3C139.536 14.104 139.601 13.9407 139.732 13.81C139.872 13.67 140.04 13.6 140.236 13.6H141.216V7.02H140.236C140.04 7.02 139.872 6.95 139.732 6.81C139.601 6.67 139.536 6.502 139.536 6.306C139.536 6.11 139.601 5.94667 139.732 5.816C139.872 5.68533 140.04 5.62 140.236 5.62H143.582C143.778 5.62 143.941 5.68533 144.072 5.816C144.203 5.94667 144.268 6.11 144.268 6.306C144.268 6.502 144.203 6.67 144.072 6.81C143.941 6.95 143.778 7.02 143.582 7.02H142.616V13.6H143.582C143.787 13.6 143.951 13.67 144.072 13.81C144.203 13.9407 144.268 14.104 144.268 14.3C144.268 14.496 144.203 14.664 144.072 14.804C143.941 14.9347 143.778 15 143.582 15H140.236ZM146.498 15.07C146.32 15.0793 146.162 15.014 146.022 14.874C145.882 14.734 145.812 14.5753 145.812 14.398V6.236C145.812 6.04933 145.877 5.89067 146.008 5.76C146.148 5.62 146.316 5.55 146.512 5.55C146.698 5.55 146.857 5.62 146.988 5.76C147.128 5.89067 147.198 6.04933 147.198 6.236V13.656L151.006 13.404C151.202 13.3947 151.365 13.4553 151.496 13.586C151.626 13.7073 151.692 13.8707 151.692 14.076C151.692 14.244 151.626 14.4027 151.496 14.552C151.374 14.692 151.23 14.7667 151.062 14.776L146.498 15.07Z" fill="white"/>
</svg>
