<svg width="280" height="124" viewBox="0 0 280 124" fill="none" xmlns="http://www.w3.org/2000/svg">
<circle cx="37" cy="31" r="31" fill="white"/>
<path d="M31.3372 107.83C33.2128 113.185 40.7872 113.185 42.6628 107.83L66.2473 40.4831C67.6135 36.5819 64.718 32.5 60.5845 32.5H13.4155C9.28197 32.5 6.38651 36.5819 7.75271 40.4831L31.3372 107.83Z" fill="white"/>
<circle cx="37" cy="31" r="22" fill="#1A5B8D"/>
<rect x="56" y="42" width="184" height="30" rx="13" fill="white"/>
<rect x="25" y="20" width="215" height="22" fill="#1A5B8D"/>
<path d="M28.24 39V22.536H45.656V25.224H31.936V29.088H42.408V31.86H31.936V36.312H45.768L46.888 38.692C46.888 38.7667 46.636 38.8413 46.132 38.916C45.628 38.972 44.76 39 43.528 39H28.24ZM49.6775 32.84V29.592H58.6375V32.84H49.6775ZM66.2666 39C64.9973 39 64.064 38.944 63.4666 38.832C62.8693 38.72 62.5706 38.5893 62.5706 38.44L63.6906 36.004C64.12 36.0787 65.184 36.1533 66.8826 36.228C68.6 36.284 70.952 36.312 73.9386 36.312H74.4706C75.2733 36.312 75.8426 36.172 76.1786 35.892C76.5146 35.5933 76.6826 35.0987 76.6826 34.408V33.848C76.6826 33.1947 76.5426 32.728 76.2626 32.448C76.0013 32.168 75.404 32.028 74.4706 32.028H67.9746C66.0893 32.028 64.7173 31.6827 63.8586 30.992C63 30.2827 62.5706 29.1347 62.5706 27.548V27.1C62.5706 26.2787 62.72 25.5227 63.0186 24.832C63.336 24.1413 63.868 23.5907 64.6146 23.18C65.3613 22.7507 66.388 22.536 67.6946 22.536H75.3106C76.58 22.536 77.6066 22.6013 78.3906 22.732C79.1746 22.8627 79.5666 23.0027 79.5666 23.152L79.0066 25.504C78.5213 25.448 77.42 25.392 75.7026 25.336C73.9853 25.2613 71.68 25.224 68.7866 25.224L68.4786 25.196C67.62 25.196 67.0413 25.3733 66.7426 25.728C66.444 26.064 66.2853 26.4933 66.2666 27.016V27.492C66.2666 28.108 66.4346 28.5747 66.7706 28.892C67.1253 29.1907 67.704 29.34 68.5066 29.34H74.7226C75.9173 29.34 76.9346 29.4613 77.7746 29.704C78.6146 29.9467 79.2586 30.3947 79.7066 31.048C80.1546 31.6827 80.3786 32.6253 80.3786 33.876V34.324C80.3786 35.724 80.0146 36.8533 79.2866 37.712C78.5773 38.5707 77.336 39 75.5626 39H66.2666ZM89.9227 39L89.8947 25.196H82.6147V22.508H100.927V25.196H93.6187V39H89.9227ZM98.1328 39L106.337 22.536H111.853L120.029 39H115.717L114.065 35.444H104.041L102.221 39H98.1328ZM105.049 32.7H113.029L109.193 25.056H108.913L105.049 32.7ZM126.572 39C125.247 39 124.211 38.8133 123.464 38.44C122.718 38.0667 122.195 37.5067 121.896 36.76C121.598 36.0133 121.448 35.0893 121.448 33.988V27.744C121.448 25.952 121.85 24.636 122.652 23.796C123.455 22.9373 124.762 22.508 126.572 22.508H135C136.288 22.508 137.268 22.5827 137.94 22.732C138.631 22.8627 138.976 23.0027 138.976 23.152L138.416 25.476C138.099 25.42 137.156 25.364 135.588 25.308C134.039 25.2333 131.78 25.196 128.812 25.196H127.384C125.891 25.196 125.144 25.8587 125.144 27.184V34.324C125.144 34.9587 125.303 35.4533 125.62 35.808C125.956 36.144 126.544 36.312 127.384 36.312H128.532C131.631 36.312 134.03 36.284 135.728 36.228C137.446 36.1533 138.51 36.0787 138.92 36.004L140.068 37.852C140.068 37.9453 139.91 38.0853 139.592 38.272C139.294 38.4587 138.734 38.6267 137.912 38.776C137.091 38.9253 135.906 39 134.356 39H126.572ZM142.865 39V22.536H146.561V39H142.865ZM155.885 39C154.578 39 153.551 38.8133 152.805 38.44C152.058 38.0667 151.526 37.5067 151.209 36.76C150.91 36.0133 150.761 35.0893 150.761 33.988V27.52C150.761 26.4373 150.91 25.532 151.209 24.804C151.507 24.0573 152.03 23.4973 152.777 23.124C153.523 22.732 154.559 22.536 155.885 22.536H164.061C165.367 22.536 166.385 22.732 167.113 23.124C167.859 23.4973 168.382 24.0573 168.681 24.804C168.998 25.532 169.157 26.4373 169.157 27.52V33.988C169.157 35.6307 168.793 36.8813 168.065 37.74C167.337 38.58 166.002 39 164.061 39H155.885ZM156.697 36.312H163.277C163.967 36.312 164.499 36.1347 164.873 35.78C165.265 35.4253 165.461 34.94 165.461 34.324V27.184C165.461 26.6427 165.265 26.1853 164.873 25.812C164.481 25.42 163.949 25.224 163.277 25.224H156.697C156.025 25.224 155.483 25.4013 155.073 25.756C154.662 26.1107 154.457 26.5867 154.457 27.184V34.324C154.457 34.9587 154.653 35.4533 155.045 35.808C155.455 36.144 156.006 36.312 156.697 36.312ZM173.633 39V24.776L173.353 22.536H177.385L186.905 32.504L187.997 34.016H188.305V22.536H192.001V39H188.445L178.701 28.864L177.609 27.548H177.329V39H173.633ZM194.246 39L202.45 22.536H207.966L216.142 39H211.83L210.178 35.444H200.154L198.334 39H194.246ZM201.162 32.7H209.142L205.306 25.056H205.026L201.162 32.7ZM236.28 39.28C235.534 39.28 234.796 39.168 234.068 38.944C233.359 38.7013 232.547 38.1227 231.632 37.208L229.616 35.192C228.795 34.352 227.89 33.736 226.9 33.344C225.93 32.952 224.707 32.756 223.232 32.756H222.364V39H218.668V24.776L218.388 22.508H230.792C231.987 22.508 232.92 22.6667 233.592 22.984C234.283 23.3013 234.787 23.7213 235.104 24.244C235.44 24.748 235.655 25.2893 235.748 25.868C235.842 26.4467 235.888 26.9973 235.888 27.52V28.052C235.888 28.4627 235.832 28.92 235.72 29.424C235.608 29.928 235.394 30.4227 235.076 30.908C234.759 31.3933 234.302 31.804 233.704 32.14C233.126 32.476 232.36 32.672 231.408 32.728C231.651 32.8587 231.959 33.064 232.332 33.344C232.706 33.6053 233.088 33.8947 233.48 34.212C233.891 34.5293 234.264 34.8187 234.6 35.08C234.936 35.3413 235.198 35.528 235.384 35.64C236.056 36.032 236.654 36.3027 237.176 36.452C237.699 36.6013 238.128 36.6853 238.464 36.704C238.8 36.7227 238.996 36.732 239.052 36.732L238.492 39C238.324 39.056 238.044 39.112 237.652 39.168C237.26 39.2427 236.803 39.28 236.28 39.28ZM226.564 30.208C227.274 30.208 227.908 30.1987 228.468 30.18C229.028 30.1427 229.532 30.1053 229.98 30.068C230.802 29.9747 231.371 29.7507 231.688 29.396C232.024 29.0227 232.192 28.5467 232.192 27.968V27.324C232.192 26.7267 232.034 26.2227 231.716 25.812C231.399 25.4013 230.83 25.196 230.008 25.196H222.364V30.068C223.186 30.124 223.942 30.1613 224.632 30.18C225.323 30.1987 225.967 30.208 226.564 30.208Z" fill="white"/>
<path d="M28.24 39H27.49V39.75H28.24V39ZM28.24 22.536V21.786H27.49V22.536H28.24ZM45.656 22.536H46.406V21.786H45.656V22.536ZM45.656 25.224V25.974H46.406V25.224H45.656ZM31.936 25.224V24.474H31.186V25.224H31.936ZM31.936 29.088H31.186V29.838H31.936V29.088ZM42.408 29.088H43.158V28.338H42.408V29.088ZM42.408 31.86V32.61H43.158V31.86H42.408ZM31.936 31.86V31.11H31.186V31.86H31.936ZM31.936 36.312H31.186V37.062H31.936V36.312ZM45.768 36.312L46.4466 35.9927L46.244 35.562H45.768V36.312ZM46.888 38.692H47.638V38.5243L47.5666 38.3727L46.888 38.692ZM46.132 38.916L46.2148 39.6614L46.2284 39.6599L46.2419 39.6579L46.132 38.916ZM28.99 39V22.536H27.49V39H28.99ZM28.24 23.286H45.656V21.786H28.24V23.286ZM44.906 22.536V25.224H46.406V22.536H44.906ZM45.656 24.474H31.936V25.974H45.656V24.474ZM31.186 25.224V29.088H32.686V25.224H31.186ZM31.936 29.838H42.408V28.338H31.936V29.838ZM41.658 29.088V31.86H43.158V29.088H41.658ZM42.408 31.11H31.936V32.61H42.408V31.11ZM31.186 31.86V36.312H32.686V31.86H31.186ZM31.936 37.062H45.768V35.562H31.936V37.062ZM45.0894 36.6313L46.2094 39.0113L47.5666 38.3727L46.4466 35.9927L45.0894 36.6313ZM46.138 38.692C46.138 38.4758 46.2324 38.32 46.303 38.2363C46.3691 38.158 46.4343 38.117 46.4584 38.1028C46.5063 38.0744 46.5286 38.0723 46.4859 38.0849C46.412 38.1068 46.2651 38.1381 46.0221 38.1741L46.2419 39.6579C46.5029 39.6192 46.7341 39.5758 46.9121 39.5231C46.9954 39.4984 47.1122 39.4589 47.2231 39.3932C47.2734 39.3634 47.638 39.1512 47.638 38.692H46.138ZM46.0492 38.1706C45.5909 38.2215 44.7603 38.25 43.528 38.25V39.75C44.7597 39.75 45.6651 39.7225 46.2148 39.6614L46.0492 38.1706ZM43.528 38.25H28.24V39.75H43.528V38.25ZM49.6775 32.84H48.9275V33.59H49.6775V32.84ZM49.6775 29.592V28.842H48.9275V29.592H49.6775ZM58.6375 29.592H59.3875V28.842H58.6375V29.592ZM58.6375 32.84V33.59H59.3875V32.84H58.6375ZM50.4275 32.84V29.592H48.9275V32.84H50.4275ZM49.6775 30.342H58.6375V28.842H49.6775V30.342ZM57.8875 29.592V32.84H59.3875V29.592H57.8875ZM58.6375 32.09H49.6775V33.59H58.6375V32.09ZM63.4666 38.832L63.6048 38.0948L63.6048 38.0948L63.4666 38.832ZM62.5706 38.44L61.8892 38.1267L61.8206 38.2758V38.44H62.5706ZM63.6906 36.004L63.8191 35.2651L63.2504 35.1662L63.0092 35.6907L63.6906 36.004ZM66.8826 36.228L66.8497 36.9773L66.8582 36.9776L66.8826 36.228ZM76.1786 35.892L76.6588 36.4682L76.668 36.4605L76.6769 36.4526L76.1786 35.892ZM76.2626 32.448L75.7143 32.9597L75.7232 32.9692L75.7323 32.9783L76.2626 32.448ZM63.8586 30.992L63.3809 31.5703L63.3886 31.5764L63.8586 30.992ZM63.0186 24.832L62.3371 24.5189L62.3336 24.5266L62.3302 24.5343L63.0186 24.832ZM64.6146 23.18L64.9761 23.8372L64.9823 23.8337L64.9885 23.8302L64.6146 23.18ZM78.3906 22.732L78.5139 21.9922L78.5139 21.9922L78.3906 22.732ZM79.5666 23.152L80.2962 23.3257L80.3166 23.2401V23.152H79.5666ZM79.0066 25.504L78.9207 26.2491L79.582 26.3254L79.7362 25.6777L79.0066 25.504ZM75.7026 25.336L75.67 26.0853L75.6782 26.0856L75.7026 25.336ZM68.7866 25.224L68.7187 25.9709L68.7526 25.974H68.7866V25.224ZM68.4786 25.196L68.5465 24.4491L68.5126 24.446H68.4786V25.196ZM66.7426 25.728L67.3032 26.2263L67.3098 26.2188L67.3163 26.2111L66.7426 25.728ZM66.2666 27.016L65.5171 26.9892L65.5166 27.0026V27.016H66.2666ZM66.7706 28.892L66.2557 29.4373L66.2712 29.4519L66.2875 29.4657L66.7706 28.892ZM77.7746 29.704L77.9828 28.9835L77.9828 28.9835L77.7746 29.704ZM79.7066 31.048L79.088 31.4722L79.0939 31.4805L79.7066 31.048ZM79.2866 37.712L78.7145 37.2269L78.7084 37.2343L79.2866 37.712ZM66.2666 38.25C65.005 38.25 64.13 38.1933 63.6048 38.0948L63.3284 39.5692C63.9979 39.6947 64.9896 39.75 66.2666 39.75V38.25ZM63.6048 38.0948C63.3229 38.042 63.1656 37.9937 63.0952 37.9629C63.0581 37.9466 63.0889 37.9538 63.1396 38.0013C63.1955 38.0538 63.3206 38.2021 63.3206 38.44H61.8206C61.8206 38.7526 61.983 38.9732 62.1137 39.0957C62.2391 39.2132 62.3818 39.288 62.494 39.3371C62.7223 39.437 63.013 39.51 63.3284 39.5692L63.6048 38.0948ZM63.2521 38.7533L64.3721 36.3173L63.0092 35.6907L61.8892 38.1267L63.2521 38.7533ZM63.5621 36.7429C64.0495 36.8277 65.1683 36.9034 66.8497 36.9773L66.9156 35.4787C65.1997 35.4033 64.1905 35.3297 63.8191 35.2651L63.5621 36.7429ZM66.8582 36.9776C68.5875 37.034 70.9488 37.062 73.9386 37.062V35.562C70.9551 35.562 68.6125 35.534 66.9071 35.4784L66.8582 36.9776ZM73.9386 37.062H74.4706V35.562H73.9386V37.062ZM74.4706 37.062C75.3194 37.062 76.1141 36.9221 76.6588 36.4682L75.6985 35.3158C75.5712 35.4219 75.2272 35.562 74.4706 35.562V37.062ZM76.6769 36.4526C77.2423 35.95 77.4326 35.1983 77.4326 34.408H75.9326C75.9326 34.999 75.787 35.2367 75.6804 35.3314L76.6769 36.4526ZM77.4326 34.408V33.848H75.9326V34.408H77.4326ZM77.4326 33.848C77.4326 33.1185 77.2815 32.4062 76.793 31.9177L75.7323 32.9783C75.8037 33.0498 75.9326 33.2708 75.9326 33.848H77.4326ZM76.8109 31.9363C76.5347 31.6404 76.1535 31.488 75.7898 31.4028C75.414 31.3147 74.9684 31.278 74.4706 31.278V32.778C74.9062 32.778 75.2259 32.8113 75.4475 32.8632C75.6811 32.918 75.7292 32.9756 75.7143 32.9597L76.8109 31.9363ZM74.4706 31.278H67.9746V32.778H74.4706V31.278ZM67.9746 31.278C66.15 31.278 64.9881 30.938 64.3287 30.4076L63.3886 31.5764C64.4465 32.4274 66.0286 32.778 67.9746 32.778V31.278ZM64.3363 30.4138C63.714 29.8997 63.3206 29.0098 63.3206 27.548H61.8206C61.8206 29.2596 62.2859 30.6656 63.381 31.5702L64.3363 30.4138ZM63.3206 27.548V27.1H61.8206V27.548H63.3206ZM63.3206 27.1C63.3206 26.3716 63.4526 25.7181 63.707 25.1297L62.3302 24.5343C61.9873 25.3273 61.8206 26.1857 61.8206 27.1H63.3206ZM63.7001 25.1451C63.9423 24.618 64.3523 24.1802 64.9761 23.8372L64.2532 22.5228C63.3836 23.0011 62.7296 23.6647 62.3371 24.5189L63.7001 25.1451ZM64.9885 23.8302C65.5773 23.4916 66.4567 23.286 67.6946 23.286V21.786C66.3193 21.786 65.1453 22.0097 64.2408 22.5298L64.9885 23.8302ZM67.6946 23.286H75.3106V21.786H67.6946V23.286ZM75.3106 23.286C76.5599 23.286 77.5407 23.3507 78.2673 23.4718L78.5139 21.9922C77.6725 21.852 76.6 21.786 75.3106 21.786V23.286ZM78.2673 23.4718C78.6473 23.5351 78.8885 23.5942 79.0204 23.6413C79.0908 23.6665 79.085 23.6727 79.0477 23.6452C79.0265 23.6295 78.8166 23.4713 78.8166 23.152H80.3166C80.3166 22.758 80.0578 22.5263 79.9385 22.4383C79.8033 22.3385 79.6504 22.2735 79.5249 22.2287C79.2647 22.1358 78.9179 22.0595 78.5139 21.9922L78.2673 23.4718ZM78.837 22.9783L78.277 25.3303L79.7362 25.6777L80.2962 23.3257L78.837 22.9783ZM79.0926 24.7589C78.5704 24.6987 77.4356 24.6421 75.7271 24.5864L75.6782 26.0856C77.4043 26.1419 78.4722 26.1973 78.9207 26.2491L79.0926 24.7589ZM75.7352 24.5867C74.0022 24.5114 71.6846 24.474 68.7866 24.474V25.974C71.6753 25.974 73.9684 26.0113 75.67 26.0853L75.7352 24.5867ZM68.8545 24.4771L68.5465 24.4491L68.4107 25.9429L68.7187 25.9709L68.8545 24.4771ZM68.4786 24.446C67.5731 24.446 66.6934 24.6221 66.1689 25.2449L67.3163 26.2111C67.3892 26.1245 67.6668 25.946 68.4786 25.946V24.446ZM66.1821 25.2297C65.749 25.7169 65.5409 26.3221 65.5171 26.9892L67.0161 27.0428C67.0297 26.6645 67.1389 26.4111 67.3032 26.2263L66.1821 25.2297ZM65.5166 27.016V27.492H67.0166V27.016H65.5166ZM65.5166 27.492C65.5166 28.2427 65.7245 28.9356 66.2557 29.4373L67.2856 28.3467C67.1447 28.2137 67.0166 27.9733 67.0166 27.492H65.5166ZM66.2875 29.4657C66.846 29.936 67.6445 30.09 68.5066 30.09V28.59C67.7634 28.59 67.4046 28.4453 67.2537 28.3183L66.2875 29.4657ZM68.5066 30.09H74.7226V28.59H68.5066V30.09ZM74.7226 30.09C75.8707 30.09 76.8137 30.2071 77.5665 30.4245L77.9828 28.9835C77.0555 28.7156 75.9639 28.59 74.7226 28.59V30.09ZM77.5665 30.4245C78.2579 30.6243 78.7487 30.9773 79.0881 31.4721L80.3252 30.6239C79.7685 29.812 78.9713 29.269 77.9828 28.9835L77.5665 30.4245ZM79.0939 31.4805C79.413 31.9326 79.6286 32.6936 79.6286 33.876H81.1286C81.1286 32.5571 80.8962 31.4327 80.3194 30.6155L79.0939 31.4805ZM79.6286 33.876V34.324H81.1286V33.876H79.6286ZM79.6286 34.324C79.6286 35.5911 79.3017 36.5344 78.7146 37.227L79.8587 38.197C80.7275 37.1723 81.1286 35.8569 81.1286 34.324H79.6286ZM78.7084 37.2343C78.2083 37.8397 77.244 38.25 75.5626 38.25V39.75C77.4279 39.75 78.9463 39.3016 79.8648 38.1897L78.7084 37.2343ZM75.5626 38.25H66.2666V39.75H75.5626V38.25ZM89.9227 39L89.1727 39.0015L89.1742 39.75H89.9227V39ZM89.8947 25.196L90.6447 25.1945L90.6432 24.446H89.8947V25.196ZM82.6147 25.196H81.8647V25.946H82.6147V25.196ZM82.6147 22.508V21.758H81.8647V22.508H82.6147ZM100.927 22.508H101.677V21.758H100.927V22.508ZM100.927 25.196V25.946H101.677V25.196H100.927ZM93.6187 25.196V24.446H92.8687V25.196H93.6187ZM93.6187 39V39.75H94.3687V39H93.6187ZM90.6727 38.9985L90.6447 25.1945L89.1447 25.1975L89.1727 39.0015L90.6727 38.9985ZM89.8947 24.446H82.6147V25.946H89.8947V24.446ZM83.3647 25.196V22.508H81.8647V25.196H83.3647ZM82.6147 23.258H100.927V21.758H82.6147V23.258ZM100.177 22.508V25.196H101.677V22.508H100.177ZM100.927 24.446H93.6187V25.946H100.927V24.446ZM92.8687 25.196V39H94.3687V25.196H92.8687ZM93.6187 38.25H89.9227V39.75H93.6187V38.25ZM98.1328 39L97.4615 38.6655L96.9211 39.75H98.1328V39ZM106.337 22.536V21.786H105.873L105.666 22.2015L106.337 22.536ZM111.853 22.536L112.525 22.2024L112.318 21.786H111.853V22.536ZM120.029 39V39.75H121.239L120.701 38.6664L120.029 39ZM115.717 39L115.037 39.316L115.238 39.75H115.717V39ZM114.065 35.444L114.745 35.128L114.543 34.694H114.065V35.444ZM104.041 35.444V34.694H103.582L103.373 35.1023L104.041 35.444ZM102.221 39V39.75H102.679L102.888 39.3417L102.221 39ZM105.049 32.7L104.379 32.3617L103.829 33.45H105.049V32.7ZM113.029 32.7V33.45H114.244L113.699 32.3636L113.029 32.7ZM109.193 25.056L109.863 24.7196L109.656 24.306H109.193V25.056ZM108.913 25.056V24.306H108.452L108.243 24.7177L108.913 25.056ZM98.8041 39.3345L107.008 22.8705L105.666 22.2015L97.4615 38.6655L98.8041 39.3345ZM106.337 23.286H111.853V21.786H106.337V23.286ZM111.181 22.8696L119.357 39.3336L120.701 38.6664L112.525 22.2024L111.181 22.8696ZM120.029 38.25H115.717V39.75H120.029V38.25ZM116.397 38.684L114.745 35.128L113.385 35.76L115.037 39.316L116.397 38.684ZM114.065 34.694H104.041V36.194H114.065V34.694ZM103.373 35.1023L101.553 38.6583L102.888 39.3417L104.708 35.7857L103.373 35.1023ZM102.221 38.25H98.1328V39.75H102.221V38.25ZM105.049 33.45H113.029V31.95H105.049V33.45ZM113.699 32.3636L109.863 24.7196L108.522 25.3924L112.358 33.0364L113.699 32.3636ZM109.193 24.306H108.913V25.806H109.193V24.306ZM108.243 24.7177L104.379 32.3617L105.718 33.0383L109.582 25.3943L108.243 24.7177ZM123.464 38.44L123.129 39.1108L123.129 39.1108L123.464 38.44ZM121.896 36.76L122.593 36.4815L122.593 36.4815L121.896 36.76ZM122.652 23.796L123.195 24.3142L123.2 24.3082L122.652 23.796ZM137.94 22.732L137.778 23.4641L137.789 23.4667L137.801 23.4689L137.94 22.732ZM138.976 23.152L139.705 23.3277L139.726 23.2411V23.152H138.976ZM138.416 25.476L138.286 26.2146L138.98 26.3371L139.145 25.6517L138.416 25.476ZM135.588 25.308L135.552 26.0572L135.562 26.0575L135.588 25.308ZM125.62 35.808L125.061 36.3081L125.075 36.3236L125.09 36.3383L125.62 35.808ZM135.728 36.228L135.753 36.9776L135.761 36.9773L135.728 36.228ZM138.92 36.004L139.557 35.6082L139.288 35.1748L138.786 35.2661L138.92 36.004ZM140.068 37.852H140.818V37.638L140.705 37.4562L140.068 37.852ZM139.592 38.272L139.212 37.6255L139.203 37.6307L139.195 37.636L139.592 38.272ZM137.912 38.776L138.046 39.5139L138.046 39.5139L137.912 38.776ZM126.572 38.25C125.302 38.25 124.399 38.0686 123.8 37.7692L123.129 39.1108C124.023 39.558 125.192 39.75 126.572 39.75V38.25ZM123.8 37.7692C123.21 37.4746 122.82 37.0506 122.593 36.4815L121.2 37.0385C121.57 37.9627 122.225 38.6588 123.129 39.1108L123.8 37.7692ZM122.593 36.4815C122.34 35.8496 122.198 35.0269 122.198 33.988H120.698C120.698 35.1518 120.855 36.1771 121.2 37.0385L122.593 36.4815ZM122.198 33.988V27.744H120.698V33.988H122.198ZM122.198 27.744C122.198 26.0434 122.582 24.9553 123.195 24.3141L122.11 23.2779C121.117 24.3167 120.698 25.8606 120.698 27.744H122.198ZM123.2 24.3082C123.8 23.6667 124.858 23.258 126.572 23.258V21.758C124.665 21.758 123.11 22.208 122.104 23.2838L123.2 24.3082ZM126.572 23.258H135V21.758H126.572V23.258ZM135 23.258C136.272 23.258 137.187 23.3328 137.778 23.4641L138.103 21.9999C137.35 21.8325 136.304 21.758 135 21.758V23.258ZM137.801 23.4689C138.132 23.5316 138.333 23.5884 138.436 23.6301C138.49 23.6522 138.473 23.6528 138.43 23.6166C138.391 23.5838 138.226 23.43 138.226 23.152H139.726C139.726 22.7993 139.519 22.572 139.393 22.4669C139.264 22.3584 139.117 22.2878 138.999 22.2399C138.756 22.1416 138.439 22.063 138.08 21.9951L137.801 23.4689ZM138.247 22.9763L137.687 25.3003L139.145 25.6517L139.705 23.3277L138.247 22.9763ZM138.547 24.7374C138.165 24.67 137.157 24.6135 135.615 24.5585L135.562 26.0575C137.156 26.1145 138.033 26.17 138.286 26.2146L138.547 24.7374ZM135.624 24.5589C134.057 24.4833 131.784 24.446 128.812 24.446V25.946C131.777 25.946 134.021 25.9833 135.552 26.0571L135.624 24.5589ZM128.812 24.446H127.384V25.946H128.812V24.446ZM127.384 24.446C126.543 24.446 125.771 24.6308 125.206 25.1321C124.625 25.6484 124.394 26.381 124.394 27.184H125.894C125.894 26.6617 126.037 26.4002 126.202 26.2539C126.384 26.0925 126.733 25.946 127.384 25.946V24.446ZM124.394 27.184V34.324H125.894V27.184H124.394ZM124.394 34.324C124.394 35.0806 124.585 35.7755 125.061 36.3081L126.179 35.3079C126.021 35.1312 125.894 34.8367 125.894 34.324H124.394ZM125.09 36.3383C125.642 36.8903 126.486 37.062 127.384 37.062V35.562C126.603 35.562 126.271 35.3977 126.151 35.2777L125.09 36.3383ZM127.384 37.062H128.532V35.562H127.384V37.062ZM128.532 37.062C131.634 37.062 134.042 37.034 135.753 36.9776L135.704 35.4784C134.017 35.534 131.628 35.562 128.532 35.562V37.062ZM135.761 36.9773C137.458 36.9035 138.582 36.8279 139.054 36.7419L138.786 35.2661C138.438 35.3295 137.433 35.4032 135.696 35.4787L135.761 36.9773ZM138.283 36.3998L139.431 38.2478L140.705 37.4562L139.557 35.6082L138.283 36.3998ZM139.318 37.852C139.318 37.7568 139.339 37.679 139.359 37.6241C139.38 37.57 139.403 37.5314 139.418 37.509C139.447 37.4674 139.467 37.4527 139.453 37.4646C139.443 37.4738 139.419 37.493 139.376 37.5224C139.334 37.5511 139.28 37.5855 139.212 37.6255L139.973 38.9185C140.147 38.8158 140.313 38.7059 140.445 38.5894C140.511 38.5313 140.591 38.4524 140.659 38.3525C140.723 38.2586 140.818 38.0846 140.818 37.852H139.318ZM139.195 37.636C139.03 37.7389 138.6 37.8887 137.778 38.0381L138.046 39.5139C138.868 39.3646 139.557 39.1784 139.99 38.908L139.195 37.636ZM137.778 38.0381C137.024 38.1753 135.892 38.25 134.356 38.25V39.75C135.919 39.75 137.158 39.6754 138.046 39.5139L137.778 38.0381ZM134.356 38.25H126.572V39.75H134.356V38.25ZM142.865 39H142.115V39.75H142.865V39ZM142.865 22.536V21.786H142.115V22.536H142.865ZM146.561 22.536H147.311V21.786H146.561V22.536ZM146.561 39V39.75H147.311V39H146.561ZM143.615 39V22.536H142.115V39H143.615ZM142.865 23.286H146.561V21.786H142.865V23.286ZM145.811 22.536V39H147.311V22.536H145.811ZM146.561 38.25H142.865V39.75H146.561V38.25ZM152.805 38.44L152.469 39.1108L152.469 39.1108L152.805 38.44ZM151.209 36.76L150.512 37.0385L150.515 37.046L150.519 37.0534L151.209 36.76ZM151.209 24.804L151.903 25.0887L151.905 25.0825L151.209 24.804ZM152.777 23.124L153.112 23.7948L153.119 23.7915L153.125 23.788L152.777 23.124ZM167.113 23.124L166.757 23.7844L166.767 23.7897L166.777 23.7948L167.113 23.124ZM168.681 24.804L167.984 25.0825L167.989 25.0932L167.993 25.1037L168.681 24.804ZM168.065 37.74L168.632 38.2312L168.637 38.225L168.065 37.74ZM164.873 35.78L164.37 35.2238L164.363 35.23L164.356 35.2363L164.873 35.78ZM164.873 25.812L164.342 26.3423L164.349 26.3488L164.356 26.3551L164.873 25.812ZM155.045 35.808L154.542 36.3642L154.555 36.3767L154.57 36.3885L155.045 35.808ZM155.885 38.25C154.635 38.25 153.74 38.0692 153.14 37.7692L152.469 39.1108C153.363 39.5575 154.521 39.75 155.885 39.75V38.25ZM153.14 37.7692C152.548 37.473 152.144 37.0442 151.899 36.4666L150.519 37.0534C150.908 37.9691 151.568 38.6603 152.469 39.1108L153.14 37.7692ZM151.905 36.4815C151.652 35.8496 151.511 35.0269 151.511 33.988H150.011C150.011 35.1518 150.168 36.1771 150.512 37.0385L151.905 36.4815ZM151.511 33.988V27.52H150.011V33.988H151.511ZM151.511 27.52C151.511 26.5007 151.652 25.6993 151.903 25.0887L150.515 24.5193C150.168 25.3647 150.011 26.374 150.011 27.52H151.511ZM151.905 25.0825C152.133 24.5134 152.523 24.0894 153.112 23.7948L152.441 22.4532C151.537 22.9052 150.882 23.6013 150.512 24.5255L151.905 25.0825ZM153.125 23.788C153.72 23.4758 154.618 23.286 155.885 23.286V21.786C154.501 21.786 153.327 21.9882 152.428 22.46L153.125 23.788ZM155.885 23.286H164.061V21.786H155.885V23.286ZM164.061 23.286C165.308 23.286 166.184 23.4758 166.757 23.7844L167.468 22.4636C166.585 21.9882 165.427 21.786 164.061 21.786V23.286ZM166.777 23.7948C167.367 24.0894 167.757 24.5134 167.984 25.0825L169.377 24.5255C169.007 23.6013 168.352 22.9052 167.448 22.4532L166.777 23.7948ZM167.993 25.1037C168.257 25.7095 168.407 26.5052 168.407 27.52H169.907C169.907 26.3694 169.739 25.3545 169.368 24.5043L167.993 25.1037ZM168.407 27.52V33.988H169.907V27.52H168.407ZM168.407 33.988C168.407 35.5326 168.063 36.5822 167.493 37.255L168.637 38.225C169.522 37.1805 169.907 35.7287 169.907 33.988H168.407ZM167.498 37.2488C166.989 37.836 165.938 38.25 164.061 38.25V39.75C166.066 39.75 167.684 39.324 168.632 38.2312L167.498 37.2488ZM164.061 38.25H155.885V39.75H164.061V38.25ZM156.697 37.062H163.277V35.562H156.697V37.062ZM163.277 37.062C164.093 37.062 164.835 36.8508 165.389 36.3237L164.356 35.2363C164.164 35.4185 163.842 35.562 163.277 35.562V37.062ZM165.376 36.3362C165.952 35.8154 166.211 35.1135 166.211 34.324H164.711C164.711 34.7665 164.578 35.0353 164.37 35.2238L165.376 36.3362ZM166.211 34.324V27.184H164.711V34.324H166.211ZM166.211 27.184C166.211 26.4374 165.931 25.7838 165.39 25.2689L164.356 26.3551C164.599 26.5869 164.711 26.8479 164.711 27.184H166.211ZM165.403 25.2817C164.842 24.7201 164.103 24.474 163.277 24.474V25.974C163.795 25.974 164.12 26.1199 164.342 26.3423L165.403 25.2817ZM163.277 24.474H156.697V25.974H163.277V24.474ZM156.697 24.474C155.889 24.474 155.16 24.6899 154.583 25.1884L155.563 26.3236C155.807 26.1127 156.16 25.974 156.697 25.974V24.474ZM154.583 25.1884C153.989 25.7009 153.707 26.3934 153.707 27.184H155.207C155.207 26.7799 155.335 26.5204 155.563 26.3236L154.583 25.1884ZM153.707 27.184V34.324H155.207V27.184H153.707ZM153.707 34.324C153.707 35.1244 153.961 35.839 154.542 36.3642L155.548 35.2518C155.344 35.0677 155.207 34.793 155.207 34.324H153.707ZM154.57 36.3885C155.15 36.8635 155.886 37.062 156.697 37.062V35.562C156.126 35.562 155.76 35.4245 155.52 35.2275L154.57 36.3885ZM173.633 39H172.883V39.75H173.633V39ZM173.633 24.776H174.383V24.7293L174.377 24.683L173.633 24.776ZM173.353 22.536V21.786H172.504L172.609 22.629L173.353 22.536ZM177.385 22.536L177.928 22.018L177.706 21.786H177.385V22.536ZM186.905 32.504L187.513 32.0649L187.483 32.0232L187.448 31.986L186.905 32.504ZM187.997 34.016L187.389 34.4551L187.614 34.766H187.997V34.016ZM188.305 34.016V34.766H189.055V34.016H188.305ZM188.305 22.536V21.786H187.555V22.536H188.305ZM192.001 22.536H192.751V21.786H192.001V22.536ZM192.001 39V39.75H192.751V39H192.001ZM188.445 39L187.905 39.5198L188.126 39.75H188.445V39ZM178.701 28.864L178.124 29.3429L178.142 29.364L178.161 29.3838L178.701 28.864ZM177.609 27.548L178.186 27.0691L177.962 26.798H177.609V27.548ZM177.329 27.548V26.798H176.579V27.548H177.329ZM177.329 39V39.75H178.079V39H177.329ZM174.383 39V24.776H172.883V39H174.383ZM174.377 24.683L174.097 22.443L172.609 22.629L172.889 24.869L174.377 24.683ZM173.353 23.286H177.385V21.786H173.353V23.286ZM176.843 23.054L186.363 33.022L187.448 31.986L177.928 22.018L176.843 23.054ZM186.297 32.9431L187.389 34.4551L188.605 33.5769L187.513 32.0649L186.297 32.9431ZM187.997 34.766H188.305V33.266H187.997V34.766ZM189.055 34.016V22.536H187.555V34.016H189.055ZM188.305 23.286H192.001V21.786H188.305V23.286ZM191.251 22.536V39H192.751V22.536H191.251ZM192.001 38.25H188.445V39.75H192.001V38.25ZM188.986 38.4802L179.242 28.3442L178.161 29.3838L187.905 39.5198L188.986 38.4802ZM179.278 28.3851L178.186 27.0691L177.032 28.0269L178.124 29.3429L179.278 28.3851ZM177.609 26.798H177.329V28.298H177.609V26.798ZM176.579 27.548V39H178.079V27.548H176.579ZM177.329 38.25H173.633V39.75H177.329V38.25ZM194.246 39L193.575 38.6655L193.034 39.75H194.246V39ZM202.45 22.536V21.786H201.986L201.779 22.2015L202.45 22.536ZM207.966 22.536L208.638 22.2024L208.431 21.786H207.966V22.536ZM216.142 39V39.75H217.352L216.814 38.6664L216.142 39ZM211.83 39L211.15 39.316L211.352 39.75H211.83V39ZM210.178 35.444L210.858 35.128L210.657 34.694H210.178V35.444ZM200.154 35.444V34.694H199.695L199.486 35.1023L200.154 35.444ZM198.334 39V39.75H198.793L199.002 39.3417L198.334 39ZM201.162 32.7L200.493 32.3617L199.943 33.45H201.162V32.7ZM209.142 32.7V33.45H210.358L209.812 32.3636L209.142 32.7ZM205.306 25.056L205.976 24.7196L205.769 24.306H205.306V25.056ZM205.026 25.056V24.306H204.565L204.357 24.7177L205.026 25.056ZM194.917 39.3345L203.121 22.8705L201.779 22.2015L193.575 38.6655L194.917 39.3345ZM202.45 23.286H207.966V21.786H202.45V23.286ZM207.294 22.8696L215.47 39.3336L216.814 38.6664L208.638 22.2024L207.294 22.8696ZM216.142 38.25H211.83V39.75H216.142V38.25ZM212.51 38.684L210.858 35.128L209.498 35.76L211.15 39.316L212.51 38.684ZM210.178 34.694H200.154V36.194H210.178V34.694ZM199.486 35.1023L197.666 38.6583L199.002 39.3417L200.822 35.7857L199.486 35.1023ZM198.334 38.25H194.246V39.75H198.334V38.25ZM201.162 33.45H209.142V31.95H201.162V33.45ZM209.812 32.3636L205.976 24.7196L204.636 25.3924L208.472 33.0364L209.812 32.3636ZM205.306 24.306H205.026V25.806H205.306V24.306ZM204.357 24.7177L200.493 32.3617L201.831 33.0383L205.695 25.3943L204.357 24.7177ZM234.068 38.944L233.826 39.6536L233.837 39.6574L233.848 39.6608L234.068 38.944ZM231.632 37.208L231.102 37.7383L231.102 37.7383L231.632 37.208ZM229.616 35.192L229.08 35.7164L229.086 35.7223L229.616 35.192ZM226.9 33.344L226.62 34.0394L226.624 34.0413L226.9 33.344ZM222.364 32.756V32.006H221.614V32.756H222.364ZM222.364 39V39.75H223.114V39H222.364ZM218.668 39H217.918V39.75H218.668V39ZM218.668 24.776H219.418V24.7299L219.413 24.6841L218.668 24.776ZM218.388 22.508V21.758H217.54L217.644 22.5999L218.388 22.508ZM233.592 22.984L233.272 23.6622L233.279 23.6655L233.592 22.984ZM235.104 24.244L234.463 24.6332L234.472 24.6468L234.48 24.66L235.104 24.244ZM235.72 29.424L236.453 29.5867L236.453 29.5867L235.72 29.424ZM235.076 30.908L235.704 31.3184L235.704 31.3184L235.076 30.908ZM233.704 32.14L233.337 31.4863L233.328 31.4914L233.704 32.14ZM231.408 32.728L231.364 31.9793L228.724 32.1346L231.053 33.3884L231.408 32.728ZM232.332 33.344L231.882 33.944L231.892 33.9514L231.902 33.9584L232.332 33.344ZM233.48 34.212L233.009 34.7949L233.015 34.8003L233.022 34.8055L233.48 34.212ZM234.6 35.08L234.14 35.672L234.14 35.672L234.6 35.08ZM235.384 35.64L234.999 36.2832L235.007 36.2878L235.384 35.64ZM239.052 36.732L239.781 36.9118L240.01 35.982H239.052V36.732ZM238.492 39L238.73 39.7115L239.122 39.5809L239.221 39.1798L238.492 39ZM237.652 39.168L237.546 38.4255L237.529 38.428L237.512 38.4312L237.652 39.168ZM228.468 30.18L228.493 30.9296L228.506 30.9292L228.518 30.9283L228.468 30.18ZM229.98 30.068L230.043 30.8154L230.054 30.8145L230.065 30.8132L229.98 30.068ZM231.688 29.396L231.131 28.8943L231.13 28.8959L231.688 29.396ZM231.716 25.812L232.31 25.3534L232.31 25.3534L231.716 25.812ZM222.364 25.196V24.446H221.614V25.196H222.364ZM222.364 30.068H221.614V30.7686L222.313 30.8163L222.364 30.068ZM224.632 30.18L224.653 29.4303L224.653 29.4303L224.632 30.18ZM236.28 38.53C235.61 38.53 234.947 38.4296 234.289 38.2272L233.848 39.6608C234.646 39.9064 235.458 40.03 236.28 40.03V38.53ZM234.311 38.2344C233.762 38.0465 233.047 37.5621 232.163 36.6777L231.102 37.7383C232.047 38.6832 232.956 39.3562 233.826 39.6536L234.311 38.2344ZM232.163 36.6777L230.147 34.6617L229.086 35.7223L231.102 37.7383L232.163 36.6777ZM230.153 34.6677C229.265 33.7603 228.274 33.0814 227.177 32.6467L226.624 34.0413C227.506 34.3906 228.325 34.9437 229.08 35.7163L230.153 34.6677ZM227.181 32.6486C226.093 32.209 224.767 32.006 223.232 32.006V33.506C224.647 33.506 225.767 33.695 226.62 34.0394L227.181 32.6486ZM223.232 32.006H222.364V33.506H223.232V32.006ZM221.614 32.756V39H223.114V32.756H221.614ZM222.364 38.25H218.668V39.75H222.364V38.25ZM219.418 39V24.776H217.918V39H219.418ZM219.413 24.6841L219.133 22.4161L217.644 22.5999L217.924 24.8679L219.413 24.6841ZM218.388 23.258H230.792V21.758H218.388V23.258ZM230.792 23.258C231.936 23.258 232.743 23.4123 233.272 23.6622L233.913 22.3058C233.098 21.921 232.038 21.758 230.792 21.758V23.258ZM233.279 23.6655C233.867 23.9356 234.241 24.2666 234.463 24.6332L235.746 23.8548C235.333 23.1761 234.699 22.6671 233.906 22.3025L233.279 23.6655ZM234.48 24.66C234.759 25.0777 234.932 25.5184 235.008 25.9874L236.489 25.7486C236.378 25.0603 236.122 24.4183 235.728 23.828L234.48 24.66ZM235.008 25.9874C235.096 26.5313 235.138 27.0418 235.138 27.52H236.638C236.638 26.9529 236.588 26.3621 236.489 25.7486L235.008 25.9874ZM235.138 27.52V28.052H236.638V27.52H235.138ZM235.138 28.052C235.138 28.3961 235.091 28.7977 234.988 29.2613L236.453 29.5867C236.574 29.0423 236.638 28.5293 236.638 28.052H235.138ZM234.988 29.2613C234.898 29.6669 234.723 30.0786 234.449 30.4976L235.704 31.3184C236.065 30.7667 236.319 30.1891 236.453 29.5867L234.988 29.2613ZM234.449 30.4976C234.208 30.8653 233.848 31.1986 233.337 31.4863L234.072 32.7937C234.755 32.4094 235.31 31.9214 235.704 31.3184L234.449 30.4976ZM233.328 31.4914C232.884 31.7488 232.246 31.9274 231.364 31.9793L231.452 33.4767C232.475 33.4166 233.367 33.2032 234.081 32.7886L233.328 31.4914ZM231.053 33.3884C231.248 33.4933 231.522 33.6734 231.882 33.944L232.782 32.744C232.397 32.4546 232.054 32.224 231.764 32.0676L231.053 33.3884ZM231.902 33.9584C232.26 34.2088 232.629 34.4874 233.009 34.7949L233.952 33.6291C233.548 33.3019 233.152 33.0019 232.763 32.7296L231.902 33.9584ZM233.022 34.8055C233.432 35.1224 233.805 35.4113 234.14 35.672L235.061 34.488C234.724 34.2261 234.35 33.9363 233.939 33.6185L233.022 34.8055ZM234.14 35.672C234.482 35.9379 234.772 36.1472 234.999 36.2831L235.77 34.9969C235.624 34.9088 235.391 34.7447 235.061 34.488L234.14 35.672ZM235.007 36.2878C235.711 36.699 236.368 37.001 236.97 37.1731L237.382 35.7309C236.94 35.6043 236.401 35.365 235.762 34.9922L235.007 36.2878ZM236.97 37.1731C237.518 37.3297 238.008 37.4298 238.423 37.4528L238.506 35.9552C238.249 35.9409 237.88 35.873 237.382 35.7309L236.97 37.1731ZM238.423 37.4528C238.746 37.4708 238.97 37.482 239.052 37.482V35.982C239.053 35.982 239.043 35.9819 239.012 35.9808C238.984 35.9797 238.947 35.9781 238.899 35.9758C238.804 35.9713 238.673 35.9644 238.506 35.9552L238.423 37.4528ZM238.324 36.5522L237.764 38.8202L239.221 39.1798L239.781 36.9118L238.324 36.5522ZM238.255 38.2885C238.156 38.3214 237.935 38.3701 237.546 38.4255L237.759 39.9105C238.154 39.8539 238.492 39.7906 238.73 39.7115L238.255 38.2885ZM237.512 38.4312C237.178 38.4949 236.77 38.53 236.28 38.53V40.03C236.837 40.03 237.343 39.9905 237.793 39.9048L237.512 38.4312ZM226.564 30.958C227.28 30.958 227.923 30.9486 228.493 30.9296L228.443 29.4304C227.894 29.4487 227.268 29.458 226.564 29.458V30.958ZM228.518 30.9283C229.081 30.8908 229.59 30.8532 230.043 30.8154L229.918 29.3206C229.475 29.3575 228.975 29.3945 228.419 29.4317L228.518 30.9283ZM230.065 30.8132C230.946 30.7131 231.744 30.4583 232.247 29.8961L231.13 28.8959C230.998 29.043 230.657 29.2363 229.896 29.3228L230.065 30.8132ZM232.246 29.8977C232.725 29.3658 232.942 28.7019 232.942 27.968H231.442C231.442 28.3915 231.324 28.6795 231.131 28.8943L232.246 29.8977ZM232.942 27.968V27.324H231.442V27.968H232.942ZM232.942 27.324C232.942 26.5869 232.744 25.9147 232.31 25.3534L231.123 26.2706C231.324 26.5306 231.442 26.8664 231.442 27.324H232.942ZM232.31 25.3534C231.784 24.6728 230.926 24.446 230.008 24.446V25.946C230.734 25.946 231.014 26.1299 231.123 26.2706L232.31 25.3534ZM230.008 24.446H222.364V25.946H230.008V24.446ZM221.614 25.196V30.068H223.114V25.196H221.614ZM222.313 30.8163C223.143 30.8728 223.91 30.9107 224.612 30.9297L224.653 29.4303C223.974 29.4119 223.228 29.3752 222.415 29.3197L222.313 30.8163ZM224.612 30.9297C225.309 30.9485 225.959 30.958 226.564 30.958V29.458C225.975 29.458 225.338 29.4488 224.653 29.4303L224.612 30.9297Z" fill="#2F2F2F"/>
<path d="M81.668 55.112C80.788 55.112 80.072 55.104 79.52 55.088C78.968 55.072 78.544 55.048 78.248 55.016C77.952 54.984 77.748 54.944 77.636 54.896C77.532 54.848 77.48 54.796 77.48 54.74L77.84 53.84C77.968 53.88 78.192 53.928 78.512 53.984C78.84 54.048 79.256 54.08 79.76 54.08H81.812C82.108 54.08 82.316 54.036 82.436 53.948C82.564 53.86 82.628 53.704 82.628 53.48V52.76C82.284 52.824 81.876 52.88 81.404 52.928C80.94 52.976 80.404 53 79.796 53H79.196C78.796 53 78.488 52.948 78.272 52.844C78.056 52.74 77.9 52.608 77.804 52.448C77.716 52.288 77.66 52.12 77.636 51.944C77.62 51.768 77.612 51.608 77.612 51.464V49.16C77.612 49.04 77.62 48.896 77.636 48.728C77.66 48.552 77.716 48.38 77.804 48.212C77.9 48.044 78.056 47.904 78.272 47.792C78.496 47.68 78.804 47.624 79.196 47.624H79.808C80.648 47.624 81.3 47.64 81.764 47.672C82.236 47.704 82.58 47.74 82.796 47.78L83.108 47.624H84.092V53.576C84.092 53.72 84.068 53.88 84.02 54.056C83.98 54.232 83.896 54.4 83.768 54.56C83.64 54.72 83.456 54.852 83.216 54.956C82.976 55.06 82.66 55.112 82.268 55.112H81.668ZM79.652 51.968H82.256C82.44 51.968 82.548 51.952 82.58 51.92C82.612 51.888 82.628 51.784 82.628 51.608V48.74C82.356 48.724 82.012 48.708 81.596 48.692C81.18 48.668 80.736 48.656 80.264 48.656H79.652C79.268 48.656 79.076 48.816 79.076 49.136V51.488C79.068 51.808 79.26 51.968 79.652 51.968ZM87.0004 53C86.6004 53 86.2924 52.948 86.0764 52.844C85.8604 52.74 85.7044 52.608 85.6084 52.448C85.5204 52.288 85.4644 52.12 85.4404 51.944C85.4244 51.768 85.4164 51.608 85.4164 51.464V49.16C85.4164 49.04 85.4244 48.896 85.4404 48.728C85.4644 48.552 85.5204 48.38 85.6084 48.212C85.7044 48.044 85.8604 47.904 86.0764 47.792C86.3004 47.68 86.6084 47.624 87.0004 47.624H89.5804C90.1084 47.624 90.5204 47.676 90.8164 47.78C91.1204 47.876 91.3324 48.036 91.4524 48.26C91.5804 48.484 91.6444 48.784 91.6444 49.16V50.936H89.5444C88.8244 50.936 88.2364 50.92 87.7804 50.888C87.3324 50.856 87.0324 50.836 86.8804 50.828V51.488C86.8724 51.808 87.0644 51.968 87.4564 51.968H88.0684C88.5004 51.968 88.9204 51.964 89.3284 51.956C89.7444 51.94 90.1244 51.924 90.4684 51.908C90.8124 51.884 91.0884 51.864 91.2964 51.848L91.7764 52.628C91.7764 52.876 90.9884 53 89.4124 53H87.0004ZM86.8804 49.904H90.1804V49.136C90.1804 48.976 90.1604 48.864 90.1204 48.8C90.0884 48.736 89.9844 48.696 89.8084 48.68C89.6324 48.664 89.3324 48.656 88.9084 48.656H87.4564C87.0724 48.656 86.8804 48.816 86.8804 49.136V49.904ZM92.9778 53V47.624H93.9618L94.4178 47.864C94.6258 47.752 94.8498 47.664 95.0898 47.6C95.3298 47.536 95.6338 47.504 96.0018 47.504C96.5858 47.504 97.0578 47.568 97.4178 47.696C97.7858 47.824 98.0298 47.92 98.1498 47.984L97.7298 49.028C97.6338 48.98 97.4738 48.92 97.2498 48.848C97.0338 48.768 96.7778 48.696 96.4818 48.632C96.1858 48.568 95.8618 48.536 95.5098 48.536H95.3778C94.9938 48.536 94.7418 48.612 94.6218 48.764C94.5098 48.916 94.4498 49.168 94.4418 49.52V53H92.9778ZM100.454 53C100.054 53 99.7455 52.948 99.5295 52.844C99.3135 52.74 99.1575 52.608 99.0615 52.448C98.9735 52.288 98.9175 52.12 98.8935 51.944C98.8775 51.768 98.8695 51.608 98.8695 51.464V49.16C98.8695 49.04 98.8775 48.896 98.8935 48.728C98.9175 48.552 98.9735 48.38 99.0615 48.212C99.1575 48.044 99.3135 47.904 99.5295 47.792C99.7535 47.68 100.062 47.624 100.454 47.624H103.034C103.562 47.624 103.974 47.676 104.27 47.78C104.574 47.876 104.786 48.036 104.906 48.26C105.034 48.484 105.098 48.784 105.098 49.16V50.936H102.998C102.278 50.936 101.69 50.92 101.234 50.888C100.786 50.856 100.486 50.836 100.334 50.828V51.488C100.326 51.808 100.518 51.968 100.91 51.968H101.522C101.954 51.968 102.374 51.964 102.782 51.956C103.198 51.94 103.578 51.924 103.922 51.908C104.266 51.884 104.542 51.864 104.75 51.848L105.23 52.628C105.23 52.876 104.442 53 102.866 53H100.454ZM100.334 49.904H103.634V49.136C103.634 48.976 103.614 48.864 103.574 48.8C103.542 48.736 103.438 48.696 103.262 48.68C103.086 48.664 102.786 48.656 102.362 48.656H100.91C100.526 48.656 100.334 48.816 100.334 49.136V49.904ZM106.431 53V47.624H107.415L107.895 47.864C108.231 47.8 108.635 47.744 109.107 47.696C109.579 47.648 110.119 47.624 110.727 47.624H111.327C111.727 47.624 112.035 47.68 112.251 47.792C112.467 47.904 112.619 48.044 112.707 48.212C112.803 48.38 112.859 48.552 112.875 48.728C112.899 48.896 112.911 49.04 112.911 49.16V53H111.447V49.136C111.447 48.816 111.255 48.656 110.871 48.656H108.255C108.103 48.656 108.003 48.672 107.955 48.704C107.915 48.728 107.895 48.8 107.895 48.92V53H106.431ZM115.758 53C115.358 53 115.05 52.948 114.834 52.844C114.618 52.74 114.462 52.608 114.366 52.448C114.278 52.288 114.222 52.12 114.198 51.944C114.182 51.768 114.174 51.608 114.174 51.464V49.16C114.174 49.04 114.182 48.896 114.198 48.728C114.222 48.552 114.278 48.38 114.366 48.212C114.462 48.044 114.618 47.904 114.834 47.792C115.058 47.68 115.366 47.624 115.758 47.624H117.426C118.426 47.624 119.134 47.652 119.55 47.708C119.974 47.756 120.186 47.808 120.186 47.864L119.946 48.776C119.722 48.76 119.438 48.744 119.094 48.728C118.75 48.704 118.378 48.688 117.978 48.68C117.586 48.664 117.202 48.656 116.826 48.656H116.214C115.83 48.656 115.638 48.816 115.638 49.136V51.488C115.63 51.808 115.822 51.968 116.214 51.968H116.826C117.258 51.968 117.678 51.964 118.086 51.956C118.502 51.94 118.882 51.924 119.226 51.908C119.57 51.884 119.846 51.864 120.054 51.848L120.534 52.628C120.534 52.876 119.746 53 118.17 53H115.758ZM122.224 46.868C121.928 46.868 121.712 46.808 121.576 46.688C121.44 46.568 121.372 46.368 121.372 46.088C121.372 45.8 121.436 45.6 121.564 45.488C121.7 45.368 121.92 45.308 122.224 45.308C122.528 45.308 122.748 45.368 122.884 45.488C123.02 45.6 123.088 45.8 123.088 46.088C123.088 46.36 123.02 46.56 122.884 46.688C122.748 46.808 122.528 46.868 122.224 46.868ZM121.492 53V47.624H122.956V53H121.492ZM126.073 53C125.465 53 125.025 52.86 124.753 52.58C124.481 52.292 124.345 51.9 124.345 51.404C124.345 50.884 124.485 50.484 124.765 50.204C125.053 49.924 125.489 49.784 126.073 49.784H126.685C127.285 49.784 127.825 49.8 128.305 49.832C128.785 49.864 129.181 49.896 129.493 49.928V49.136C129.493 49.064 129.485 48.992 129.469 48.92C129.453 48.84 129.405 48.776 129.325 48.728C129.245 48.68 129.109 48.656 128.917 48.656H128.317C127.445 48.656 126.717 48.672 126.133 48.704C125.549 48.728 125.153 48.752 124.945 48.776L124.813 47.864C124.813 47.752 125.117 47.684 125.725 47.66C126.333 47.636 127.349 47.624 128.773 47.624H129.373C129.773 47.624 130.081 47.68 130.297 47.792C130.513 47.904 130.665 48.044 130.753 48.212C130.849 48.38 130.905 48.552 130.921 48.728C130.945 48.896 130.957 49.04 130.957 49.16V53H129.973L129.505 52.76C129.169 52.816 128.765 52.872 128.293 52.928C127.821 52.976 127.281 53 126.673 53H126.073ZM126.385 51.968H129.133C129.309 51.968 129.413 51.952 129.445 51.92C129.477 51.888 129.493 51.788 129.493 51.62V50.696H126.385C126.169 50.696 126.017 50.748 125.929 50.852C125.849 50.956 125.809 51.12 125.809 51.344C125.809 51.568 125.857 51.728 125.953 51.824C126.049 51.92 126.193 51.968 126.385 51.968ZM133.805 53C133.405 53 133.097 52.948 132.881 52.844C132.665 52.74 132.509 52.608 132.413 52.448C132.325 52.288 132.269 52.12 132.245 51.944C132.229 51.768 132.221 51.608 132.221 51.464V49.16C132.221 49.04 132.229 48.896 132.245 48.728C132.269 48.552 132.325 48.38 132.413 48.212C132.509 48.044 132.665 47.904 132.881 47.792C133.105 47.68 133.413 47.624 133.805 47.624H134.417C135.153 47.624 135.745 47.64 136.193 47.672C136.649 47.696 136.997 47.724 137.237 47.756V45.392H138.701V53H137.717L137.249 52.76C136.913 52.816 136.509 52.872 136.037 52.928C135.565 52.976 135.021 53 134.405 53H133.805ZM134.261 51.968H136.865C137.033 51.968 137.137 51.948 137.177 51.908C137.217 51.868 137.237 51.768 137.237 51.608V48.74C136.965 48.724 136.621 48.708 136.205 48.692C135.789 48.668 135.345 48.656 134.873 48.656H134.261C133.877 48.656 133.685 48.816 133.685 49.136V51.488C133.685 51.808 133.877 51.968 134.261 51.968ZM141.727 53C141.191 53 140.791 52.892 140.527 52.676C140.271 52.46 140.143 52.108 140.143 51.62V49.16C140.143 49.04 140.151 48.896 140.167 48.728C140.191 48.552 140.247 48.38 140.335 48.212C140.431 48.044 140.587 47.904 140.803 47.792C141.027 47.68 141.335 47.624 141.727 47.624H145.039C145.439 47.624 145.747 47.68 145.963 47.792C146.179 47.904 146.331 48.044 146.419 48.212C146.515 48.38 146.571 48.552 146.587 48.728C146.611 48.896 146.623 49.04 146.623 49.16V51.464C146.623 51.608 146.611 51.768 146.587 51.944C146.571 52.12 146.515 52.288 146.419 52.448C146.323 52.608 146.167 52.74 145.951 52.844C145.735 52.948 145.431 53 145.039 53H141.727ZM142.183 51.968H144.583C144.975 51.968 145.171 51.808 145.171 51.488V49.136C145.171 48.816 144.975 48.656 144.583 48.656H142.183C141.799 48.656 141.607 48.816 141.607 49.136V51.488C141.607 51.808 141.799 51.968 142.183 51.968ZM147.939 53V47.624H148.923L149.379 47.864C149.587 47.752 149.811 47.664 150.051 47.6C150.291 47.536 150.595 47.504 150.963 47.504C151.547 47.504 152.019 47.568 152.379 47.696C152.747 47.824 152.991 47.92 153.111 47.984L152.691 49.028C152.595 48.98 152.435 48.92 152.211 48.848C151.995 48.768 151.739 48.696 151.443 48.632C151.147 48.568 150.823 48.536 150.471 48.536H150.339C149.955 48.536 149.703 48.612 149.583 48.764C149.471 48.916 149.411 49.168 149.403 49.52V53H147.939ZM79.184 67C78.784 67 78.476 66.948 78.26 66.844C78.044 66.74 77.888 66.608 77.792 66.448C77.704 66.288 77.648 66.12 77.624 65.944C77.608 65.768 77.6 65.608 77.6 65.464V63.16C77.6 63.04 77.608 62.896 77.624 62.728C77.648 62.552 77.704 62.38 77.792 62.212C77.888 62.044 78.044 61.904 78.26 61.792C78.484 61.68 78.792 61.624 79.184 61.624H79.796C80.532 61.624 81.124 61.64 81.572 61.672C82.028 61.696 82.376 61.724 82.616 61.756V59.392H84.08V67H83.096L82.628 66.76C82.292 66.816 81.888 66.872 81.416 66.928C80.944 66.976 80.4 67 79.784 67H79.184ZM79.64 65.968H82.244C82.412 65.968 82.516 65.948 82.556 65.908C82.596 65.868 82.616 65.768 82.616 65.608V62.74C82.344 62.724 82 62.708 81.584 62.692C81.168 62.668 80.724 62.656 80.252 62.656H79.64C79.256 62.656 79.064 62.816 79.064 63.136V65.488C79.064 65.808 79.256 65.968 79.64 65.968ZM87.1059 67C86.7059 67 86.3979 66.948 86.1819 66.844C85.9659 66.74 85.8099 66.608 85.7139 66.448C85.6259 66.288 85.5699 66.12 85.5459 65.944C85.5299 65.768 85.5219 65.608 85.5219 65.464V63.16C85.5219 63.04 85.5299 62.896 85.5459 62.728C85.5699 62.552 85.6259 62.38 85.7139 62.212C85.8099 62.044 85.9659 61.904 86.1819 61.792C86.4059 61.68 86.7139 61.624 87.1059 61.624H89.6859C90.2139 61.624 90.6259 61.676 90.9219 61.78C91.2259 61.876 91.4379 62.036 91.5579 62.26C91.6859 62.484 91.7499 62.784 91.7499 63.16V64.936H89.6499C88.9299 64.936 88.3419 64.92 87.8859 64.888C87.4379 64.856 87.1379 64.836 86.9859 64.828V65.488C86.9779 65.808 87.1699 65.968 87.5619 65.968H88.1739C88.6059 65.968 89.0259 65.964 89.4339 65.956C89.8499 65.94 90.2299 65.924 90.5739 65.908C90.9179 65.884 91.1939 65.864 91.4019 65.848L91.8819 66.628C91.8819 66.876 91.0939 67 89.5179 67H87.1059ZM86.9859 63.904H90.2859V63.136C90.2859 62.976 90.2659 62.864 90.2259 62.8C90.1939 62.736 90.0899 62.696 89.9139 62.68C89.7379 62.664 89.4379 62.656 89.0139 62.656H87.5619C87.1779 62.656 86.9859 62.816 86.9859 63.136V63.904ZM97.184 67C96.784 67 96.476 66.948 96.26 66.844C96.044 66.74 95.888 66.608 95.792 66.448C95.704 66.288 95.648 66.12 95.624 65.944C95.608 65.768 95.6 65.608 95.6 65.464V63.16C95.6 63.04 95.608 62.896 95.624 62.728C95.648 62.552 95.704 62.38 95.792 62.212C95.888 62.044 96.044 61.904 96.26 61.792C96.484 61.68 96.792 61.624 97.184 61.624H99.764C100.292 61.624 100.704 61.676 101 61.78C101.304 61.876 101.516 62.036 101.636 62.26C101.764 62.484 101.828 62.784 101.828 63.16V64.936H99.728C99.008 64.936 98.42 64.92 97.964 64.888C97.516 64.856 97.216 64.836 97.064 64.828V65.488C97.056 65.808 97.248 65.968 97.64 65.968H98.252C98.684 65.968 99.104 65.964 99.512 65.956C99.928 65.94 100.308 65.924 100.652 65.908C100.996 65.884 101.272 65.864 101.48 65.848L101.96 66.628C101.96 66.876 101.172 67 99.596 67H97.184ZM97.064 63.904H100.364V63.136C100.364 62.976 100.344 62.864 100.304 62.8C100.272 62.736 100.168 62.696 99.992 62.68C99.816 62.664 99.516 62.656 99.092 62.656H97.64C97.256 62.656 97.064 62.816 97.064 63.136V63.904ZM104.517 67C103.981 67 103.601 66.972 103.377 66.916C103.153 66.86 103.041 66.804 103.041 66.748L103.401 65.848C103.633 65.872 104.057 65.9 104.673 65.932C105.297 65.956 106.065 65.968 106.977 65.968H107.577C107.777 65.968 107.901 65.916 107.949 65.812C108.005 65.7 108.033 65.552 108.033 65.368C108.033 65.184 108.001 65.036 107.937 64.924C107.881 64.812 107.761 64.756 107.577 64.756H104.625C104.065 64.756 103.661 64.652 103.413 64.444C103.165 64.228 103.041 63.908 103.041 63.484V63.004C103.041 62.892 103.053 62.76 103.077 62.608C103.101 62.456 103.161 62.304 103.257 62.152C103.353 62 103.509 61.876 103.725 61.78C103.941 61.676 104.241 61.624 104.625 61.624H107.937C108.417 61.624 108.757 61.652 108.957 61.708C109.157 61.764 109.257 61.82 109.257 61.876L109.137 62.776C108.905 62.752 108.477 62.728 107.853 62.704C107.229 62.672 106.465 62.656 105.561 62.656H104.961C104.761 62.656 104.633 62.712 104.577 62.824C104.529 62.928 104.505 63.052 104.505 63.196C104.505 63.348 104.529 63.476 104.577 63.58C104.633 63.676 104.761 63.724 104.961 63.724H107.913C108.457 63.724 108.857 63.836 109.113 64.06C109.369 64.284 109.497 64.568 109.497 64.912V65.62C109.497 65.764 109.485 65.916 109.461 66.076C109.445 66.236 109.389 66.388 109.293 66.532C109.197 66.668 109.041 66.78 108.825 66.868C108.609 66.956 108.305 67 107.913 67H104.517ZM112.902 67C112.294 67 111.878 66.872 111.654 66.616C111.43 66.36 111.318 65.976 111.318 65.464V62.656H110.334V61.624H110.838C110.99 61.624 111.098 61.6 111.162 61.552C111.234 61.504 111.286 61.408 111.318 61.264L111.558 59.98H112.782V61.624H115.278V62.656H112.782V65.476C112.782 65.676 112.83 65.808 112.926 65.872C113.022 65.936 113.166 65.968 113.358 65.968H115.05L115.17 66.88C115.002 66.904 114.746 66.932 114.402 66.964C114.058 66.988 113.682 67 113.274 67H112.902ZM117.788 67C117.18 67 116.74 66.86 116.468 66.58C116.196 66.292 116.06 65.9 116.06 65.404C116.06 64.884 116.2 64.484 116.48 64.204C116.768 63.924 117.204 63.784 117.788 63.784H118.4C119 63.784 119.54 63.8 120.02 63.832C120.5 63.864 120.896 63.896 121.208 63.928V63.136C121.208 63.064 121.2 62.992 121.184 62.92C121.168 62.84 121.12 62.776 121.04 62.728C120.96 62.68 120.824 62.656 120.632 62.656H120.032C119.16 62.656 118.432 62.672 117.848 62.704C117.264 62.728 116.868 62.752 116.66 62.776L116.528 61.864C116.528 61.752 116.832 61.684 117.44 61.66C118.048 61.636 119.064 61.624 120.488 61.624H121.088C121.488 61.624 121.796 61.68 122.012 61.792C122.228 61.904 122.38 62.044 122.468 62.212C122.564 62.38 122.62 62.552 122.636 62.728C122.66 62.896 122.672 63.04 122.672 63.16V67H121.688L121.22 66.76C120.884 66.816 120.48 66.872 120.008 66.928C119.536 66.976 118.996 67 118.388 67H117.788ZM118.1 65.968H120.848C121.024 65.968 121.128 65.952 121.16 65.92C121.192 65.888 121.208 65.788 121.208 65.62V64.696H118.1C117.884 64.696 117.732 64.748 117.644 64.852C117.564 64.956 117.524 65.12 117.524 65.344C117.524 65.568 117.572 65.728 117.668 65.824C117.764 65.92 117.908 65.968 118.1 65.968ZM125.52 67C125.12 67 124.812 66.948 124.596 66.844C124.38 66.74 124.224 66.608 124.128 66.448C124.04 66.288 123.984 66.12 123.96 65.944C123.944 65.768 123.936 65.608 123.936 65.464V63.16C123.936 63.04 123.944 62.896 123.96 62.728C123.984 62.552 124.04 62.38 124.128 62.212C124.224 62.044 124.38 61.904 124.596 61.792C124.82 61.68 125.128 61.624 125.52 61.624H127.188C128.188 61.624 128.896 61.652 129.312 61.708C129.736 61.756 129.948 61.808 129.948 61.864L129.708 62.776C129.484 62.76 129.2 62.744 128.856 62.728C128.512 62.704 128.14 62.688 127.74 62.68C127.348 62.664 126.964 62.656 126.588 62.656H125.976C125.592 62.656 125.4 62.816 125.4 63.136V65.488C125.392 65.808 125.584 65.968 125.976 65.968H126.588C127.02 65.968 127.44 65.964 127.848 65.956C128.264 65.94 128.644 65.924 128.988 65.908C129.332 65.884 129.608 65.864 129.816 65.848L130.296 66.628C130.296 66.876 129.508 67 127.932 67H125.52ZM131.986 60.868C131.69 60.868 131.474 60.808 131.338 60.688C131.202 60.568 131.134 60.368 131.134 60.088C131.134 59.8 131.198 59.6 131.326 59.488C131.462 59.368 131.682 59.308 131.986 59.308C132.29 59.308 132.51 59.368 132.646 59.488C132.782 59.6 132.85 59.8 132.85 60.088C132.85 60.36 132.782 60.56 132.646 60.688C132.51 60.808 132.29 60.868 131.986 60.868ZM131.254 67V61.624H132.718V67H131.254ZM135.75 67C135.214 67 134.814 66.892 134.55 66.676C134.294 66.46 134.166 66.108 134.166 65.62V63.16C134.166 63.04 134.174 62.896 134.19 62.728C134.214 62.552 134.27 62.38 134.358 62.212C134.454 62.044 134.61 61.904 134.826 61.792C135.05 61.68 135.358 61.624 135.75 61.624H139.062C139.462 61.624 139.77 61.68 139.986 61.792C140.202 61.904 140.354 62.044 140.442 62.212C140.538 62.38 140.594 62.552 140.61 62.728C140.634 62.896 140.646 63.04 140.646 63.16V65.464C140.646 65.608 140.634 65.768 140.61 65.944C140.594 66.12 140.538 66.288 140.442 66.448C140.346 66.608 140.19 66.74 139.974 66.844C139.758 66.948 139.454 67 139.062 67H135.75ZM136.206 65.968H138.606C138.998 65.968 139.194 65.808 139.194 65.488V63.136C139.194 62.816 138.998 62.656 138.606 62.656H136.206C135.822 62.656 135.63 62.816 135.63 63.136V65.488C135.63 65.808 135.822 65.968 136.206 65.968ZM141.962 67V61.624H142.946L143.426 61.864C143.762 61.8 144.166 61.744 144.638 61.696C145.11 61.648 145.65 61.624 146.258 61.624H146.858C147.258 61.624 147.566 61.68 147.782 61.792C147.998 61.904 148.15 62.044 148.238 62.212C148.334 62.38 148.39 62.552 148.406 62.728C148.43 62.896 148.442 63.04 148.442 63.16V67H146.978V63.136C146.978 62.816 146.786 62.656 146.402 62.656H143.786C143.634 62.656 143.534 62.672 143.486 62.704C143.446 62.728 143.426 62.8 143.426 62.92V67H141.962ZM151.373 67C150.765 67 150.325 66.86 150.053 66.58C149.781 66.292 149.645 65.9 149.645 65.404C149.645 64.884 149.785 64.484 150.065 64.204C150.353 63.924 150.789 63.784 151.373 63.784H151.985C152.585 63.784 153.125 63.8 153.605 63.832C154.085 63.864 154.481 63.896 154.793 63.928V63.136C154.793 63.064 154.785 62.992 154.769 62.92C154.753 62.84 154.705 62.776 154.625 62.728C154.545 62.68 154.409 62.656 154.217 62.656H153.617C152.745 62.656 152.017 62.672 151.433 62.704C150.849 62.728 150.453 62.752 150.245 62.776L150.113 61.864C150.113 61.752 150.417 61.684 151.025 61.66C151.633 61.636 152.649 61.624 154.073 61.624H154.673C155.073 61.624 155.381 61.68 155.597 61.792C155.813 61.904 155.965 62.044 156.053 62.212C156.149 62.38 156.205 62.552 156.221 62.728C156.245 62.896 156.257 63.04 156.257 63.16V67H155.273L154.805 66.76C154.469 66.816 154.065 66.872 153.593 66.928C153.121 66.976 152.581 67 151.973 67H151.373ZM151.685 65.968H154.433C154.609 65.968 154.713 65.952 154.745 65.92C154.777 65.888 154.793 65.788 154.793 65.62V64.696H151.685C151.469 64.696 151.317 64.748 151.229 64.852C151.149 64.956 151.109 65.12 151.109 65.344C151.109 65.568 151.157 65.728 151.253 65.824C151.349 65.92 151.493 65.968 151.685 65.968ZM157.642 67V61.624H158.626L158.926 61.768C159.158 61.728 159.442 61.696 159.778 61.672C160.114 61.64 160.514 61.624 160.978 61.624H161.578C161.81 61.624 162.034 61.656 162.25 61.72C162.466 61.776 162.626 61.86 162.73 61.972C162.938 61.868 163.226 61.784 163.594 61.72C163.962 61.656 164.442 61.624 165.034 61.624H165.634C166.034 61.624 166.342 61.68 166.558 61.792C166.774 61.904 166.926 62.044 167.014 62.212C167.11 62.38 167.166 62.552 167.182 62.728C167.206 62.896 167.218 63.04 167.218 63.16V67H165.754V63.136C165.754 62.816 165.562 62.656 165.178 62.656H163.498C163.37 62.656 163.282 62.672 163.234 62.704C163.186 62.736 163.162 62.808 163.162 62.92V67H161.698V63.136C161.698 62.816 161.506 62.656 161.122 62.656H159.466C159.314 62.656 159.214 62.672 159.166 62.704C159.126 62.728 159.106 62.8 159.106 62.92V67H157.642ZM170.063 67C169.663 67 169.355 66.948 169.139 66.844C168.923 66.74 168.767 66.608 168.671 66.448C168.583 66.288 168.527 66.12 168.503 65.944C168.487 65.768 168.479 65.608 168.479 65.464V63.16C168.479 63.04 168.487 62.896 168.503 62.728C168.527 62.552 168.583 62.38 168.671 62.212C168.767 62.044 168.923 61.904 169.139 61.792C169.363 61.68 169.671 61.624 170.063 61.624H172.643C173.171 61.624 173.583 61.676 173.879 61.78C174.183 61.876 174.395 62.036 174.515 62.26C174.643 62.484 174.707 62.784 174.707 63.16V64.936H172.607C171.887 64.936 171.299 64.92 170.843 64.888C170.395 64.856 170.095 64.836 169.943 64.828V65.488C169.935 65.808 170.127 65.968 170.519 65.968H171.131C171.563 65.968 171.983 65.964 172.391 65.956C172.807 65.94 173.187 65.924 173.531 65.908C173.875 65.884 174.151 65.864 174.359 65.848L174.839 66.628C174.839 66.876 174.051 67 172.475 67H170.063ZM169.943 63.904H173.243V63.136C173.243 62.976 173.223 62.864 173.183 62.8C173.151 62.736 173.047 62.696 172.871 62.68C172.695 62.664 172.395 62.656 171.971 62.656H170.519C170.135 62.656 169.943 62.816 169.943 63.136V63.904ZM176.04 67V61.624H177.024L177.504 61.864C177.84 61.8 178.244 61.744 178.716 61.696C179.188 61.648 179.728 61.624 180.336 61.624H180.936C181.336 61.624 181.644 61.68 181.86 61.792C182.076 61.904 182.228 62.044 182.316 62.212C182.412 62.38 182.468 62.552 182.484 62.728C182.508 62.896 182.52 63.04 182.52 63.16V67H181.056V63.136C181.056 62.816 180.864 62.656 180.48 62.656H177.864C177.712 62.656 177.612 62.672 177.564 62.704C177.524 62.728 177.504 62.8 177.504 62.92V67H176.04ZM185.992 67C185.384 67 184.968 66.872 184.744 66.616C184.52 66.36 184.408 65.976 184.408 65.464V62.656H183.424V61.624H183.928C184.08 61.624 184.188 61.6 184.252 61.552C184.324 61.504 184.376 61.408 184.408 61.264L184.648 59.98H185.872V61.624H188.368V62.656H185.872V65.476C185.872 65.676 185.92 65.808 186.016 65.872C186.112 65.936 186.256 65.968 186.448 65.968H188.14L188.26 66.88C188.092 66.904 187.836 66.932 187.492 66.964C187.148 66.988 186.772 67 186.364 67H185.992ZM190.793 67C190.257 67 189.857 66.892 189.593 66.676C189.337 66.46 189.209 66.108 189.209 65.62V63.16C189.209 63.04 189.217 62.896 189.233 62.728C189.257 62.552 189.313 62.38 189.401 62.212C189.497 62.044 189.653 61.904 189.869 61.792C190.093 61.68 190.401 61.624 190.793 61.624H194.105C194.505 61.624 194.813 61.68 195.029 61.792C195.245 61.904 195.397 62.044 195.485 62.212C195.581 62.38 195.637 62.552 195.653 62.728C195.677 62.896 195.689 63.04 195.689 63.16V65.464C195.689 65.608 195.677 65.768 195.653 65.944C195.637 66.12 195.581 66.288 195.485 66.448C195.389 66.608 195.233 66.74 195.017 66.844C194.801 66.948 194.497 67 194.105 67H190.793ZM191.249 65.968H193.649C194.041 65.968 194.237 65.808 194.237 65.488V63.136C194.237 62.816 194.041 62.656 193.649 62.656H191.249C190.865 62.656 190.673 62.816 190.673 63.136V65.488C190.673 65.808 190.865 65.968 191.249 65.968Z" fill="#1A5B8D"/>
<line x1="66.9487" y1="41.8974" x2="53.8974" y2="81.0513" stroke="#1A5B8D" stroke-width="3" stroke-linecap="round"/>
</svg>
