<svg width="280" height="124" viewBox="0 0 280 124" fill="none" xmlns="http://www.w3.org/2000/svg">
<circle cx="37" cy="31" r="31" fill="white"/>
<path d="M31.3372 107.83C33.2128 113.185 40.7872 113.185 42.6628 107.83L66.2473 40.4831C67.6135 36.5819 64.718 32.5 60.5845 32.5H13.4155C9.28197 32.5 6.38651 36.5819 7.75271 40.4831L31.3372 107.83Z" fill="white"/>
<circle cx="37" cy="31" r="22" fill="#1A5B8D"/>
<rect x="56" y="42" width="184" height="30" rx="13" fill="white"/>
<rect x="25" y="20" width="215" height="22" fill="#1A5B8D"/>
<path d="M28.24 39V22.536H45.656V25.224H31.936V29.088H42.408V31.86H31.936V36.312H45.768L46.888 38.692C46.888 38.7667 46.636 38.8413 46.132 38.916C45.628 38.972 44.76 39 43.528 39H28.24ZM49.6775 32.84V29.592H58.6375V32.84H49.6775ZM66.2666 39C64.9973 39 64.064 38.944 63.4666 38.832C62.8693 38.72 62.5706 38.5893 62.5706 38.44L63.6906 36.004C64.12 36.0787 65.184 36.1533 66.8826 36.228C68.6 36.284 70.952 36.312 73.9386 36.312H74.4706C75.2733 36.312 75.8426 36.172 76.1786 35.892C76.5146 35.5933 76.6826 35.0987 76.6826 34.408V33.848C76.6826 33.1947 76.5426 32.728 76.2626 32.448C76.0013 32.168 75.404 32.028 74.4706 32.028H67.9746C66.0893 32.028 64.7173 31.6827 63.8586 30.992C63 30.2827 62.5706 29.1347 62.5706 27.548V27.1C62.5706 26.2787 62.72 25.5227 63.0186 24.832C63.336 24.1413 63.868 23.5907 64.6146 23.18C65.3613 22.7507 66.388 22.536 67.6946 22.536H75.3106C76.58 22.536 77.6066 22.6013 78.3906 22.732C79.1746 22.8627 79.5666 23.0027 79.5666 23.152L79.0066 25.504C78.5213 25.448 77.42 25.392 75.7026 25.336C73.9853 25.2613 71.68 25.224 68.7866 25.224L68.4786 25.196C67.62 25.196 67.0413 25.3733 66.7426 25.728C66.444 26.064 66.2853 26.4933 66.2666 27.016V27.492C66.2666 28.108 66.4346 28.5747 66.7706 28.892C67.1253 29.1907 67.704 29.34 68.5066 29.34H74.7226C75.9173 29.34 76.9346 29.4613 77.7746 29.704C78.6146 29.9467 79.2586 30.3947 79.7066 31.048C80.1546 31.6827 80.3786 32.6253 80.3786 33.876V34.324C80.3786 35.724 80.0146 36.8533 79.2866 37.712C78.5773 38.5707 77.336 39 75.5626 39H66.2666ZM89.9227 39L89.8947 25.196H82.6147V22.508H100.927V25.196H93.6187V39H89.9227ZM98.1328 39L106.337 22.536H111.853L120.029 39H115.717L114.065 35.444H104.041L102.221 39H98.1328ZM105.049 32.7H113.029L109.193 25.056H108.913L105.049 32.7ZM126.572 39C125.247 39 124.211 38.8133 123.464 38.44C122.718 38.0667 122.195 37.5067 121.896 36.76C121.598 36.0133 121.448 35.0893 121.448 33.988V27.744C121.448 25.952 121.85 24.636 122.652 23.796C123.455 22.9373 124.762 22.508 126.572 22.508H135C136.288 22.508 137.268 22.5827 137.94 22.732C138.631 22.8627 138.976 23.0027 138.976 23.152L138.416 25.476C138.099 25.42 137.156 25.364 135.588 25.308C134.039 25.2333 131.78 25.196 128.812 25.196H127.384C125.891 25.196 125.144 25.8587 125.144 27.184V34.324C125.144 34.9587 125.303 35.4533 125.62 35.808C125.956 36.144 126.544 36.312 127.384 36.312H128.532C131.631 36.312 134.03 36.284 135.728 36.228C137.446 36.1533 138.51 36.0787 138.92 36.004L140.068 37.852C140.068 37.9453 139.91 38.0853 139.592 38.272C139.294 38.4587 138.734 38.6267 137.912 38.776C137.091 38.9253 135.906 39 134.356 39H126.572ZM142.865 39V22.536H146.561V39H142.865ZM155.885 39C154.578 39 153.551 38.8133 152.805 38.44C152.058 38.0667 151.526 37.5067 151.209 36.76C150.91 36.0133 150.761 35.0893 150.761 33.988V27.52C150.761 26.4373 150.91 25.532 151.209 24.804C151.507 24.0573 152.03 23.4973 152.777 23.124C153.523 22.732 154.559 22.536 155.885 22.536H164.061C165.367 22.536 166.385 22.732 167.113 23.124C167.859 23.4973 168.382 24.0573 168.681 24.804C168.998 25.532 169.157 26.4373 169.157 27.52V33.988C169.157 35.6307 168.793 36.8813 168.065 37.74C167.337 38.58 166.002 39 164.061 39H155.885ZM156.697 36.312H163.277C163.967 36.312 164.499 36.1347 164.873 35.78C165.265 35.4253 165.461 34.94 165.461 34.324V27.184C165.461 26.6427 165.265 26.1853 164.873 25.812C164.481 25.42 163.949 25.224 163.277 25.224H156.697C156.025 25.224 155.483 25.4013 155.073 25.756C154.662 26.1107 154.457 26.5867 154.457 27.184V34.324C154.457 34.9587 154.653 35.4533 155.045 35.808C155.455 36.144 156.006 36.312 156.697 36.312ZM173.633 39V24.776L173.353 22.536H177.385L186.905 32.504L187.997 34.016H188.305V22.536H192.001V39H188.445L178.701 28.864L177.609 27.548H177.329V39H173.633ZM194.246 39L202.45 22.536H207.966L216.142 39H211.83L210.178 35.444H200.154L198.334 39H194.246ZM201.162 32.7H209.142L205.306 25.056H205.026L201.162 32.7ZM236.28 39.28C235.534 39.28 234.796 39.168 234.068 38.944C233.359 38.7013 232.547 38.1227 231.632 37.208L229.616 35.192C228.795 34.352 227.89 33.736 226.9 33.344C225.93 32.952 224.707 32.756 223.232 32.756H222.364V39H218.668V24.776L218.388 22.508H230.792C231.987 22.508 232.92 22.6667 233.592 22.984C234.283 23.3013 234.787 23.7213 235.104 24.244C235.44 24.748 235.655 25.2893 235.748 25.868C235.842 26.4467 235.888 26.9973 235.888 27.52V28.052C235.888 28.4627 235.832 28.92 235.72 29.424C235.608 29.928 235.394 30.4227 235.076 30.908C234.759 31.3933 234.302 31.804 233.704 32.14C233.126 32.476 232.36 32.672 231.408 32.728C231.651 32.8587 231.959 33.064 232.332 33.344C232.706 33.6053 233.088 33.8947 233.48 34.212C233.891 34.5293 234.264 34.8187 234.6 35.08C234.936 35.3413 235.198 35.528 235.384 35.64C236.056 36.032 236.654 36.3027 237.176 36.452C237.699 36.6013 238.128 36.6853 238.464 36.704C238.8 36.7227 238.996 36.732 239.052 36.732L238.492 39C238.324 39.056 238.044 39.112 237.652 39.168C237.26 39.2427 236.803 39.28 236.28 39.28ZM226.564 30.208C227.274 30.208 227.908 30.1987 228.468 30.18C229.028 30.1427 229.532 30.1053 229.98 30.068C230.802 29.9747 231.371 29.7507 231.688 29.396C232.024 29.0227 232.192 28.5467 232.192 27.968V27.324C232.192 26.7267 232.034 26.2227 231.716 25.812C231.399 25.4013 230.83 25.196 230.008 25.196H222.364V30.068C223.186 30.124 223.942 30.1613 224.632 30.18C225.323 30.1987 225.967 30.208 226.564 30.208Z" fill="white"/>
<path d="M28.24 39H27.24V40H28.24V39ZM28.24 22.536V21.536H27.24V22.536H28.24ZM45.656 22.536H46.656V21.536H45.656V22.536ZM45.656 25.224V26.224H46.656V25.224H45.656ZM31.936 25.224V24.224H30.936V25.224H31.936ZM31.936 29.088H30.936V30.088H31.936V29.088ZM42.408 29.088H43.408V28.088H42.408V29.088ZM42.408 31.86V32.86H43.408V31.86H42.408ZM31.936 31.86V30.86H30.936V31.86H31.936ZM31.936 36.312H30.936V37.312H31.936V36.312ZM45.768 36.312L46.6728 35.8862L46.4026 35.312H45.768V36.312ZM46.888 38.692H47.888V38.4685L47.7928 38.2662L46.888 38.692ZM46.132 38.916L46.2424 39.9099L46.2605 39.9079L46.2785 39.9052L46.132 38.916ZM29.24 39V22.536H27.24V39H29.24ZM28.24 23.536H45.656V21.536H28.24V23.536ZM44.656 22.536V25.224H46.656V22.536H44.656ZM45.656 24.224H31.936V26.224H45.656V24.224ZM30.936 25.224V29.088H32.936V25.224H30.936ZM31.936 30.088H42.408V28.088H31.936V30.088ZM41.408 29.088V31.86H43.408V29.088H41.408ZM42.408 30.86H31.936V32.86H42.408V30.86ZM30.936 31.86V36.312H32.936V31.86H30.936ZM31.936 37.312H45.768V35.312H31.936V37.312ZM44.8632 36.7378L45.9832 39.1178L47.7928 38.2662L46.6728 35.8862L44.8632 36.7378ZM45.888 38.692C45.888 38.4007 46.0152 38.1897 46.1119 38.0751C46.2027 37.9675 46.2936 37.9098 46.3309 37.8877C46.4053 37.8436 46.4508 37.8346 46.4149 37.8452C46.3583 37.862 46.2255 37.8912 45.9855 37.9268L46.2785 39.9052C46.5425 39.8661 46.7877 39.8207 46.9831 39.7628C47.0732 39.7361 47.2132 39.6897 47.3506 39.6083C47.4071 39.5748 47.888 39.2981 47.888 38.692H45.888ZM46.0216 37.9221C45.5785 37.9713 44.7603 38 43.528 38V40C44.7597 40 45.6775 39.9727 46.2424 39.9099L46.0216 37.9221ZM43.528 38H28.24V40H43.528V38ZM49.6775 32.84H48.6775V33.84H49.6775V32.84ZM49.6775 29.592V28.592H48.6775V29.592H49.6775ZM58.6375 29.592H59.6375V28.592H58.6375V29.592ZM58.6375 32.84V33.84H59.6375V32.84H58.6375ZM50.6775 32.84V29.592H48.6775V32.84H50.6775ZM49.6775 30.592H58.6375V28.592H49.6775V30.592ZM57.6375 29.592V32.84H59.6375V29.592H57.6375ZM58.6375 31.84H49.6775V33.84H58.6375V31.84ZM63.4666 38.832L63.6509 37.8491L63.4666 38.832ZM62.5706 38.44L61.6621 38.0223L61.5706 38.2211V38.44H62.5706ZM63.6906 36.004L63.862 35.0188L63.1036 34.8869L62.7821 35.5863L63.6906 36.004ZM66.8826 36.228L66.8387 37.2271L66.85 37.2275L66.8826 36.228ZM76.1786 35.892L76.8188 36.6602L76.8311 36.65L76.843 36.6394L76.1786 35.892ZM76.2626 32.448L75.5316 33.1303L75.5433 33.1429L75.5555 33.1551L76.2626 32.448ZM63.8586 30.992L63.2217 31.763L63.2319 31.7712L63.8586 30.992ZM63.0186 24.832L62.1099 24.4145L62.1052 24.4247L62.1008 24.4351L63.0186 24.832ZM64.6146 23.18L65.0965 24.0562L65.1049 24.0516L65.1131 24.0469L64.6146 23.18ZM78.3906 22.732L78.555 21.7456V21.7456L78.3906 22.732ZM79.5666 23.152L80.5394 23.3836L80.5666 23.2694V23.152H79.5666ZM79.0066 25.504L78.892 26.4974L79.7738 26.5992L79.9794 25.7356L79.0066 25.504ZM75.7026 25.336L75.6592 26.3351L75.67 26.3355L75.7026 25.336ZM68.7866 25.224L68.6961 26.2199L68.7413 26.224H68.7866V25.224ZM68.4786 25.196L68.5692 24.2001L68.524 24.196H68.4786V25.196ZM66.7426 25.728L67.49 26.3924L67.4989 26.3824L67.5075 26.3721L66.7426 25.728ZM66.2666 27.016L65.2673 26.9803L65.2666 26.9981V27.016H66.2666ZM66.7706 28.892L66.084 29.619L66.1047 29.6386L66.1265 29.6569L66.7706 28.892ZM77.7746 29.704L78.0522 28.7433L77.7746 29.704ZM79.7066 31.048L78.8818 31.6136L78.8897 31.6247L79.7066 31.048ZM79.2866 37.712L78.5238 37.0653L78.5157 37.0751L79.2866 37.712ZM66.2666 38C65.0076 38 64.152 37.9431 63.6509 37.8491L63.2823 39.8149C63.9759 39.9449 64.987 40 66.2666 40V38ZM63.6509 37.8491C63.3745 37.7973 63.2395 37.7531 63.1954 37.7338C63.1708 37.7231 63.2305 37.7439 63.3106 37.819C63.3976 37.9006 63.5706 38.1104 63.5706 38.44H61.5706C61.5706 38.8443 61.7809 39.1264 61.9427 39.278C62.0974 39.4231 62.2691 39.5116 62.3938 39.5662C62.6485 39.6776 62.9614 39.7547 63.2823 39.8149L63.6509 37.8491ZM63.4792 38.8577L64.5992 36.4217L62.7821 35.5863L61.6621 38.0223L63.4792 38.8577ZM63.5193 36.9892C64.026 37.0773 65.163 37.1534 66.8387 37.227L66.9265 35.229C65.2049 35.1533 64.214 35.08 63.862 35.0188L63.5193 36.9892ZM66.85 37.2275C68.5833 37.284 70.9477 37.312 73.9386 37.312V35.312C70.9562 35.312 68.6166 35.284 66.9152 35.2285L66.85 37.2275ZM73.9386 37.312H74.4706V35.312H73.9386V37.312ZM74.4706 37.312C75.3348 37.312 76.2045 37.1721 76.8188 36.6602L75.5384 35.1238C75.4807 35.1719 75.2118 35.312 74.4706 35.312V37.312ZM76.843 36.6394C77.4849 36.0689 77.6826 35.2316 77.6826 34.408H75.6826C75.6826 34.9658 75.5444 35.1178 75.5143 35.1446L76.843 36.6394ZM77.6826 34.408V33.848H75.6826V34.408H77.6826ZM77.6826 33.848C77.6826 33.0932 77.5278 32.299 76.9697 31.7409L75.5555 33.1551C75.5575 33.157 75.6826 33.2962 75.6826 33.848H77.6826ZM76.9937 31.7657C76.669 31.4178 76.2322 31.2497 75.8468 31.1594C75.4454 31.0653 74.9787 31.028 74.4706 31.028V33.028C74.8959 33.028 75.1946 33.0607 75.3904 33.1066C75.6024 33.1563 75.5949 33.1982 75.5316 33.1303L76.9937 31.7657ZM74.4706 31.028H67.9746V33.028H74.4706V31.028ZM67.9746 31.028C66.1702 31.028 65.0783 30.6897 64.4854 30.2128L63.2319 31.7712C64.3562 32.6756 66.0084 33.028 67.9746 33.028V31.028ZM64.4955 30.221C63.952 29.7721 63.5706 28.9681 63.5706 27.548H61.5706C61.5706 29.3012 62.0479 30.7932 63.2217 31.763L64.4955 30.221ZM63.5706 27.548V27.1H61.5706V27.548H63.5706ZM63.5706 27.1C63.5706 26.4026 63.6968 25.7832 63.9365 25.2289L62.1008 24.4351C61.7431 25.2621 61.5706 26.1547 61.5706 27.1H63.5706ZM63.9273 25.2495C64.1445 24.7768 64.5138 24.3767 65.0965 24.0562L64.1327 22.3038C63.2222 22.8046 62.5275 23.5058 62.1099 24.4145L63.9273 25.2495ZM65.1131 24.0469C65.6493 23.7386 66.4796 23.536 67.6946 23.536V21.536C66.2964 21.536 65.0733 21.7627 64.1162 22.3131L65.1131 24.0469ZM67.6946 23.536H75.3106V21.536H67.6946V23.536ZM75.3106 23.536C76.5533 23.536 77.5188 23.6005 78.2262 23.7184L78.555 21.7456C77.6945 21.6022 76.6067 21.536 75.3106 21.536V23.536ZM78.2262 23.7184C78.6022 23.7811 78.8258 23.8373 78.9363 23.8767C78.9975 23.8986 78.9653 23.895 78.8993 23.8463C78.8633 23.8198 78.7875 23.7582 78.7162 23.6511C78.6394 23.5359 78.5666 23.3646 78.5666 23.152H80.5666C80.5666 22.6391 80.2296 22.3425 80.087 22.2372C79.923 22.1161 79.7437 22.0414 79.609 21.9933C79.3274 21.8927 78.963 21.8136 78.555 21.7456L78.2262 23.7184ZM78.5938 22.9204L78.0338 25.2724L79.9794 25.7356L80.5394 23.3836L78.5938 22.9204ZM79.1213 24.5106C78.5867 24.4489 77.4409 24.3921 75.7352 24.3365L75.67 26.3355C77.3991 26.3918 78.4558 26.4471 78.892 26.4974L79.1213 24.5106ZM75.7461 24.3369C74.0078 24.2614 71.6861 24.224 68.7866 24.224V26.224C71.6738 26.224 73.9628 26.2613 75.6592 26.3351L75.7461 24.3369ZM68.8772 24.2281L68.5692 24.2001L68.3881 26.1919L68.6961 26.2199L68.8772 24.2281ZM68.4786 24.196C67.5575 24.196 66.5774 24.3717 65.9777 25.0839L67.5075 26.3721C67.5002 26.3808 67.533 26.3343 67.6936 26.2851C67.8575 26.2349 68.1106 26.196 68.4786 26.196V24.196ZM65.9952 25.0636C65.5174 25.6012 65.2928 26.2651 65.2673 26.9803L67.266 27.0517C67.2778 26.7216 67.3705 26.5268 67.49 26.3924L65.9952 25.0636ZM65.2666 27.016V27.492H67.2666V27.016H65.2666ZM65.2666 27.492C65.2666 28.2876 65.4878 29.0559 66.084 29.619L67.4572 28.165C67.3815 28.0934 67.2666 27.9284 67.2666 27.492H65.2666ZM66.1265 29.6569C66.7529 30.1844 67.6247 30.34 68.5066 30.34V28.34C67.7832 28.34 67.4977 28.1969 67.4148 28.1271L66.1265 29.6569ZM68.5066 30.34H74.7226V28.34H68.5066V30.34ZM74.7226 30.34C75.8552 30.34 76.7734 30.4557 77.4971 30.6647L78.0522 28.7433C77.0958 28.467 75.9794 28.34 74.7226 28.34V30.34ZM77.4971 30.6647C78.139 30.8502 78.5788 31.1715 78.8819 31.6135L80.5314 30.4825C79.9385 29.6178 79.0902 29.0432 78.0522 28.7433L77.4971 30.6647ZM78.8897 31.6247C79.1659 32.016 79.3786 32.7163 79.3786 33.876H81.3786C81.3786 32.5344 81.1434 31.3494 80.5236 30.4713L78.8897 31.6247ZM79.3786 33.876V34.324H81.3786V33.876H79.3786ZM79.3786 34.324C79.3786 35.5467 79.0641 36.4281 78.5239 37.0653L80.0494 38.3587C80.9651 37.2786 81.3786 35.9013 81.3786 34.324H79.3786ZM78.5157 37.0751C78.0853 37.5961 77.2133 38 75.5626 38V40C77.4586 40 79.0693 39.5452 80.0576 38.3489L78.5157 37.0751ZM75.5626 38H66.2666V40H75.5626V38ZM89.9227 39L88.9227 39.002L88.9247 40H89.9227V39ZM89.8947 25.196L90.8947 25.194L90.8927 24.196H89.8947V25.196ZM82.6147 25.196H81.6147V26.196H82.6147V25.196ZM82.6147 22.508V21.508H81.6147V22.508H82.6147ZM100.927 22.508H101.927V21.508H100.927V22.508ZM100.927 25.196V26.196H101.927V25.196H100.927ZM93.6187 25.196V24.196H92.6187V25.196H93.6187ZM93.6187 39V40H94.6187V39H93.6187ZM90.9227 38.998L90.8947 25.194L88.8947 25.198L88.9227 39.002L90.9227 38.998ZM89.8947 24.196H82.6147V26.196H89.8947V24.196ZM83.6147 25.196V22.508H81.6147V25.196H83.6147ZM82.6147 23.508H100.927V21.508H82.6147V23.508ZM99.9267 22.508V25.196H101.927V22.508H99.9267ZM100.927 24.196H93.6187V26.196H100.927V24.196ZM92.6187 25.196V39H94.6187V25.196H92.6187ZM93.6187 38H89.9227V40H93.6187V38ZM98.1328 39L97.2378 38.554L96.5172 40H98.1328V39ZM106.337 22.536V21.536H105.718L105.442 22.09L106.337 22.536ZM111.853 22.536L112.748 22.0912L112.473 21.536H111.853V22.536ZM120.029 39V40H121.642L120.924 38.5552L120.029 39ZM115.717 39L114.81 39.4213L115.079 40H115.717V39ZM114.065 35.444L114.972 35.0227L114.703 34.444H114.065V35.444ZM104.041 35.444V34.444H103.429L103.151 34.9884L104.041 35.444ZM102.221 39V40H102.832L103.111 39.4556L102.221 39ZM105.049 32.7L104.156 32.2489L103.423 33.7H105.049V32.7ZM113.029 32.7V33.7H114.649L113.923 32.2515L113.029 32.7ZM109.193 25.056L110.087 24.6075L109.81 24.056H109.193V25.056ZM108.913 25.056V24.056H108.298L108.02 24.6049L108.913 25.056ZM99.0278 39.446L107.232 22.982L105.442 22.09L97.2378 38.554L99.0278 39.446ZM106.337 23.536H111.853V21.536H106.337V23.536ZM110.957 22.9808L119.133 39.4448L120.924 38.5552L112.748 22.0912L110.957 22.9808ZM120.029 38H115.717V40H120.029V38ZM116.624 38.5787L114.972 35.0227L113.158 35.8653L114.81 39.4213L116.624 38.5787ZM114.065 34.444H104.041V36.444H114.065V34.444ZM103.151 34.9884L101.331 38.5444L103.111 39.4556L104.931 35.8996L103.151 34.9884ZM102.221 38H98.1328V40H102.221V38ZM105.049 33.7H113.029V31.7H105.049V33.7ZM113.923 32.2515L110.087 24.6075L108.299 25.5045L112.135 33.1485L113.923 32.2515ZM109.193 24.056H108.913V26.056H109.193V24.056ZM108.02 24.6049L104.156 32.2489L105.941 33.1511L109.805 25.5071L108.02 24.6049ZM123.464 38.44L123.017 39.3344L123.464 38.44ZM121.896 36.76L122.825 36.3886L121.896 36.76ZM122.652 23.796L123.375 24.4869L123.383 24.4789L122.652 23.796ZM137.94 22.732L137.723 23.7082L137.739 23.7116L137.754 23.7146L137.94 22.732ZM138.976 23.152L139.948 23.3863L139.976 23.2708V23.152H138.976ZM138.416 25.476L138.243 26.4608L139.168 26.6242L139.388 25.7103L138.416 25.476ZM135.588 25.308L135.54 26.3069L135.553 26.3074L135.588 25.308ZM125.62 35.808L124.875 36.4748L124.894 36.4955L124.913 36.5151L125.62 35.808ZM135.728 36.228L135.761 37.2275L135.772 37.2271L135.728 36.228ZM138.92 36.004L139.77 35.4763L139.411 34.8984L138.741 35.0201L138.92 36.004ZM140.068 37.852H141.068V37.5667L140.918 37.3243L140.068 37.852ZM139.592 38.272L139.085 37.4101L139.074 37.4169L139.062 37.424L139.592 38.272ZM137.912 38.776L138.091 39.7599L137.912 38.776ZM126.572 38C125.321 38 124.461 37.8204 123.911 37.5456L123.017 39.3344C123.961 39.8063 125.173 40 126.572 40V38ZM123.911 37.5456C123.375 37.2772 123.029 36.8986 122.825 36.3886L120.968 37.1314C121.361 38.1148 122.06 38.8561 123.017 39.3344L123.911 37.5456ZM122.825 36.3886C122.587 35.795 122.448 35.0061 122.448 33.988H120.448C120.448 35.1726 120.608 36.2317 120.968 37.1314L122.825 36.3886ZM122.448 33.988V27.744H120.448V33.988H122.448ZM122.448 27.744C122.448 26.0739 122.826 25.0617 123.375 24.4869L121.929 23.1051C120.873 24.2103 120.448 25.8301 120.448 27.744H122.448ZM123.383 24.4789C123.915 23.9098 124.891 23.508 126.572 23.508V21.508C124.633 21.508 122.995 21.9649 121.922 23.1131L123.383 24.4789ZM126.572 23.508H135V21.508H126.572V23.508ZM135 23.508C136.267 23.508 137.16 23.5829 137.723 23.7082L138.157 21.7558C137.377 21.5824 136.31 21.508 135 21.508V23.508ZM137.754 23.7146C138.081 23.7764 138.262 23.8296 138.342 23.8617C138.386 23.8796 138.341 23.8685 138.269 23.8083C138.203 23.7524 137.976 23.5351 137.976 23.152H139.976C139.976 22.6942 139.707 22.4034 139.554 22.2752C139.395 22.1426 139.222 22.0604 139.093 22.0083C138.827 21.9004 138.49 21.8183 138.126 21.7494L137.754 23.7146ZM138.004 22.9177L137.444 25.2417L139.388 25.7103L139.948 23.3863L138.004 22.9177ZM138.59 24.4912C138.187 24.42 137.157 24.3634 135.624 24.3086L135.553 26.3074C137.156 26.3646 138.011 26.42 138.243 26.4608L138.59 24.4912ZM135.636 24.3092C134.063 24.2333 131.785 24.196 128.812 24.196V26.196C131.776 26.196 134.015 26.2334 135.54 26.3068L135.636 24.3092ZM128.812 24.196H127.384V26.196H128.812V24.196ZM127.384 24.196C126.511 24.196 125.669 24.3872 125.04 24.9451C124.389 25.5231 124.144 26.3342 124.144 27.184H126.144C126.144 26.7085 126.273 26.5255 126.368 26.4409C126.486 26.3361 126.764 26.196 127.384 26.196V24.196ZM124.144 27.184V34.324H126.144V27.184H124.144ZM124.144 34.324C124.144 35.1213 124.345 35.8829 124.875 36.4748L126.366 35.1412C126.26 35.0238 126.144 34.796 126.144 34.324H124.144ZM124.913 36.5151C125.537 37.139 126.467 37.312 127.384 37.312V35.312C126.622 35.312 126.375 35.149 126.327 35.1009L124.913 36.5151ZM127.384 37.312H128.532V35.312H127.384V37.312ZM128.532 37.312C131.635 37.312 134.046 37.284 135.761 37.2275L135.695 35.2285C134.013 35.284 131.627 35.312 128.532 35.312V37.312ZM135.772 37.2271C137.462 37.1536 138.606 37.0776 139.099 36.9879L138.741 35.0201C138.414 35.0797 137.429 35.1531 135.685 35.2289L135.772 37.2271ZM138.071 36.5317L139.219 38.3797L140.918 37.3243L139.77 35.4763L138.071 36.5317ZM139.068 37.852C139.068 37.5964 139.173 37.4256 139.212 37.3684C139.236 37.3331 139.257 37.3092 139.268 37.2967C139.28 37.2839 139.287 37.2774 139.288 37.2772C139.288 37.2767 139.284 37.2801 139.275 37.2873C139.266 37.2944 139.252 37.3041 139.235 37.3162C139.199 37.3409 139.15 37.3722 139.085 37.4101L140.099 39.1339C140.279 39.0282 140.461 38.9089 140.611 38.7768C140.685 38.7111 140.781 38.6166 140.865 38.4931C140.944 38.3776 141.068 38.1543 141.068 37.852H139.068ZM139.062 37.424C138.942 37.499 138.555 37.6428 137.733 37.7921L138.091 39.7599C138.912 39.6106 139.645 39.4183 140.122 39.12L139.062 37.424ZM137.733 37.7921C137.001 37.9252 135.887 38 134.356 38V40C135.924 40 137.181 39.9254 138.091 39.7599L137.733 37.7921ZM134.356 38H126.572V40H134.356V38ZM142.865 39H141.865V40H142.865V39ZM142.865 22.536V21.536H141.865V22.536H142.865ZM146.561 22.536H147.561V21.536H146.561V22.536ZM146.561 39V40H147.561V39H146.561ZM143.865 39V22.536H141.865V39H143.865ZM142.865 23.536H146.561V21.536H142.865V23.536ZM145.561 22.536V39H147.561V22.536H145.561ZM146.561 38H142.865V40H146.561V38ZM152.805 38.44L152.358 39.3344L152.805 38.44ZM151.209 36.76L150.28 37.1314L150.284 37.1413L150.288 37.1511L151.209 36.76ZM151.209 24.804L152.134 25.1836L152.137 25.1754L151.209 24.804ZM152.777 23.124L153.224 24.0184L153.233 24.014L153.242 24.0094L152.777 23.124ZM167.113 23.124L166.639 24.0045L166.652 24.0117L166.666 24.0184L167.113 23.124ZM168.681 24.804L167.752 25.1754L167.758 25.1896L167.764 25.2036L168.681 24.804ZM168.065 37.74L168.821 38.395L168.828 38.3867L168.065 37.74ZM164.873 35.78L164.202 35.0385L164.193 35.0466L164.184 35.055L164.873 35.78ZM164.873 25.812L164.166 26.5191L164.174 26.5277L164.183 26.5361L164.873 25.812ZM155.045 35.808L154.374 36.5495L154.392 36.5662L154.412 36.582L155.045 35.808ZM155.885 38C154.654 38 153.803 37.8212 153.252 37.5456L152.358 39.3344C153.3 39.8055 154.502 40 155.885 40V38ZM153.252 37.5456C152.711 37.2751 152.351 36.8901 152.129 36.3689L150.288 37.1511C150.702 38.1233 151.405 38.8582 152.358 39.3344L153.252 37.5456ZM152.137 36.3886C151.9 35.795 151.761 35.0061 151.761 33.988H149.761C149.761 35.1726 149.92 36.2317 150.28 37.1314L152.137 36.3886ZM151.761 33.988V27.52H149.761V33.988H151.761ZM151.761 27.52C151.761 26.5218 151.9 25.755 152.134 25.1836L150.284 24.4244C149.921 25.309 149.761 26.3529 149.761 27.52H151.761ZM152.137 25.1754C152.341 24.6654 152.687 24.2868 153.224 24.0184L152.33 22.2296C151.373 22.7079 150.674 23.4492 150.28 24.4326L152.137 25.1754ZM153.242 24.0094C153.786 23.7237 154.638 23.536 155.885 23.536V21.536C154.481 21.536 153.261 21.7403 152.312 22.2386L153.242 24.0094ZM155.885 23.536H164.061V21.536H155.885V23.536ZM164.061 23.536C165.289 23.536 166.117 23.7237 166.639 24.0045L167.587 22.2435C166.652 21.7403 165.446 21.536 164.061 21.536V23.536ZM166.666 24.0184C167.202 24.2868 167.548 24.6654 167.752 25.1754L169.609 24.4326C169.216 23.4492 168.517 22.7079 167.56 22.2296L166.666 24.0184ZM167.764 25.2036C168.01 25.7686 168.157 26.5279 168.157 27.52H170.157C170.157 26.3468 169.986 25.2954 169.597 24.4044L167.764 25.2036ZM168.157 27.52V33.988H170.157V27.52H168.157ZM168.157 33.988C168.157 35.4999 167.82 36.4824 167.302 37.0933L168.828 38.3867C169.766 37.2802 170.157 35.7614 170.157 33.988H168.157ZM167.309 37.0851C166.873 37.588 165.917 38 164.061 38V40C166.087 40 167.8 39.572 168.82 38.3949L167.309 37.0851ZM164.061 38H155.885V40H164.061V38ZM156.697 37.312H163.277V35.312H156.697V37.312ZM163.277 37.312C164.134 37.312 164.946 37.0895 165.562 36.505L164.184 35.055C164.053 35.1798 163.801 35.312 163.277 35.312V37.312ZM165.544 36.5215C166.18 35.9454 166.461 35.1713 166.461 34.324H164.461C164.461 34.7087 164.349 34.9052 164.202 35.0385L165.544 36.5215ZM166.461 34.324V27.184H164.461V34.324H166.461ZM166.461 27.184C166.461 26.369 166.153 25.6499 165.562 25.0879L164.183 26.5361C164.377 26.7207 164.461 26.9163 164.461 27.184H166.461ZM165.58 25.1049C164.962 24.4868 164.154 24.224 163.277 24.224V26.224C163.744 26.224 164 26.3532 164.166 26.5191L165.58 25.1049ZM163.277 24.224H156.697V26.224H163.277V24.224ZM156.697 24.224C155.844 24.224 155.052 24.4528 154.419 24.9992L155.726 26.5128C155.915 26.3499 156.205 26.224 156.697 26.224V24.224ZM154.419 24.9992C153.765 25.5643 153.457 26.329 153.457 27.184H155.457C155.457 26.8443 155.559 26.657 155.726 26.5128L154.419 24.9992ZM153.457 27.184V34.324H155.457V27.184H153.457ZM153.457 34.324C153.457 35.1796 153.731 35.9675 154.374 36.5495L155.716 35.0665C155.575 34.9391 155.457 34.7377 155.457 34.324H153.457ZM154.412 36.582C155.049 37.1033 155.846 37.312 156.697 37.312V35.312C156.166 35.312 155.862 35.1847 155.678 35.034L154.412 36.582ZM173.633 39H172.633V40H173.633V39ZM173.633 24.776H174.633V24.7137L174.626 24.652L173.633 24.776ZM173.353 22.536V21.536H172.221L172.361 22.66L173.353 22.536ZM177.385 22.536L178.108 21.8453L177.813 21.536H177.385V22.536ZM186.905 32.504L187.716 31.9185L187.676 31.8629L187.628 31.8133L186.905 32.504ZM187.997 34.016L187.187 34.6015L187.486 35.016H187.997V34.016ZM188.305 34.016V35.016H189.305V34.016H188.305ZM188.305 22.536V21.536H187.305V22.536H188.305ZM192.001 22.536H193.001V21.536H192.001V22.536ZM192.001 39V40H193.001V39H192.001ZM188.445 39L187.724 39.693L188.019 40H188.445V39ZM178.701 28.864L177.932 29.5026L177.955 29.5307L177.98 29.557L178.701 28.864ZM177.609 27.548L178.379 26.9094L178.079 26.548H177.609V27.548ZM177.329 27.548V26.548H176.329V27.548H177.329ZM177.329 39V40H178.329V39H177.329ZM174.633 39V24.776H172.633V39H174.633ZM174.626 24.652L174.346 22.412L172.361 22.66L172.641 24.9L174.626 24.652ZM173.353 23.536H177.385V21.536H173.353V23.536ZM176.662 23.2267L186.182 33.1947L187.628 31.8133L178.108 21.8453L176.662 23.2267ZM186.095 33.0895L187.187 34.6015L188.808 33.4305L187.716 31.9185L186.095 33.0895ZM187.997 35.016H188.305V33.016H187.997V35.016ZM189.305 34.016V22.536H187.305V34.016H189.305ZM188.305 23.536H192.001V21.536H188.305V23.536ZM191.001 22.536V39H193.001V22.536H191.001ZM192.001 38H188.445V40H192.001V38ZM189.166 38.307L179.422 28.171L177.98 29.557L187.724 39.693L189.166 38.307ZM179.471 28.2254L178.379 26.9094L176.84 28.1866L177.932 29.5026L179.471 28.2254ZM177.609 26.548H177.329V28.548H177.609V26.548ZM176.329 27.548V39H178.329V27.548H176.329ZM177.329 38H173.633V40H177.329V38ZM194.246 39L193.351 38.554L192.631 40H194.246V39ZM202.45 22.536V21.536H201.831L201.555 22.09L202.45 22.536ZM207.966 22.536L208.862 22.0912L208.586 21.536H207.966V22.536ZM216.142 39V40H217.755L217.038 38.5552L216.142 39ZM211.83 39L210.923 39.4213L211.192 40H211.83V39ZM210.178 35.444L211.085 35.0227L210.816 34.444H210.178V35.444ZM200.154 35.444V34.444H199.543L199.264 34.9884L200.154 35.444ZM198.334 39V40H198.946L199.224 39.4556L198.334 39ZM201.162 32.7L200.27 32.2489L199.536 33.7H201.162V32.7ZM209.142 32.7V33.7H210.763L210.036 32.2515L209.142 32.7ZM205.306 25.056L206.2 24.6075L205.923 24.056H205.306V25.056ZM205.026 25.056V24.056H204.411L204.134 24.6049L205.026 25.056ZM195.141 39.446L203.345 22.982L201.555 22.09L193.351 38.554L195.141 39.446ZM202.45 23.536H207.966V21.536H202.45V23.536ZM207.07 22.9808L215.246 39.4448L217.038 38.5552L208.862 22.0912L207.07 22.9808ZM216.142 38H211.83V40H216.142V38ZM212.737 38.5787L211.085 35.0227L209.271 35.8653L210.923 39.4213L212.737 38.5787ZM210.178 34.444H200.154V36.444H210.178V34.444ZM199.264 34.9884L197.444 38.5444L199.224 39.4556L201.044 35.8996L199.264 34.9884ZM198.334 38H194.246V40H198.334V38ZM201.162 33.7H209.142V31.7H201.162V33.7ZM210.036 32.2515L206.2 24.6075L204.412 25.5045L208.248 33.1485L210.036 32.2515ZM205.306 24.056H205.026V26.056H205.306V24.056ZM204.134 24.6049L200.27 32.2489L202.055 33.1511L205.919 25.5071L204.134 24.6049ZM234.068 38.944L233.745 39.8902L233.759 39.8952L233.774 39.8998L234.068 38.944ZM231.632 37.208L230.925 37.9151V37.9151L231.632 37.208ZM229.616 35.192L228.901 35.8912L228.909 35.8991L229.616 35.192ZM226.9 33.344L226.526 34.2713L226.532 34.2737L226.9 33.344ZM222.364 32.756V31.756H221.364V32.756H222.364ZM222.364 39V40H223.364V39H222.364ZM218.668 39H217.668V40H218.668V39ZM218.668 24.776H219.668V24.7145L219.661 24.6535L218.668 24.776ZM218.388 22.508V21.508H217.257L217.396 22.6305L218.388 22.508ZM233.592 22.984L233.165 23.8883L233.175 23.8927L233.592 22.984ZM235.104 24.244L234.25 24.763L234.261 24.7811L234.272 24.7987L235.104 24.244ZM235.72 29.424L236.697 29.6409V29.6409L235.72 29.424ZM235.076 30.908L235.913 31.4552V31.4552L235.076 30.908ZM233.704 32.14L233.214 31.2683L233.202 31.2752L233.704 32.14ZM231.408 32.728L231.35 31.7297L227.83 31.9368L230.934 33.6085L231.408 32.728ZM232.332 33.344L231.732 34.144L231.746 34.1538L231.759 34.1632L232.332 33.344ZM233.48 34.212L232.851 34.9892L232.86 34.9964L232.869 35.0033L233.48 34.212ZM234.6 35.08L233.986 35.8694L234.6 35.08ZM235.384 35.64L234.87 36.4976L234.881 36.5038L235.384 35.64ZM239.052 36.732L240.023 36.9717L240.329 35.732H239.052V36.732ZM238.492 39L238.809 39.9487L239.331 39.7745L239.463 39.2397L238.492 39ZM237.652 39.168L237.511 38.1781L237.488 38.1813L237.465 38.1857L237.652 39.168ZM228.468 30.18L228.502 31.1794L228.518 31.1789L228.535 31.1778L228.468 30.18ZM229.98 30.068L230.063 31.0645L230.078 31.0633L230.093 31.0616L229.98 30.068ZM231.688 29.396L230.945 28.727L230.943 28.7292L231.688 29.396ZM231.716 25.812L232.508 25.2006V25.2006L231.716 25.812ZM222.364 25.196V24.196H221.364V25.196H222.364ZM222.364 30.068H221.364V31.0021L222.296 31.0657L222.364 30.068ZM224.632 30.18L224.659 29.1804L224.632 30.18ZM236.28 38.28C235.635 38.28 234.997 38.1835 234.363 37.9882L233.774 39.8998C234.596 40.1525 235.432 40.28 236.28 40.28V38.28ZM234.392 37.9978C233.896 37.8282 233.214 37.3752 232.34 36.5009L230.925 37.9151C231.88 38.8701 232.822 39.5744 233.745 39.8902L234.392 37.9978ZM232.34 36.5009L230.324 34.4849L228.909 35.8991L230.925 37.9151L232.34 36.5009ZM230.331 34.4929C229.422 33.5631 228.402 32.8632 227.269 32.4143L226.532 34.2737C227.378 34.6088 228.168 35.1409 228.901 35.8911L230.331 34.4929ZM227.275 32.4168C226.147 31.9614 224.787 31.756 223.232 31.756V33.756C224.627 33.756 225.712 33.9426 226.526 34.2712L227.275 32.4168ZM223.232 31.756H222.364V33.756H223.232V31.756ZM221.364 32.756V39H223.364V32.756H221.364ZM222.364 38H218.668V40H222.364V38ZM219.668 39V24.776H217.668V39H219.668ZM219.661 24.6535L219.381 22.3855L217.396 22.6305L217.676 24.8985L219.661 24.6535ZM218.388 23.508H230.792V21.508H218.388V23.508ZM230.792 23.508C231.919 23.508 232.684 23.6609 233.165 23.8882L234.019 22.0798C233.157 21.6725 232.055 21.508 230.792 21.508V23.508ZM233.175 23.8927C233.729 24.147 234.059 24.4483 234.25 24.763L235.959 23.725C235.516 22.9943 234.838 22.4556 234.01 22.0753L233.175 23.8927ZM234.272 24.7987C234.532 25.1876 234.691 25.5948 234.761 26.0272L236.736 25.7088C236.619 24.9839 236.349 24.3084 235.936 23.6893L234.272 24.7987ZM234.761 26.0272C234.847 26.5595 234.888 27.0566 234.888 27.52H236.888C236.888 26.938 236.837 26.3339 236.736 25.7088L234.761 26.0272ZM234.888 27.52V28.052H236.888V27.52H234.888ZM234.888 28.052C234.888 28.3739 234.844 28.757 234.744 29.2071L236.697 29.6409C236.821 29.083 236.888 28.5514 236.888 28.052H234.888ZM234.744 29.2071C234.661 29.5799 234.499 29.9639 234.239 30.3608L235.913 31.4552C236.289 30.8814 236.555 30.2761 236.697 29.6409L234.744 29.2071ZM234.239 30.3608C234.025 30.6893 233.697 30.9969 233.214 31.2684L234.195 33.0116C234.907 32.6111 235.494 32.0974 235.913 31.4552L234.239 30.3608ZM233.202 31.2752C232.804 31.5065 232.208 31.6793 231.35 31.7297L231.467 33.7263C232.513 33.6647 233.447 33.4455 234.207 33.0048L233.202 31.2752ZM230.934 33.6085C231.113 33.7048 231.376 33.8765 231.732 34.144L232.932 32.544C232.542 32.2515 232.189 32.0125 231.883 31.8475L230.934 33.6085ZM231.759 34.1632C232.111 34.4099 232.475 34.685 232.851 34.9892L234.11 33.4348C233.701 33.1043 233.3 32.8008 232.906 32.5248L231.759 34.1632ZM232.869 35.0033C233.279 35.3201 233.651 35.6088 233.986 35.8694L235.214 34.2906C234.877 34.0285 234.503 33.7386 234.092 33.4207L232.869 35.0033ZM233.986 35.8694C234.33 36.1368 234.63 36.3536 234.87 36.4975L235.899 34.7825C235.766 34.7024 235.543 34.5459 235.214 34.2906L233.986 35.8694ZM234.881 36.5038C235.596 36.9214 236.273 37.2338 236.902 37.4135L237.451 35.4905C237.035 35.3715 236.516 35.1426 235.888 34.7762L234.881 36.5038ZM236.902 37.4135C237.458 37.5724 237.968 37.6779 238.409 37.7025L238.52 35.7055C238.289 35.6927 237.94 35.6302 237.451 35.4905L236.902 37.4135ZM238.409 37.7025C238.728 37.7202 238.961 37.732 239.052 37.732V35.732C239.053 35.732 239.016 35.7311 238.911 35.7261C238.817 35.7216 238.687 35.7148 238.52 35.7055L238.409 37.7025ZM238.082 36.4923L237.522 38.7603L239.463 39.2397L240.023 36.9717L238.082 36.4923ZM238.176 38.0513C238.1 38.0766 237.898 38.1228 237.511 38.1781L237.794 40.1579C238.191 40.1012 238.548 40.0354 238.809 39.9487L238.176 38.0513ZM237.465 38.1857C237.151 38.2456 236.758 38.28 236.28 38.28V40.28C236.848 40.28 237.37 40.2397 237.84 40.1503L237.465 38.1857ZM226.564 31.208C227.282 31.208 227.928 31.1986 228.502 31.1794L228.435 29.1806C227.889 29.1988 227.265 29.208 226.564 29.208V31.208ZM228.535 31.1778C229.099 31.1402 229.609 31.1024 230.063 31.0645L229.897 29.0715C229.456 29.1082 228.958 29.1452 228.402 29.1822L228.535 31.1778ZM230.093 31.0616C230.994 30.9592 231.869 30.6942 232.434 30.0628L230.943 28.7292C230.873 28.8072 230.609 28.9901 229.868 29.0744L230.093 31.0616ZM232.432 30.065C232.958 29.4802 233.192 28.7536 233.192 27.968H231.192C231.192 28.3397 231.091 28.5651 230.945 28.727L232.432 30.065ZM233.192 27.968V27.324H231.192V27.968H233.192ZM233.192 27.324C233.192 26.5403 232.98 25.8121 232.508 25.2006L230.925 26.4234C231.087 26.6332 231.192 26.913 231.192 27.324H233.192ZM232.508 25.2006C231.912 24.43 230.958 24.196 230.008 24.196V26.196C230.702 26.196 230.886 26.3727 230.925 26.4234L232.508 25.2006ZM230.008 24.196H222.364V26.196H230.008V24.196ZM221.364 25.196V30.068H223.364V25.196H221.364ZM222.296 31.0657C223.129 31.1224 223.899 31.1605 224.605 31.1796L224.659 29.1804C223.985 29.1621 223.243 29.1256 222.432 29.0703L222.296 31.0657ZM224.605 31.1796C225.304 31.1985 225.957 31.208 226.564 31.208V29.208C225.977 29.208 225.342 29.1988 224.659 29.1804L224.605 31.1796Z" fill="#2F2F2F"/>
<path d="M81.668 55.112C80.788 55.112 80.072 55.104 79.52 55.088C78.968 55.072 78.544 55.048 78.248 55.016C77.952 54.984 77.748 54.944 77.636 54.896C77.532 54.848 77.48 54.796 77.48 54.74L77.84 53.84C77.968 53.88 78.192 53.928 78.512 53.984C78.84 54.048 79.256 54.08 79.76 54.08H81.812C82.108 54.08 82.316 54.036 82.436 53.948C82.564 53.86 82.628 53.704 82.628 53.48V52.76C82.284 52.824 81.876 52.88 81.404 52.928C80.94 52.976 80.404 53 79.796 53H79.196C78.796 53 78.488 52.948 78.272 52.844C78.056 52.74 77.9 52.608 77.804 52.448C77.716 52.288 77.66 52.12 77.636 51.944C77.62 51.768 77.612 51.608 77.612 51.464V49.16C77.612 49.04 77.62 48.896 77.636 48.728C77.66 48.552 77.716 48.38 77.804 48.212C77.9 48.044 78.056 47.904 78.272 47.792C78.496 47.68 78.804 47.624 79.196 47.624H79.808C80.648 47.624 81.3 47.64 81.764 47.672C82.236 47.704 82.58 47.74 82.796 47.78L83.108 47.624H84.092V53.576C84.092 53.72 84.068 53.88 84.02 54.056C83.98 54.232 83.896 54.4 83.768 54.56C83.64 54.72 83.456 54.852 83.216 54.956C82.976 55.06 82.66 55.112 82.268 55.112H81.668ZM79.652 51.968H82.256C82.44 51.968 82.548 51.952 82.58 51.92C82.612 51.888 82.628 51.784 82.628 51.608V48.74C82.356 48.724 82.012 48.708 81.596 48.692C81.18 48.668 80.736 48.656 80.264 48.656H79.652C79.268 48.656 79.076 48.816 79.076 49.136V51.488C79.068 51.808 79.26 51.968 79.652 51.968ZM87.0004 53C86.6004 53 86.2924 52.948 86.0764 52.844C85.8604 52.74 85.7044 52.608 85.6084 52.448C85.5204 52.288 85.4644 52.12 85.4404 51.944C85.4244 51.768 85.4164 51.608 85.4164 51.464V49.16C85.4164 49.04 85.4244 48.896 85.4404 48.728C85.4644 48.552 85.5204 48.38 85.6084 48.212C85.7044 48.044 85.8604 47.904 86.0764 47.792C86.3004 47.68 86.6084 47.624 87.0004 47.624H89.5804C90.1084 47.624 90.5204 47.676 90.8164 47.78C91.1204 47.876 91.3324 48.036 91.4524 48.26C91.5804 48.484 91.6444 48.784 91.6444 49.16V50.936H89.5444C88.8244 50.936 88.2364 50.92 87.7804 50.888C87.3324 50.856 87.0324 50.836 86.8804 50.828V51.488C86.8724 51.808 87.0644 51.968 87.4564 51.968H88.0684C88.5004 51.968 88.9204 51.964 89.3284 51.956C89.7444 51.94 90.1244 51.924 90.4684 51.908C90.8124 51.884 91.0884 51.864 91.2964 51.848L91.7764 52.628C91.7764 52.876 90.9884 53 89.4124 53H87.0004ZM86.8804 49.904H90.1804V49.136C90.1804 48.976 90.1604 48.864 90.1204 48.8C90.0884 48.736 89.9844 48.696 89.8084 48.68C89.6324 48.664 89.3324 48.656 88.9084 48.656H87.4564C87.0724 48.656 86.8804 48.816 86.8804 49.136V49.904ZM92.9778 53V47.624H93.9618L94.4178 47.864C94.6258 47.752 94.8498 47.664 95.0898 47.6C95.3298 47.536 95.6338 47.504 96.0018 47.504C96.5858 47.504 97.0578 47.568 97.4178 47.696C97.7858 47.824 98.0298 47.92 98.1498 47.984L97.7298 49.028C97.6338 48.98 97.4738 48.92 97.2498 48.848C97.0338 48.768 96.7778 48.696 96.4818 48.632C96.1858 48.568 95.8618 48.536 95.5098 48.536H95.3778C94.9938 48.536 94.7418 48.612 94.6218 48.764C94.5098 48.916 94.4498 49.168 94.4418 49.52V53H92.9778ZM100.454 53C100.054 53 99.7455 52.948 99.5295 52.844C99.3135 52.74 99.1575 52.608 99.0615 52.448C98.9735 52.288 98.9175 52.12 98.8935 51.944C98.8775 51.768 98.8695 51.608 98.8695 51.464V49.16C98.8695 49.04 98.8775 48.896 98.8935 48.728C98.9175 48.552 98.9735 48.38 99.0615 48.212C99.1575 48.044 99.3135 47.904 99.5295 47.792C99.7535 47.68 100.062 47.624 100.454 47.624H103.034C103.562 47.624 103.974 47.676 104.27 47.78C104.574 47.876 104.786 48.036 104.906 48.26C105.034 48.484 105.098 48.784 105.098 49.16V50.936H102.998C102.278 50.936 101.69 50.92 101.234 50.888C100.786 50.856 100.486 50.836 100.334 50.828V51.488C100.326 51.808 100.518 51.968 100.91 51.968H101.522C101.954 51.968 102.374 51.964 102.782 51.956C103.198 51.94 103.578 51.924 103.922 51.908C104.266 51.884 104.542 51.864 104.75 51.848L105.23 52.628C105.23 52.876 104.442 53 102.866 53H100.454ZM100.334 49.904H103.634V49.136C103.634 48.976 103.614 48.864 103.574 48.8C103.542 48.736 103.438 48.696 103.262 48.68C103.086 48.664 102.786 48.656 102.362 48.656H100.91C100.526 48.656 100.334 48.816 100.334 49.136V49.904ZM106.431 53V47.624H107.415L107.895 47.864C108.231 47.8 108.635 47.744 109.107 47.696C109.579 47.648 110.119 47.624 110.727 47.624H111.327C111.727 47.624 112.035 47.68 112.251 47.792C112.467 47.904 112.619 48.044 112.707 48.212C112.803 48.38 112.859 48.552 112.875 48.728C112.899 48.896 112.911 49.04 112.911 49.16V53H111.447V49.136C111.447 48.816 111.255 48.656 110.871 48.656H108.255C108.103 48.656 108.003 48.672 107.955 48.704C107.915 48.728 107.895 48.8 107.895 48.92V53H106.431ZM115.758 53C115.358 53 115.05 52.948 114.834 52.844C114.618 52.74 114.462 52.608 114.366 52.448C114.278 52.288 114.222 52.12 114.198 51.944C114.182 51.768 114.174 51.608 114.174 51.464V49.16C114.174 49.04 114.182 48.896 114.198 48.728C114.222 48.552 114.278 48.38 114.366 48.212C114.462 48.044 114.618 47.904 114.834 47.792C115.058 47.68 115.366 47.624 115.758 47.624H117.426C118.426 47.624 119.134 47.652 119.55 47.708C119.974 47.756 120.186 47.808 120.186 47.864L119.946 48.776C119.722 48.76 119.438 48.744 119.094 48.728C118.75 48.704 118.378 48.688 117.978 48.68C117.586 48.664 117.202 48.656 116.826 48.656H116.214C115.83 48.656 115.638 48.816 115.638 49.136V51.488C115.63 51.808 115.822 51.968 116.214 51.968H116.826C117.258 51.968 117.678 51.964 118.086 51.956C118.502 51.94 118.882 51.924 119.226 51.908C119.57 51.884 119.846 51.864 120.054 51.848L120.534 52.628C120.534 52.876 119.746 53 118.17 53H115.758ZM122.224 46.868C121.928 46.868 121.712 46.808 121.576 46.688C121.44 46.568 121.372 46.368 121.372 46.088C121.372 45.8 121.436 45.6 121.564 45.488C121.7 45.368 121.92 45.308 122.224 45.308C122.528 45.308 122.748 45.368 122.884 45.488C123.02 45.6 123.088 45.8 123.088 46.088C123.088 46.36 123.02 46.56 122.884 46.688C122.748 46.808 122.528 46.868 122.224 46.868ZM121.492 53V47.624H122.956V53H121.492ZM126.073 53C125.465 53 125.025 52.86 124.753 52.58C124.481 52.292 124.345 51.9 124.345 51.404C124.345 50.884 124.485 50.484 124.765 50.204C125.053 49.924 125.489 49.784 126.073 49.784H126.685C127.285 49.784 127.825 49.8 128.305 49.832C128.785 49.864 129.181 49.896 129.493 49.928V49.136C129.493 49.064 129.485 48.992 129.469 48.92C129.453 48.84 129.405 48.776 129.325 48.728C129.245 48.68 129.109 48.656 128.917 48.656H128.317C127.445 48.656 126.717 48.672 126.133 48.704C125.549 48.728 125.153 48.752 124.945 48.776L124.813 47.864C124.813 47.752 125.117 47.684 125.725 47.66C126.333 47.636 127.349 47.624 128.773 47.624H129.373C129.773 47.624 130.081 47.68 130.297 47.792C130.513 47.904 130.665 48.044 130.753 48.212C130.849 48.38 130.905 48.552 130.921 48.728C130.945 48.896 130.957 49.04 130.957 49.16V53H129.973L129.505 52.76C129.169 52.816 128.765 52.872 128.293 52.928C127.821 52.976 127.281 53 126.673 53H126.073ZM126.385 51.968H129.133C129.309 51.968 129.413 51.952 129.445 51.92C129.477 51.888 129.493 51.788 129.493 51.62V50.696H126.385C126.169 50.696 126.017 50.748 125.929 50.852C125.849 50.956 125.809 51.12 125.809 51.344C125.809 51.568 125.857 51.728 125.953 51.824C126.049 51.92 126.193 51.968 126.385 51.968ZM133.805 53C133.405 53 133.097 52.948 132.881 52.844C132.665 52.74 132.509 52.608 132.413 52.448C132.325 52.288 132.269 52.12 132.245 51.944C132.229 51.768 132.221 51.608 132.221 51.464V49.16C132.221 49.04 132.229 48.896 132.245 48.728C132.269 48.552 132.325 48.38 132.413 48.212C132.509 48.044 132.665 47.904 132.881 47.792C133.105 47.68 133.413 47.624 133.805 47.624H134.417C135.153 47.624 135.745 47.64 136.193 47.672C136.649 47.696 136.997 47.724 137.237 47.756V45.392H138.701V53H137.717L137.249 52.76C136.913 52.816 136.509 52.872 136.037 52.928C135.565 52.976 135.021 53 134.405 53H133.805ZM134.261 51.968H136.865C137.033 51.968 137.137 51.948 137.177 51.908C137.217 51.868 137.237 51.768 137.237 51.608V48.74C136.965 48.724 136.621 48.708 136.205 48.692C135.789 48.668 135.345 48.656 134.873 48.656H134.261C133.877 48.656 133.685 48.816 133.685 49.136V51.488C133.685 51.808 133.877 51.968 134.261 51.968ZM141.727 53C141.191 53 140.791 52.892 140.527 52.676C140.271 52.46 140.143 52.108 140.143 51.62V49.16C140.143 49.04 140.151 48.896 140.167 48.728C140.191 48.552 140.247 48.38 140.335 48.212C140.431 48.044 140.587 47.904 140.803 47.792C141.027 47.68 141.335 47.624 141.727 47.624H145.039C145.439 47.624 145.747 47.68 145.963 47.792C146.179 47.904 146.331 48.044 146.419 48.212C146.515 48.38 146.571 48.552 146.587 48.728C146.611 48.896 146.623 49.04 146.623 49.16V51.464C146.623 51.608 146.611 51.768 146.587 51.944C146.571 52.12 146.515 52.288 146.419 52.448C146.323 52.608 146.167 52.74 145.951 52.844C145.735 52.948 145.431 53 145.039 53H141.727ZM142.183 51.968H144.583C144.975 51.968 145.171 51.808 145.171 51.488V49.136C145.171 48.816 144.975 48.656 144.583 48.656H142.183C141.799 48.656 141.607 48.816 141.607 49.136V51.488C141.607 51.808 141.799 51.968 142.183 51.968ZM147.939 53V47.624H148.923L149.379 47.864C149.587 47.752 149.811 47.664 150.051 47.6C150.291 47.536 150.595 47.504 150.963 47.504C151.547 47.504 152.019 47.568 152.379 47.696C152.747 47.824 152.991 47.92 153.111 47.984L152.691 49.028C152.595 48.98 152.435 48.92 152.211 48.848C151.995 48.768 151.739 48.696 151.443 48.632C151.147 48.568 150.823 48.536 150.471 48.536H150.339C149.955 48.536 149.703 48.612 149.583 48.764C149.471 48.916 149.411 49.168 149.403 49.52V53H147.939ZM79.184 67C78.784 67 78.476 66.948 78.26 66.844C78.044 66.74 77.888 66.608 77.792 66.448C77.704 66.288 77.648 66.12 77.624 65.944C77.608 65.768 77.6 65.608 77.6 65.464V63.16C77.6 63.04 77.608 62.896 77.624 62.728C77.648 62.552 77.704 62.38 77.792 62.212C77.888 62.044 78.044 61.904 78.26 61.792C78.484 61.68 78.792 61.624 79.184 61.624H79.796C80.532 61.624 81.124 61.64 81.572 61.672C82.028 61.696 82.376 61.724 82.616 61.756V59.392H84.08V67H83.096L82.628 66.76C82.292 66.816 81.888 66.872 81.416 66.928C80.944 66.976 80.4 67 79.784 67H79.184ZM79.64 65.968H82.244C82.412 65.968 82.516 65.948 82.556 65.908C82.596 65.868 82.616 65.768 82.616 65.608V62.74C82.344 62.724 82 62.708 81.584 62.692C81.168 62.668 80.724 62.656 80.252 62.656H79.64C79.256 62.656 79.064 62.816 79.064 63.136V65.488C79.064 65.808 79.256 65.968 79.64 65.968ZM87.1059 67C86.7059 67 86.3979 66.948 86.1819 66.844C85.9659 66.74 85.8099 66.608 85.7139 66.448C85.6259 66.288 85.5699 66.12 85.5459 65.944C85.5299 65.768 85.5219 65.608 85.5219 65.464V63.16C85.5219 63.04 85.5299 62.896 85.5459 62.728C85.5699 62.552 85.6259 62.38 85.7139 62.212C85.8099 62.044 85.9659 61.904 86.1819 61.792C86.4059 61.68 86.7139 61.624 87.1059 61.624H89.6859C90.2139 61.624 90.6259 61.676 90.9219 61.78C91.2259 61.876 91.4379 62.036 91.5579 62.26C91.6859 62.484 91.7499 62.784 91.7499 63.16V64.936H89.6499C88.9299 64.936 88.3419 64.92 87.8859 64.888C87.4379 64.856 87.1379 64.836 86.9859 64.828V65.488C86.9779 65.808 87.1699 65.968 87.5619 65.968H88.1739C88.6059 65.968 89.0259 65.964 89.4339 65.956C89.8499 65.94 90.2299 65.924 90.5739 65.908C90.9179 65.884 91.1939 65.864 91.4019 65.848L91.8819 66.628C91.8819 66.876 91.0939 67 89.5179 67H87.1059ZM86.9859 63.904H90.2859V63.136C90.2859 62.976 90.2659 62.864 90.2259 62.8C90.1939 62.736 90.0899 62.696 89.9139 62.68C89.7379 62.664 89.4379 62.656 89.0139 62.656H87.5619C87.1779 62.656 86.9859 62.816 86.9859 63.136V63.904ZM97.184 67C96.784 67 96.476 66.948 96.26 66.844C96.044 66.74 95.888 66.608 95.792 66.448C95.704 66.288 95.648 66.12 95.624 65.944C95.608 65.768 95.6 65.608 95.6 65.464V63.16C95.6 63.04 95.608 62.896 95.624 62.728C95.648 62.552 95.704 62.38 95.792 62.212C95.888 62.044 96.044 61.904 96.26 61.792C96.484 61.68 96.792 61.624 97.184 61.624H99.764C100.292 61.624 100.704 61.676 101 61.78C101.304 61.876 101.516 62.036 101.636 62.26C101.764 62.484 101.828 62.784 101.828 63.16V64.936H99.728C99.008 64.936 98.42 64.92 97.964 64.888C97.516 64.856 97.216 64.836 97.064 64.828V65.488C97.056 65.808 97.248 65.968 97.64 65.968H98.252C98.684 65.968 99.104 65.964 99.512 65.956C99.928 65.94 100.308 65.924 100.652 65.908C100.996 65.884 101.272 65.864 101.48 65.848L101.96 66.628C101.96 66.876 101.172 67 99.596 67H97.184ZM97.064 63.904H100.364V63.136C100.364 62.976 100.344 62.864 100.304 62.8C100.272 62.736 100.168 62.696 99.992 62.68C99.816 62.664 99.516 62.656 99.092 62.656H97.64C97.256 62.656 97.064 62.816 97.064 63.136V63.904ZM104.517 67C103.981 67 103.601 66.972 103.377 66.916C103.153 66.86 103.041 66.804 103.041 66.748L103.401 65.848C103.633 65.872 104.057 65.9 104.673 65.932C105.297 65.956 106.065 65.968 106.977 65.968H107.577C107.777 65.968 107.901 65.916 107.949 65.812C108.005 65.7 108.033 65.552 108.033 65.368C108.033 65.184 108.001 65.036 107.937 64.924C107.881 64.812 107.761 64.756 107.577 64.756H104.625C104.065 64.756 103.661 64.652 103.413 64.444C103.165 64.228 103.041 63.908 103.041 63.484V63.004C103.041 62.892 103.053 62.76 103.077 62.608C103.101 62.456 103.161 62.304 103.257 62.152C103.353 62 103.509 61.876 103.725 61.78C103.941 61.676 104.241 61.624 104.625 61.624H107.937C108.417 61.624 108.757 61.652 108.957 61.708C109.157 61.764 109.257 61.82 109.257 61.876L109.137 62.776C108.905 62.752 108.477 62.728 107.853 62.704C107.229 62.672 106.465 62.656 105.561 62.656H104.961C104.761 62.656 104.633 62.712 104.577 62.824C104.529 62.928 104.505 63.052 104.505 63.196C104.505 63.348 104.529 63.476 104.577 63.58C104.633 63.676 104.761 63.724 104.961 63.724H107.913C108.457 63.724 108.857 63.836 109.113 64.06C109.369 64.284 109.497 64.568 109.497 64.912V65.62C109.497 65.764 109.485 65.916 109.461 66.076C109.445 66.236 109.389 66.388 109.293 66.532C109.197 66.668 109.041 66.78 108.825 66.868C108.609 66.956 108.305 67 107.913 67H104.517ZM112.902 67C112.294 67 111.878 66.872 111.654 66.616C111.43 66.36 111.318 65.976 111.318 65.464V62.656H110.334V61.624H110.838C110.99 61.624 111.098 61.6 111.162 61.552C111.234 61.504 111.286 61.408 111.318 61.264L111.558 59.98H112.782V61.624H115.278V62.656H112.782V65.476C112.782 65.676 112.83 65.808 112.926 65.872C113.022 65.936 113.166 65.968 113.358 65.968H115.05L115.17 66.88C115.002 66.904 114.746 66.932 114.402 66.964C114.058 66.988 113.682 67 113.274 67H112.902ZM117.788 67C117.18 67 116.74 66.86 116.468 66.58C116.196 66.292 116.06 65.9 116.06 65.404C116.06 64.884 116.2 64.484 116.48 64.204C116.768 63.924 117.204 63.784 117.788 63.784H118.4C119 63.784 119.54 63.8 120.02 63.832C120.5 63.864 120.896 63.896 121.208 63.928V63.136C121.208 63.064 121.2 62.992 121.184 62.92C121.168 62.84 121.12 62.776 121.04 62.728C120.96 62.68 120.824 62.656 120.632 62.656H120.032C119.16 62.656 118.432 62.672 117.848 62.704C117.264 62.728 116.868 62.752 116.66 62.776L116.528 61.864C116.528 61.752 116.832 61.684 117.44 61.66C118.048 61.636 119.064 61.624 120.488 61.624H121.088C121.488 61.624 121.796 61.68 122.012 61.792C122.228 61.904 122.38 62.044 122.468 62.212C122.564 62.38 122.62 62.552 122.636 62.728C122.66 62.896 122.672 63.04 122.672 63.16V67H121.688L121.22 66.76C120.884 66.816 120.48 66.872 120.008 66.928C119.536 66.976 118.996 67 118.388 67H117.788ZM118.1 65.968H120.848C121.024 65.968 121.128 65.952 121.16 65.92C121.192 65.888 121.208 65.788 121.208 65.62V64.696H118.1C117.884 64.696 117.732 64.748 117.644 64.852C117.564 64.956 117.524 65.12 117.524 65.344C117.524 65.568 117.572 65.728 117.668 65.824C117.764 65.92 117.908 65.968 118.1 65.968ZM125.52 67C125.12 67 124.812 66.948 124.596 66.844C124.38 66.74 124.224 66.608 124.128 66.448C124.04 66.288 123.984 66.12 123.96 65.944C123.944 65.768 123.936 65.608 123.936 65.464V63.16C123.936 63.04 123.944 62.896 123.96 62.728C123.984 62.552 124.04 62.38 124.128 62.212C124.224 62.044 124.38 61.904 124.596 61.792C124.82 61.68 125.128 61.624 125.52 61.624H127.188C128.188 61.624 128.896 61.652 129.312 61.708C129.736 61.756 129.948 61.808 129.948 61.864L129.708 62.776C129.484 62.76 129.2 62.744 128.856 62.728C128.512 62.704 128.14 62.688 127.74 62.68C127.348 62.664 126.964 62.656 126.588 62.656H125.976C125.592 62.656 125.4 62.816 125.4 63.136V65.488C125.392 65.808 125.584 65.968 125.976 65.968H126.588C127.02 65.968 127.44 65.964 127.848 65.956C128.264 65.94 128.644 65.924 128.988 65.908C129.332 65.884 129.608 65.864 129.816 65.848L130.296 66.628C130.296 66.876 129.508 67 127.932 67H125.52ZM131.986 60.868C131.69 60.868 131.474 60.808 131.338 60.688C131.202 60.568 131.134 60.368 131.134 60.088C131.134 59.8 131.198 59.6 131.326 59.488C131.462 59.368 131.682 59.308 131.986 59.308C132.29 59.308 132.51 59.368 132.646 59.488C132.782 59.6 132.85 59.8 132.85 60.088C132.85 60.36 132.782 60.56 132.646 60.688C132.51 60.808 132.29 60.868 131.986 60.868ZM131.254 67V61.624H132.718V67H131.254ZM135.75 67C135.214 67 134.814 66.892 134.55 66.676C134.294 66.46 134.166 66.108 134.166 65.62V63.16C134.166 63.04 134.174 62.896 134.19 62.728C134.214 62.552 134.27 62.38 134.358 62.212C134.454 62.044 134.61 61.904 134.826 61.792C135.05 61.68 135.358 61.624 135.75 61.624H139.062C139.462 61.624 139.77 61.68 139.986 61.792C140.202 61.904 140.354 62.044 140.442 62.212C140.538 62.38 140.594 62.552 140.61 62.728C140.634 62.896 140.646 63.04 140.646 63.16V65.464C140.646 65.608 140.634 65.768 140.61 65.944C140.594 66.12 140.538 66.288 140.442 66.448C140.346 66.608 140.19 66.74 139.974 66.844C139.758 66.948 139.454 67 139.062 67H135.75ZM136.206 65.968H138.606C138.998 65.968 139.194 65.808 139.194 65.488V63.136C139.194 62.816 138.998 62.656 138.606 62.656H136.206C135.822 62.656 135.63 62.816 135.63 63.136V65.488C135.63 65.808 135.822 65.968 136.206 65.968ZM141.962 67V61.624H142.946L143.426 61.864C143.762 61.8 144.166 61.744 144.638 61.696C145.11 61.648 145.65 61.624 146.258 61.624H146.858C147.258 61.624 147.566 61.68 147.782 61.792C147.998 61.904 148.15 62.044 148.238 62.212C148.334 62.38 148.39 62.552 148.406 62.728C148.43 62.896 148.442 63.04 148.442 63.16V67H146.978V63.136C146.978 62.816 146.786 62.656 146.402 62.656H143.786C143.634 62.656 143.534 62.672 143.486 62.704C143.446 62.728 143.426 62.8 143.426 62.92V67H141.962ZM151.373 67C150.765 67 150.325 66.86 150.053 66.58C149.781 66.292 149.645 65.9 149.645 65.404C149.645 64.884 149.785 64.484 150.065 64.204C150.353 63.924 150.789 63.784 151.373 63.784H151.985C152.585 63.784 153.125 63.8 153.605 63.832C154.085 63.864 154.481 63.896 154.793 63.928V63.136C154.793 63.064 154.785 62.992 154.769 62.92C154.753 62.84 154.705 62.776 154.625 62.728C154.545 62.68 154.409 62.656 154.217 62.656H153.617C152.745 62.656 152.017 62.672 151.433 62.704C150.849 62.728 150.453 62.752 150.245 62.776L150.113 61.864C150.113 61.752 150.417 61.684 151.025 61.66C151.633 61.636 152.649 61.624 154.073 61.624H154.673C155.073 61.624 155.381 61.68 155.597 61.792C155.813 61.904 155.965 62.044 156.053 62.212C156.149 62.38 156.205 62.552 156.221 62.728C156.245 62.896 156.257 63.04 156.257 63.16V67H155.273L154.805 66.76C154.469 66.816 154.065 66.872 153.593 66.928C153.121 66.976 152.581 67 151.973 67H151.373ZM151.685 65.968H154.433C154.609 65.968 154.713 65.952 154.745 65.92C154.777 65.888 154.793 65.788 154.793 65.62V64.696H151.685C151.469 64.696 151.317 64.748 151.229 64.852C151.149 64.956 151.109 65.12 151.109 65.344C151.109 65.568 151.157 65.728 151.253 65.824C151.349 65.92 151.493 65.968 151.685 65.968ZM157.642 67V61.624H158.626L158.926 61.768C159.158 61.728 159.442 61.696 159.778 61.672C160.114 61.64 160.514 61.624 160.978 61.624H161.578C161.81 61.624 162.034 61.656 162.25 61.72C162.466 61.776 162.626 61.86 162.73 61.972C162.938 61.868 163.226 61.784 163.594 61.72C163.962 61.656 164.442 61.624 165.034 61.624H165.634C166.034 61.624 166.342 61.68 166.558 61.792C166.774 61.904 166.926 62.044 167.014 62.212C167.11 62.38 167.166 62.552 167.182 62.728C167.206 62.896 167.218 63.04 167.218 63.16V67H165.754V63.136C165.754 62.816 165.562 62.656 165.178 62.656H163.498C163.37 62.656 163.282 62.672 163.234 62.704C163.186 62.736 163.162 62.808 163.162 62.92V67H161.698V63.136C161.698 62.816 161.506 62.656 161.122 62.656H159.466C159.314 62.656 159.214 62.672 159.166 62.704C159.126 62.728 159.106 62.8 159.106 62.92V67H157.642ZM170.063 67C169.663 67 169.355 66.948 169.139 66.844C168.923 66.74 168.767 66.608 168.671 66.448C168.583 66.288 168.527 66.12 168.503 65.944C168.487 65.768 168.479 65.608 168.479 65.464V63.16C168.479 63.04 168.487 62.896 168.503 62.728C168.527 62.552 168.583 62.38 168.671 62.212C168.767 62.044 168.923 61.904 169.139 61.792C169.363 61.68 169.671 61.624 170.063 61.624H172.643C173.171 61.624 173.583 61.676 173.879 61.78C174.183 61.876 174.395 62.036 174.515 62.26C174.643 62.484 174.707 62.784 174.707 63.16V64.936H172.607C171.887 64.936 171.299 64.92 170.843 64.888C170.395 64.856 170.095 64.836 169.943 64.828V65.488C169.935 65.808 170.127 65.968 170.519 65.968H171.131C171.563 65.968 171.983 65.964 172.391 65.956C172.807 65.94 173.187 65.924 173.531 65.908C173.875 65.884 174.151 65.864 174.359 65.848L174.839 66.628C174.839 66.876 174.051 67 172.475 67H170.063ZM169.943 63.904H173.243V63.136C173.243 62.976 173.223 62.864 173.183 62.8C173.151 62.736 173.047 62.696 172.871 62.68C172.695 62.664 172.395 62.656 171.971 62.656H170.519C170.135 62.656 169.943 62.816 169.943 63.136V63.904ZM176.04 67V61.624H177.024L177.504 61.864C177.84 61.8 178.244 61.744 178.716 61.696C179.188 61.648 179.728 61.624 180.336 61.624H180.936C181.336 61.624 181.644 61.68 181.86 61.792C182.076 61.904 182.228 62.044 182.316 62.212C182.412 62.38 182.468 62.552 182.484 62.728C182.508 62.896 182.52 63.04 182.52 63.16V67H181.056V63.136C181.056 62.816 180.864 62.656 180.48 62.656H177.864C177.712 62.656 177.612 62.672 177.564 62.704C177.524 62.728 177.504 62.8 177.504 62.92V67H176.04ZM185.992 67C185.384 67 184.968 66.872 184.744 66.616C184.52 66.36 184.408 65.976 184.408 65.464V62.656H183.424V61.624H183.928C184.08 61.624 184.188 61.6 184.252 61.552C184.324 61.504 184.376 61.408 184.408 61.264L184.648 59.98H185.872V61.624H188.368V62.656H185.872V65.476C185.872 65.676 185.92 65.808 186.016 65.872C186.112 65.936 186.256 65.968 186.448 65.968H188.14L188.26 66.88C188.092 66.904 187.836 66.932 187.492 66.964C187.148 66.988 186.772 67 186.364 67H185.992ZM190.793 67C190.257 67 189.857 66.892 189.593 66.676C189.337 66.46 189.209 66.108 189.209 65.62V63.16C189.209 63.04 189.217 62.896 189.233 62.728C189.257 62.552 189.313 62.38 189.401 62.212C189.497 62.044 189.653 61.904 189.869 61.792C190.093 61.68 190.401 61.624 190.793 61.624H194.105C194.505 61.624 194.813 61.68 195.029 61.792C195.245 61.904 195.397 62.044 195.485 62.212C195.581 62.38 195.637 62.552 195.653 62.728C195.677 62.896 195.689 63.04 195.689 63.16V65.464C195.689 65.608 195.677 65.768 195.653 65.944C195.637 66.12 195.581 66.288 195.485 66.448C195.389 66.608 195.233 66.74 195.017 66.844C194.801 66.948 194.497 67 194.105 67H190.793ZM191.249 65.968H193.649C194.041 65.968 194.237 65.808 194.237 65.488V63.136C194.237 62.816 194.041 62.656 193.649 62.656H191.249C190.865 62.656 190.673 62.816 190.673 63.136V65.488C190.673 65.808 190.865 65.968 191.249 65.968Z" fill="#1A5B8D"/>
<line x1="66.9487" y1="41.8974" x2="53.8974" y2="81.0513" stroke="#1A5B8D" stroke-width="3" stroke-linecap="round"/>
</svg>
