<svg width="228" height="100" viewBox="0 0 228 100" fill="none" xmlns="http://www.w3.org/2000/svg">
<path d="M54.376 39C53.1067 39 52.1733 38.944 51.576 38.832C50.9787 38.72 50.68 38.5893 50.68 38.44L51.8 36.004C52.2293 36.0787 53.2933 36.1533 54.992 36.228C56.7093 36.284 59.0613 36.312 62.048 36.312H62.58C63.3827 36.312 63.952 36.172 64.288 35.892C64.624 35.5933 64.792 35.0987 64.792 34.408V33.848C64.792 33.1947 64.652 32.728 64.372 32.448C64.1107 32.168 63.5133 32.028 62.58 32.028H56.084C54.1987 32.028 52.8267 31.6827 51.968 30.992C51.1093 30.2827 50.68 29.1347 50.68 27.548V27.1C50.68 26.2787 50.8293 25.5227 51.128 24.832C51.4453 24.1413 51.9773 23.5907 52.724 23.18C53.4707 22.7507 54.4973 22.536 55.804 22.536H63.42C64.6893 22.536 65.716 22.6013 66.5 22.732C67.284 22.8627 67.676 23.0027 67.676 23.152L67.116 25.504C66.6307 25.448 65.5293 25.392 63.812 25.336C62.0947 25.2613 59.7893 25.224 56.896 25.224L56.588 25.196C55.7293 25.196 55.1507 25.3733 54.852 25.728C54.5533 26.064 54.3947 26.4933 54.376 27.016V27.492C54.376 28.108 54.544 28.5747 54.88 28.892C55.2347 29.1907 55.8133 29.34 56.616 29.34H62.832C64.0267 29.34 65.044 29.4613 65.884 29.704C66.724 29.9467 67.368 30.3947 67.816 31.048C68.264 31.6827 68.488 32.6253 68.488 33.876V34.324C68.488 35.724 68.124 36.8533 67.396 37.712C66.6867 38.5707 65.4453 39 63.672 39H54.376ZM78.0321 39L78.0041 25.196H70.7241V22.508H89.0361V25.196H81.7281V39H78.0321ZM86.2422 39L94.4462 22.536H99.9622L108.138 39H103.826L102.174 35.444H92.1502L90.3302 39H86.2422ZM93.1582 32.7H101.138L97.3022 25.056H97.0222L93.1582 32.7ZM114.682 39C113.356 39 112.32 38.8133 111.574 38.44C110.827 38.0667 110.304 37.5067 110.006 36.76C109.707 36.0133 109.558 35.0893 109.558 33.988V27.744C109.558 25.952 109.959 24.636 110.762 23.796C111.564 22.9373 112.871 22.508 114.682 22.508H123.11C124.398 22.508 125.378 22.5827 126.05 22.732C126.74 22.8627 127.086 23.0027 127.086 23.152L126.526 25.476C126.208 25.42 125.266 25.364 123.698 25.308C122.148 25.2333 119.89 25.196 116.922 25.196H115.494C114 25.196 113.254 25.8587 113.254 27.184V34.324C113.254 34.9587 113.412 35.4533 113.73 35.808C114.066 36.144 114.654 36.312 115.494 36.312H116.642C119.74 36.312 122.139 36.284 123.838 36.228C125.555 36.1533 126.619 36.0787 127.03 36.004L128.178 37.852C128.178 37.9453 128.019 38.0853 127.702 38.272C127.403 38.4587 126.843 38.6267 126.022 38.776C125.2 38.9253 124.015 39 122.466 39H114.682ZM130.974 39V22.536H134.67V39H130.974ZM143.994 39C142.687 39 141.661 38.8133 140.914 38.44C140.167 38.0667 139.635 37.5067 139.318 36.76C139.019 36.0133 138.87 35.0893 138.87 33.988V27.52C138.87 26.4373 139.019 25.532 139.318 24.804C139.617 24.0573 140.139 23.4973 140.886 23.124C141.633 22.732 142.669 22.536 143.994 22.536H152.17C153.477 22.536 154.494 22.732 155.222 23.124C155.969 23.4973 156.491 24.0573 156.79 24.804C157.107 25.532 157.266 26.4373 157.266 27.52V33.988C157.266 35.6307 156.902 36.8813 156.174 37.74C155.446 38.58 154.111 39 152.17 39H143.994ZM144.806 36.312H151.386C152.077 36.312 152.609 36.1347 152.982 35.78C153.374 35.4253 153.57 34.94 153.57 34.324V27.184C153.57 26.6427 153.374 26.1853 152.982 25.812C152.59 25.42 152.058 25.224 151.386 25.224H144.806C144.134 25.224 143.593 25.4013 143.182 25.756C142.771 26.1107 142.566 26.5867 142.566 27.184V34.324C142.566 34.9587 142.762 35.4533 143.154 35.808C143.565 36.144 144.115 36.312 144.806 36.312ZM161.743 39V24.776L161.463 22.536H165.495L175.015 32.504L176.107 34.016H176.415V22.536H180.111V39H176.555L166.811 28.864L165.719 27.548H165.439V39H161.743ZM182.355 39L190.559 22.536H196.075L204.251 39H199.939L198.287 35.444H188.263L186.443 39H182.355ZM189.271 32.7H197.251L193.415 25.056H193.135L189.271 32.7ZM224.39 39.28C223.643 39.28 222.906 39.168 222.178 38.944C221.468 38.7013 220.656 38.1227 219.742 37.208L217.726 35.192C216.904 34.352 215.999 33.736 215.01 33.344C214.039 32.952 212.816 32.756 211.342 32.756H210.474V39H206.778V24.776L206.498 22.508H218.902C220.096 22.508 221.03 22.6667 221.702 22.984C222.392 23.3013 222.896 23.7213 223.214 24.244C223.55 24.748 223.764 25.2893 223.858 25.868C223.951 26.4467 223.998 26.9973 223.998 27.52V28.052C223.998 28.4627 223.942 28.92 223.83 29.424C223.718 29.928 223.503 30.4227 223.186 30.908C222.868 31.3933 222.411 31.804 221.814 32.14C221.235 32.476 220.47 32.672 219.518 32.728C219.76 32.8587 220.068 33.064 220.442 33.344C220.815 33.6053 221.198 33.8947 221.59 34.212C222 34.5293 222.374 34.8187 222.71 35.08C223.046 35.3413 223.307 35.528 223.494 35.64C224.166 36.032 224.763 36.3027 225.286 36.452C225.808 36.6013 226.238 36.6853 226.574 36.704C226.91 36.7227 227.106 36.732 227.162 36.732L226.602 39C226.434 39.056 226.154 39.112 225.762 39.168C225.37 39.2427 224.912 39.28 224.39 39.28ZM214.674 30.208C215.383 30.208 216.018 30.1987 216.578 30.18C217.138 30.1427 217.642 30.1053 218.09 30.068C218.911 29.9747 219.48 29.7507 219.798 29.396C220.134 29.0227 220.302 28.5467 220.302 27.968V27.324C220.302 26.7267 220.143 26.2227 219.826 25.812C219.508 25.4013 218.939 25.196 218.118 25.196H210.474V30.068C211.295 30.124 212.051 30.1613 212.742 30.18C213.432 30.1987 214.076 30.208 214.674 30.208Z" fill="white"/>
<path d="M20.2 43V19.48H45.08V23.32H25.48V28.84H40.44V32.8H25.48V39.16H45.24L46.84 42.56C46.84 42.6667 46.48 42.7733 45.76 42.88C45.04 42.96 43.8 43 42.04 43H20.2Z" fill="white"/>
<path d="M26.7151 89.7947C28.9445 94.0997 35.0946 94.1202 37.3526 89.8301L59.6719 47.4234C60.6751 45.5173 59.1671 43.2575 57.0219 43.4526C56.6771 43.4839 56.3416 43.5808 56.0332 43.7382L34.5053 54.7218C32.918 55.5317 31.0528 55.5941 29.4149 54.8921L4.10202 44.0437C4.03471 44.0149 3.96224 44 3.889 44C3.48366 44 3.22241 44.4295 3.40881 44.7894L26.7151 89.7947Z" fill="white"/>
<path d="M62 43.0086C58 52.5 50.2052 57.9035 43.6311 60.1604C37.0571 62.4173 29.8946 62.6025 23.2015 60.6886C16.5084 58.7747 10.6395 54.8632 6.46166 49.5318C2.28378 44.2004 0.0184079 37.7317 0.000111703 31.0812C-0.0181845 24.4306 2.21156 17.9507 6.36005 12.5986C10.5085 7.24641 16.3558 3.30573 23.0383 1.35851C29.7208 -0.588708 36.8842 -0.439221 43.4706 1.78489C50.0569 4.00901 58.8475 9 62 18.8969L51.5034 18.8969C48.7748 15.0329 44.8127 12.1063 40.2023 10.5494C35.5918 8.99255 30.5774 8.88791 25.8997 10.251C21.222 11.614 17.1289 14.3725 14.2249 18.119C11.321 21.8655 9.76015 26.4014 9.77296 31.0568C9.78577 35.7122 11.3715 40.2403 14.296 43.9723C17.2206 47.7043 21.3288 50.4423 26.014 51.782C30.6991 53.1217 35.7129 52.9921 40.3147 51.4123C44.9165 49.8325 48.8624 46.8862 51.5697 43.0086H62Z" fill="white"/>
<path d="M43 30H49V32H43V30Z" fill="white"/>
<path d="M66 43H227V58C227 66.2843 220.284 73 212 73H51L66 43Z" fill="white"/>
<path d="M82.668 57.112C81.788 57.112 81.072 57.104 80.52 57.088C79.968 57.072 79.544 57.048 79.248 57.016C78.952 56.984 78.748 56.944 78.636 56.896C78.532 56.848 78.48 56.796 78.48 56.74L78.84 55.84C78.968 55.88 79.192 55.928 79.512 55.984C79.84 56.048 80.256 56.08 80.76 56.08H82.812C83.108 56.08 83.316 56.036 83.436 55.948C83.564 55.86 83.628 55.704 83.628 55.48V54.76C83.284 54.824 82.876 54.88 82.404 54.928C81.94 54.976 81.404 55 80.796 55H80.196C79.796 55 79.488 54.948 79.272 54.844C79.056 54.74 78.9 54.608 78.804 54.448C78.716 54.288 78.66 54.12 78.636 53.944C78.62 53.768 78.612 53.608 78.612 53.464V51.16C78.612 51.04 78.62 50.896 78.636 50.728C78.66 50.552 78.716 50.38 78.804 50.212C78.9 50.044 79.056 49.904 79.272 49.792C79.496 49.68 79.804 49.624 80.196 49.624H80.808C81.648 49.624 82.3 49.64 82.764 49.672C83.236 49.704 83.58 49.74 83.796 49.78L84.108 49.624H85.092V55.576C85.092 55.72 85.068 55.88 85.02 56.056C84.98 56.232 84.896 56.4 84.768 56.56C84.64 56.72 84.456 56.852 84.216 56.956C83.976 57.06 83.66 57.112 83.268 57.112H82.668ZM80.652 53.968H83.256C83.44 53.968 83.548 53.952 83.58 53.92C83.612 53.888 83.628 53.784 83.628 53.608V50.74C83.356 50.724 83.012 50.708 82.596 50.692C82.18 50.668 81.736 50.656 81.264 50.656H80.652C80.268 50.656 80.076 50.816 80.076 51.136V53.488C80.068 53.808 80.26 53.968 80.652 53.968ZM88.0004 55C87.6004 55 87.2924 54.948 87.0764 54.844C86.8604 54.74 86.7044 54.608 86.6084 54.448C86.5204 54.288 86.4644 54.12 86.4404 53.944C86.4244 53.768 86.4164 53.608 86.4164 53.464V51.16C86.4164 51.04 86.4244 50.896 86.4404 50.728C86.4644 50.552 86.5204 50.38 86.6084 50.212C86.7044 50.044 86.8604 49.904 87.0764 49.792C87.3004 49.68 87.6084 49.624 88.0004 49.624H90.5804C91.1084 49.624 91.5204 49.676 91.8164 49.78C92.1204 49.876 92.3324 50.036 92.4524 50.26C92.5804 50.484 92.6444 50.784 92.6444 51.16V52.936H90.5444C89.8244 52.936 89.2364 52.92 88.7804 52.888C88.3324 52.856 88.0324 52.836 87.8804 52.828V53.488C87.8724 53.808 88.0644 53.968 88.4564 53.968H89.0684C89.5004 53.968 89.9204 53.964 90.3284 53.956C90.7444 53.94 91.1244 53.924 91.4684 53.908C91.8124 53.884 92.0884 53.864 92.2964 53.848L92.7764 54.628C92.7764 54.876 91.9884 55 90.4124 55H88.0004ZM87.8804 51.904H91.1804V51.136C91.1804 50.976 91.1604 50.864 91.1204 50.8C91.0884 50.736 90.9844 50.696 90.8084 50.68C90.6324 50.664 90.3324 50.656 89.9084 50.656H88.4564C88.0724 50.656 87.8804 50.816 87.8804 51.136V51.904ZM93.9778 55V49.624H94.9618L95.4178 49.864C95.6258 49.752 95.8498 49.664 96.0898 49.6C96.3298 49.536 96.6338 49.504 97.0018 49.504C97.5858 49.504 98.0578 49.568 98.4178 49.696C98.7858 49.824 99.0298 49.92 99.1498 49.984L98.7298 51.028C98.6338 50.98 98.4738 50.92 98.2498 50.848C98.0338 50.768 97.7778 50.696 97.4818 50.632C97.1858 50.568 96.8618 50.536 96.5098 50.536H96.3778C95.9938 50.536 95.7418 50.612 95.6218 50.764C95.5098 50.916 95.4498 51.168 95.4418 51.52V55H93.9778ZM101.454 55C101.054 55 100.746 54.948 100.53 54.844C100.314 54.74 100.158 54.608 100.062 54.448C99.9735 54.288 99.9175 54.12 99.8935 53.944C99.8775 53.768 99.8695 53.608 99.8695 53.464V51.16C99.8695 51.04 99.8775 50.896 99.8935 50.728C99.9175 50.552 99.9735 50.38 100.062 50.212C100.158 50.044 100.314 49.904 100.53 49.792C100.754 49.68 101.062 49.624 101.454 49.624H104.034C104.562 49.624 104.974 49.676 105.27 49.78C105.574 49.876 105.786 50.036 105.906 50.26C106.034 50.484 106.098 50.784 106.098 51.16V52.936H103.998C103.278 52.936 102.69 52.92 102.234 52.888C101.786 52.856 101.486 52.836 101.334 52.828V53.488C101.326 53.808 101.518 53.968 101.91 53.968H102.522C102.954 53.968 103.374 53.964 103.782 53.956C104.198 53.94 104.578 53.924 104.922 53.908C105.266 53.884 105.542 53.864 105.75 53.848L106.23 54.628C106.23 54.876 105.442 55 103.866 55H101.454ZM101.334 51.904H104.634V51.136C104.634 50.976 104.614 50.864 104.574 50.8C104.542 50.736 104.438 50.696 104.262 50.68C104.086 50.664 103.786 50.656 103.362 50.656H101.91C101.526 50.656 101.334 50.816 101.334 51.136V51.904ZM107.431 55V49.624H108.415L108.895 49.864C109.231 49.8 109.635 49.744 110.107 49.696C110.579 49.648 111.119 49.624 111.727 49.624H112.327C112.727 49.624 113.035 49.68 113.251 49.792C113.467 49.904 113.619 50.044 113.707 50.212C113.803 50.38 113.859 50.552 113.875 50.728C113.899 50.896 113.911 51.04 113.911 51.16V55H112.447V51.136C112.447 50.816 112.255 50.656 111.871 50.656H109.255C109.103 50.656 109.003 50.672 108.955 50.704C108.915 50.728 108.895 50.8 108.895 50.92V55H107.431ZM116.758 55C116.358 55 116.05 54.948 115.834 54.844C115.618 54.74 115.462 54.608 115.366 54.448C115.278 54.288 115.222 54.12 115.198 53.944C115.182 53.768 115.174 53.608 115.174 53.464V51.16C115.174 51.04 115.182 50.896 115.198 50.728C115.222 50.552 115.278 50.38 115.366 50.212C115.462 50.044 115.618 49.904 115.834 49.792C116.058 49.68 116.366 49.624 116.758 49.624H118.426C119.426 49.624 120.134 49.652 120.55 49.708C120.974 49.756 121.186 49.808 121.186 49.864L120.946 50.776C120.722 50.76 120.438 50.744 120.094 50.728C119.75 50.704 119.378 50.688 118.978 50.68C118.586 50.664 118.202 50.656 117.826 50.656H117.214C116.83 50.656 116.638 50.816 116.638 51.136V53.488C116.63 53.808 116.822 53.968 117.214 53.968H117.826C118.258 53.968 118.678 53.964 119.086 53.956C119.502 53.94 119.882 53.924 120.226 53.908C120.57 53.884 120.846 53.864 121.054 53.848L121.534 54.628C121.534 54.876 120.746 55 119.17 55H116.758ZM123.224 48.868C122.928 48.868 122.712 48.808 122.576 48.688C122.44 48.568 122.372 48.368 122.372 48.088C122.372 47.8 122.436 47.6 122.564 47.488C122.7 47.368 122.92 47.308 123.224 47.308C123.528 47.308 123.748 47.368 123.884 47.488C124.02 47.6 124.088 47.8 124.088 48.088C124.088 48.36 124.02 48.56 123.884 48.688C123.748 48.808 123.528 48.868 123.224 48.868ZM122.492 55V49.624H123.956V55H122.492ZM127.073 55C126.465 55 126.025 54.86 125.753 54.58C125.481 54.292 125.345 53.9 125.345 53.404C125.345 52.884 125.485 52.484 125.765 52.204C126.053 51.924 126.489 51.784 127.073 51.784H127.685C128.285 51.784 128.825 51.8 129.305 51.832C129.785 51.864 130.181 51.896 130.493 51.928V51.136C130.493 51.064 130.485 50.992 130.469 50.92C130.453 50.84 130.405 50.776 130.325 50.728C130.245 50.68 130.109 50.656 129.917 50.656H129.317C128.445 50.656 127.717 50.672 127.133 50.704C126.549 50.728 126.153 50.752 125.945 50.776L125.813 49.864C125.813 49.752 126.117 49.684 126.725 49.66C127.333 49.636 128.349 49.624 129.773 49.624H130.373C130.773 49.624 131.081 49.68 131.297 49.792C131.513 49.904 131.665 50.044 131.753 50.212C131.849 50.38 131.905 50.552 131.921 50.728C131.945 50.896 131.957 51.04 131.957 51.16V55H130.973L130.505 54.76C130.169 54.816 129.765 54.872 129.293 54.928C128.821 54.976 128.281 55 127.673 55H127.073ZM127.385 53.968H130.133C130.309 53.968 130.413 53.952 130.445 53.92C130.477 53.888 130.493 53.788 130.493 53.62V52.696H127.385C127.169 52.696 127.017 52.748 126.929 52.852C126.849 52.956 126.809 53.12 126.809 53.344C126.809 53.568 126.857 53.728 126.953 53.824C127.049 53.92 127.193 53.968 127.385 53.968ZM134.805 55C134.405 55 134.097 54.948 133.881 54.844C133.665 54.74 133.509 54.608 133.413 54.448C133.325 54.288 133.269 54.12 133.245 53.944C133.229 53.768 133.221 53.608 133.221 53.464V51.16C133.221 51.04 133.229 50.896 133.245 50.728C133.269 50.552 133.325 50.38 133.413 50.212C133.509 50.044 133.665 49.904 133.881 49.792C134.105 49.68 134.413 49.624 134.805 49.624H135.417C136.153 49.624 136.745 49.64 137.193 49.672C137.649 49.696 137.997 49.724 138.237 49.756V47.392H139.701V55H138.717L138.249 54.76C137.913 54.816 137.509 54.872 137.037 54.928C136.565 54.976 136.021 55 135.405 55H134.805ZM135.261 53.968H137.865C138.033 53.968 138.137 53.948 138.177 53.908C138.217 53.868 138.237 53.768 138.237 53.608V50.74C137.965 50.724 137.621 50.708 137.205 50.692C136.789 50.668 136.345 50.656 135.873 50.656H135.261C134.877 50.656 134.685 50.816 134.685 51.136V53.488C134.685 53.808 134.877 53.968 135.261 53.968ZM142.727 55C142.191 55 141.791 54.892 141.527 54.676C141.271 54.46 141.143 54.108 141.143 53.62V51.16C141.143 51.04 141.151 50.896 141.167 50.728C141.191 50.552 141.247 50.38 141.335 50.212C141.431 50.044 141.587 49.904 141.803 49.792C142.027 49.68 142.335 49.624 142.727 49.624H146.039C146.439 49.624 146.747 49.68 146.963 49.792C147.179 49.904 147.331 50.044 147.419 50.212C147.515 50.38 147.571 50.552 147.587 50.728C147.611 50.896 147.623 51.04 147.623 51.16V53.464C147.623 53.608 147.611 53.768 147.587 53.944C147.571 54.12 147.515 54.288 147.419 54.448C147.323 54.608 147.167 54.74 146.951 54.844C146.735 54.948 146.431 55 146.039 55H142.727ZM143.183 53.968H145.583C145.975 53.968 146.171 53.808 146.171 53.488V51.136C146.171 50.816 145.975 50.656 145.583 50.656H143.183C142.799 50.656 142.607 50.816 142.607 51.136V53.488C142.607 53.808 142.799 53.968 143.183 53.968ZM148.939 55V49.624H149.923L150.379 49.864C150.587 49.752 150.811 49.664 151.051 49.6C151.291 49.536 151.595 49.504 151.963 49.504C152.547 49.504 153.019 49.568 153.379 49.696C153.747 49.824 153.991 49.92 154.111 49.984L153.691 51.028C153.595 50.98 153.435 50.92 153.211 50.848C152.995 50.768 152.739 50.696 152.443 50.632C152.147 50.568 151.823 50.536 151.471 50.536H151.339C150.955 50.536 150.703 50.612 150.583 50.764C150.471 50.916 150.411 51.168 150.403 51.52V55H148.939ZM80.184 69C79.784 69 79.476 68.948 79.26 68.844C79.044 68.74 78.888 68.608 78.792 68.448C78.704 68.288 78.648 68.12 78.624 67.944C78.608 67.768 78.6 67.608 78.6 67.464V65.16C78.6 65.04 78.608 64.896 78.624 64.728C78.648 64.552 78.704 64.38 78.792 64.212C78.888 64.044 79.044 63.904 79.26 63.792C79.484 63.68 79.792 63.624 80.184 63.624H80.796C81.532 63.624 82.124 63.64 82.572 63.672C83.028 63.696 83.376 63.724 83.616 63.756V61.392H85.08V69H84.096L83.628 68.76C83.292 68.816 82.888 68.872 82.416 68.928C81.944 68.976 81.4 69 80.784 69H80.184ZM80.64 67.968H83.244C83.412 67.968 83.516 67.948 83.556 67.908C83.596 67.868 83.616 67.768 83.616 67.608V64.74C83.344 64.724 83 64.708 82.584 64.692C82.168 64.668 81.724 64.656 81.252 64.656H80.64C80.256 64.656 80.064 64.816 80.064 65.136V67.488C80.064 67.808 80.256 67.968 80.64 67.968ZM88.1059 69C87.7059 69 87.3979 68.948 87.1819 68.844C86.9659 68.74 86.8099 68.608 86.7139 68.448C86.6259 68.288 86.5699 68.12 86.5459 67.944C86.5299 67.768 86.5219 67.608 86.5219 67.464V65.16C86.5219 65.04 86.5299 64.896 86.5459 64.728C86.5699 64.552 86.6259 64.38 86.7139 64.212C86.8099 64.044 86.9659 63.904 87.1819 63.792C87.4059 63.68 87.7139 63.624 88.1059 63.624H90.6859C91.2139 63.624 91.6259 63.676 91.9219 63.78C92.2259 63.876 92.4379 64.036 92.5579 64.26C92.6859 64.484 92.7499 64.784 92.7499 65.16V66.936H90.6499C89.9299 66.936 89.3419 66.92 88.8859 66.888C88.4379 66.856 88.1379 66.836 87.9859 66.828V67.488C87.9779 67.808 88.1699 67.968 88.5619 67.968H89.1739C89.6059 67.968 90.0259 67.964 90.4339 67.956C90.8499 67.94 91.2299 67.924 91.5739 67.908C91.9179 67.884 92.1939 67.864 92.4019 67.848L92.8819 68.628C92.8819 68.876 92.0939 69 90.5179 69H88.1059ZM87.9859 65.904H91.2859V65.136C91.2859 64.976 91.2659 64.864 91.2259 64.8C91.1939 64.736 91.0899 64.696 90.9139 64.68C90.7379 64.664 90.4379 64.656 90.0139 64.656H88.5619C88.1779 64.656 87.9859 64.816 87.9859 65.136V65.904ZM98.184 69C97.784 69 97.476 68.948 97.26 68.844C97.044 68.74 96.888 68.608 96.792 68.448C96.704 68.288 96.648 68.12 96.624 67.944C96.608 67.768 96.6 67.608 96.6 67.464V65.16C96.6 65.04 96.608 64.896 96.624 64.728C96.648 64.552 96.704 64.38 96.792 64.212C96.888 64.044 97.044 63.904 97.26 63.792C97.484 63.68 97.792 63.624 98.184 63.624H100.764C101.292 63.624 101.704 63.676 102 63.78C102.304 63.876 102.516 64.036 102.636 64.26C102.764 64.484 102.828 64.784 102.828 65.16V66.936H100.728C100.008 66.936 99.42 66.92 98.964 66.888C98.516 66.856 98.216 66.836 98.064 66.828V67.488C98.056 67.808 98.248 67.968 98.64 67.968H99.252C99.684 67.968 100.104 67.964 100.512 67.956C100.928 67.94 101.308 67.924 101.652 67.908C101.996 67.884 102.272 67.864 102.48 67.848L102.96 68.628C102.96 68.876 102.172 69 100.596 69H98.184ZM98.064 65.904H101.364V65.136C101.364 64.976 101.344 64.864 101.304 64.8C101.272 64.736 101.168 64.696 100.992 64.68C100.816 64.664 100.516 64.656 100.092 64.656H98.64C98.256 64.656 98.064 64.816 98.064 65.136V65.904ZM105.517 69C104.981 69 104.601 68.972 104.377 68.916C104.153 68.86 104.041 68.804 104.041 68.748L104.401 67.848C104.633 67.872 105.057 67.9 105.673 67.932C106.297 67.956 107.065 67.968 107.977 67.968H108.577C108.777 67.968 108.901 67.916 108.949 67.812C109.005 67.7 109.033 67.552 109.033 67.368C109.033 67.184 109.001 67.036 108.937 66.924C108.881 66.812 108.761 66.756 108.577 66.756H105.625C105.065 66.756 104.661 66.652 104.413 66.444C104.165 66.228 104.041 65.908 104.041 65.484V65.004C104.041 64.892 104.053 64.76 104.077 64.608C104.101 64.456 104.161 64.304 104.257 64.152C104.353 64 104.509 63.876 104.725 63.78C104.941 63.676 105.241 63.624 105.625 63.624H108.937C109.417 63.624 109.757 63.652 109.957 63.708C110.157 63.764 110.257 63.82 110.257 63.876L110.137 64.776C109.905 64.752 109.477 64.728 108.853 64.704C108.229 64.672 107.465 64.656 106.561 64.656H105.961C105.761 64.656 105.633 64.712 105.577 64.824C105.529 64.928 105.505 65.052 105.505 65.196C105.505 65.348 105.529 65.476 105.577 65.58C105.633 65.676 105.761 65.724 105.961 65.724H108.913C109.457 65.724 109.857 65.836 110.113 66.06C110.369 66.284 110.497 66.568 110.497 66.912V67.62C110.497 67.764 110.485 67.916 110.461 68.076C110.445 68.236 110.389 68.388 110.293 68.532C110.197 68.668 110.041 68.78 109.825 68.868C109.609 68.956 109.305 69 108.913 69H105.517ZM113.902 69C113.294 69 112.878 68.872 112.654 68.616C112.43 68.36 112.318 67.976 112.318 67.464V64.656H111.334V63.624H111.838C111.99 63.624 112.098 63.6 112.162 63.552C112.234 63.504 112.286 63.408 112.318 63.264L112.558 61.98H113.782V63.624H116.278V64.656H113.782V67.476C113.782 67.676 113.83 67.808 113.926 67.872C114.022 67.936 114.166 67.968 114.358 67.968H116.05L116.17 68.88C116.002 68.904 115.746 68.932 115.402 68.964C115.058 68.988 114.682 69 114.274 69H113.902ZM118.788 69C118.18 69 117.74 68.86 117.468 68.58C117.196 68.292 117.06 67.9 117.06 67.404C117.06 66.884 117.2 66.484 117.48 66.204C117.768 65.924 118.204 65.784 118.788 65.784H119.4C120 65.784 120.54 65.8 121.02 65.832C121.5 65.864 121.896 65.896 122.208 65.928V65.136C122.208 65.064 122.2 64.992 122.184 64.92C122.168 64.84 122.12 64.776 122.04 64.728C121.96 64.68 121.824 64.656 121.632 64.656H121.032C120.16 64.656 119.432 64.672 118.848 64.704C118.264 64.728 117.868 64.752 117.66 64.776L117.528 63.864C117.528 63.752 117.832 63.684 118.44 63.66C119.048 63.636 120.064 63.624 121.488 63.624H122.088C122.488 63.624 122.796 63.68 123.012 63.792C123.228 63.904 123.38 64.044 123.468 64.212C123.564 64.38 123.62 64.552 123.636 64.728C123.66 64.896 123.672 65.04 123.672 65.16V69H122.688L122.22 68.76C121.884 68.816 121.48 68.872 121.008 68.928C120.536 68.976 119.996 69 119.388 69H118.788ZM119.1 67.968H121.848C122.024 67.968 122.128 67.952 122.16 67.92C122.192 67.888 122.208 67.788 122.208 67.62V66.696H119.1C118.884 66.696 118.732 66.748 118.644 66.852C118.564 66.956 118.524 67.12 118.524 67.344C118.524 67.568 118.572 67.728 118.668 67.824C118.764 67.92 118.908 67.968 119.1 67.968ZM126.52 69C126.12 69 125.812 68.948 125.596 68.844C125.38 68.74 125.224 68.608 125.128 68.448C125.04 68.288 124.984 68.12 124.96 67.944C124.944 67.768 124.936 67.608 124.936 67.464V65.16C124.936 65.04 124.944 64.896 124.96 64.728C124.984 64.552 125.04 64.38 125.128 64.212C125.224 64.044 125.38 63.904 125.596 63.792C125.82 63.68 126.128 63.624 126.52 63.624H128.188C129.188 63.624 129.896 63.652 130.312 63.708C130.736 63.756 130.948 63.808 130.948 63.864L130.708 64.776C130.484 64.76 130.2 64.744 129.856 64.728C129.512 64.704 129.14 64.688 128.74 64.68C128.348 64.664 127.964 64.656 127.588 64.656H126.976C126.592 64.656 126.4 64.816 126.4 65.136V67.488C126.392 67.808 126.584 67.968 126.976 67.968H127.588C128.02 67.968 128.44 67.964 128.848 67.956C129.264 67.94 129.644 67.924 129.988 67.908C130.332 67.884 130.608 67.864 130.816 67.848L131.296 68.628C131.296 68.876 130.508 69 128.932 69H126.52ZM132.986 62.868C132.69 62.868 132.474 62.808 132.338 62.688C132.202 62.568 132.134 62.368 132.134 62.088C132.134 61.8 132.198 61.6 132.326 61.488C132.462 61.368 132.682 61.308 132.986 61.308C133.29 61.308 133.51 61.368 133.646 61.488C133.782 61.6 133.85 61.8 133.85 62.088C133.85 62.36 133.782 62.56 133.646 62.688C133.51 62.808 133.29 62.868 132.986 62.868ZM132.254 69V63.624H133.718V69H132.254ZM136.75 69C136.214 69 135.814 68.892 135.55 68.676C135.294 68.46 135.166 68.108 135.166 67.62V65.16C135.166 65.04 135.174 64.896 135.19 64.728C135.214 64.552 135.27 64.38 135.358 64.212C135.454 64.044 135.61 63.904 135.826 63.792C136.05 63.68 136.358 63.624 136.75 63.624H140.062C140.462 63.624 140.77 63.68 140.986 63.792C141.202 63.904 141.354 64.044 141.442 64.212C141.538 64.38 141.594 64.552 141.61 64.728C141.634 64.896 141.646 65.04 141.646 65.16V67.464C141.646 67.608 141.634 67.768 141.61 67.944C141.594 68.12 141.538 68.288 141.442 68.448C141.346 68.608 141.19 68.74 140.974 68.844C140.758 68.948 140.454 69 140.062 69H136.75ZM137.206 67.968H139.606C139.998 67.968 140.194 67.808 140.194 67.488V65.136C140.194 64.816 139.998 64.656 139.606 64.656H137.206C136.822 64.656 136.63 64.816 136.63 65.136V67.488C136.63 67.808 136.822 67.968 137.206 67.968ZM142.962 69V63.624H143.946L144.426 63.864C144.762 63.8 145.166 63.744 145.638 63.696C146.11 63.648 146.65 63.624 147.258 63.624H147.858C148.258 63.624 148.566 63.68 148.782 63.792C148.998 63.904 149.15 64.044 149.238 64.212C149.334 64.38 149.39 64.552 149.406 64.728C149.43 64.896 149.442 65.04 149.442 65.16V69H147.978V65.136C147.978 64.816 147.786 64.656 147.402 64.656H144.786C144.634 64.656 144.534 64.672 144.486 64.704C144.446 64.728 144.426 64.8 144.426 64.92V69H142.962ZM152.373 69C151.765 69 151.325 68.86 151.053 68.58C150.781 68.292 150.645 67.9 150.645 67.404C150.645 66.884 150.785 66.484 151.065 66.204C151.353 65.924 151.789 65.784 152.373 65.784H152.985C153.585 65.784 154.125 65.8 154.605 65.832C155.085 65.864 155.481 65.896 155.793 65.928V65.136C155.793 65.064 155.785 64.992 155.769 64.92C155.753 64.84 155.705 64.776 155.625 64.728C155.545 64.68 155.409 64.656 155.217 64.656H154.617C153.745 64.656 153.017 64.672 152.433 64.704C151.849 64.728 151.453 64.752 151.245 64.776L151.113 63.864C151.113 63.752 151.417 63.684 152.025 63.66C152.633 63.636 153.649 63.624 155.073 63.624H155.673C156.073 63.624 156.381 63.68 156.597 63.792C156.813 63.904 156.965 64.044 157.053 64.212C157.149 64.38 157.205 64.552 157.221 64.728C157.245 64.896 157.257 65.04 157.257 65.16V69H156.273L155.805 68.76C155.469 68.816 155.065 68.872 154.593 68.928C154.121 68.976 153.581 69 152.973 69H152.373ZM152.685 67.968H155.433C155.609 67.968 155.713 67.952 155.745 67.92C155.777 67.888 155.793 67.788 155.793 67.62V66.696H152.685C152.469 66.696 152.317 66.748 152.229 66.852C152.149 66.956 152.109 67.12 152.109 67.344C152.109 67.568 152.157 67.728 152.253 67.824C152.349 67.92 152.493 67.968 152.685 67.968ZM158.642 69V63.624H159.626L159.926 63.768C160.158 63.728 160.442 63.696 160.778 63.672C161.114 63.64 161.514 63.624 161.978 63.624H162.578C162.81 63.624 163.034 63.656 163.25 63.72C163.466 63.776 163.626 63.86 163.73 63.972C163.938 63.868 164.226 63.784 164.594 63.72C164.962 63.656 165.442 63.624 166.034 63.624H166.634C167.034 63.624 167.342 63.68 167.558 63.792C167.774 63.904 167.926 64.044 168.014 64.212C168.11 64.38 168.166 64.552 168.182 64.728C168.206 64.896 168.218 65.04 168.218 65.16V69H166.754V65.136C166.754 64.816 166.562 64.656 166.178 64.656H164.498C164.37 64.656 164.282 64.672 164.234 64.704C164.186 64.736 164.162 64.808 164.162 64.92V69H162.698V65.136C162.698 64.816 162.506 64.656 162.122 64.656H160.466C160.314 64.656 160.214 64.672 160.166 64.704C160.126 64.728 160.106 64.8 160.106 64.92V69H158.642ZM171.063 69C170.663 69 170.355 68.948 170.139 68.844C169.923 68.74 169.767 68.608 169.671 68.448C169.583 68.288 169.527 68.12 169.503 67.944C169.487 67.768 169.479 67.608 169.479 67.464V65.16C169.479 65.04 169.487 64.896 169.503 64.728C169.527 64.552 169.583 64.38 169.671 64.212C169.767 64.044 169.923 63.904 170.139 63.792C170.363 63.68 170.671 63.624 171.063 63.624H173.643C174.171 63.624 174.583 63.676 174.879 63.78C175.183 63.876 175.395 64.036 175.515 64.26C175.643 64.484 175.707 64.784 175.707 65.16V66.936H173.607C172.887 66.936 172.299 66.92 171.843 66.888C171.395 66.856 171.095 66.836 170.943 66.828V67.488C170.935 67.808 171.127 67.968 171.519 67.968H172.131C172.563 67.968 172.983 67.964 173.391 67.956C173.807 67.94 174.187 67.924 174.531 67.908C174.875 67.884 175.151 67.864 175.359 67.848L175.839 68.628C175.839 68.876 175.051 69 173.475 69H171.063ZM170.943 65.904H174.243V65.136C174.243 64.976 174.223 64.864 174.183 64.8C174.151 64.736 174.047 64.696 173.871 64.68C173.695 64.664 173.395 64.656 172.971 64.656H171.519C171.135 64.656 170.943 64.816 170.943 65.136V65.904ZM177.04 69V63.624H178.024L178.504 63.864C178.84 63.8 179.244 63.744 179.716 63.696C180.188 63.648 180.728 63.624 181.336 63.624H181.936C182.336 63.624 182.644 63.68 182.86 63.792C183.076 63.904 183.228 64.044 183.316 64.212C183.412 64.38 183.468 64.552 183.484 64.728C183.508 64.896 183.52 65.04 183.52 65.16V69H182.056V65.136C182.056 64.816 181.864 64.656 181.48 64.656H178.864C178.712 64.656 178.612 64.672 178.564 64.704C178.524 64.728 178.504 64.8 178.504 64.92V69H177.04ZM186.992 69C186.384 69 185.968 68.872 185.744 68.616C185.52 68.36 185.408 67.976 185.408 67.464V64.656H184.424V63.624H184.928C185.08 63.624 185.188 63.6 185.252 63.552C185.324 63.504 185.376 63.408 185.408 63.264L185.648 61.98H186.872V63.624H189.368V64.656H186.872V67.476C186.872 67.676 186.92 67.808 187.016 67.872C187.112 67.936 187.256 67.968 187.448 67.968H189.14L189.26 68.88C189.092 68.904 188.836 68.932 188.492 68.964C188.148 68.988 187.772 69 187.364 69H186.992ZM191.793 69C191.257 69 190.857 68.892 190.593 68.676C190.337 68.46 190.209 68.108 190.209 67.62V65.16C190.209 65.04 190.217 64.896 190.233 64.728C190.257 64.552 190.313 64.38 190.401 64.212C190.497 64.044 190.653 63.904 190.869 63.792C191.093 63.68 191.401 63.624 191.793 63.624H195.105C195.505 63.624 195.813 63.68 196.029 63.792C196.245 63.904 196.397 64.044 196.485 64.212C196.581 64.38 196.637 64.552 196.653 64.728C196.677 64.896 196.689 65.04 196.689 65.16V67.464C196.689 67.608 196.677 67.768 196.653 67.944C196.637 68.12 196.581 68.288 196.485 68.448C196.389 68.608 196.233 68.74 196.017 68.844C195.801 68.948 195.497 69 195.105 69H191.793ZM192.249 67.968H194.649C195.041 67.968 195.237 67.808 195.237 67.488V65.136C195.237 64.816 195.041 64.656 194.649 64.656H192.249C191.865 64.656 191.673 64.816 191.673 65.136V67.488C191.673 67.808 191.865 67.968 192.249 67.968Z" fill="#1A5B8D"/>
</svg>
