<svg width="260" height="95" viewBox="0 0 260 95" fill="none" xmlns="http://www.w3.org/2000/svg">
<rect x="0.5" y="0.5" width="259" height="94" rx="4.5" fill="#D9D9D9" stroke="black"/>
<path d="M47.664 72.392C46.32 72.392 45.4427 71.7573 45.032 70.488L41 58.84L29.576 61.36L25.936 70.544C25.712 71.0667 25.376 71.496 24.928 71.832C24.5173 72.168 23.9947 72.336 23.36 72.336C22.6133 72.336 21.96 72.0747 21.4 71.552C20.84 71.0293 20.56 70.4133 20.56 69.704C20.56 69.2187 20.6907 68.6587 20.952 68.024L23.192 62.424C22.968 62.3493 22.8 62.2747 22.688 62.2C21.7173 61.7147 21.232 60.8933 21.232 59.736C21.232 59.064 21.4187 58.4853 21.792 58C22.2027 57.5147 22.7253 57.1973 23.36 57.048L25.432 56.6L33.72 35.544C33.944 34.984 34.2987 34.5547 34.784 34.256C35.2693 33.9573 35.792 33.808 36.352 33.808C36.9493 33.808 37.472 33.9573 37.92 34.256C38.368 34.5547 38.704 35.0213 38.928 35.656L50.072 67.968C50.1093 68.0427 50.184 68.2667 50.296 68.64C50.408 68.976 50.464 69.3307 50.464 69.704C50.464 70.4133 50.2027 71.048 49.68 71.608C49.1573 72.1307 48.4853 72.392 47.664 72.392ZM39.152 53.632L36.128 44.616L31.928 55.2L39.152 53.632ZM68.3967 72.336C65.41 72.336 62.666 71.664 60.1647 70.32C57.6634 68.976 55.6847 67.0347 54.2287 64.496C52.7727 61.92 52.0447 58.9147 52.0447 55.48C52.0447 51.8587 52.8847 48.4053 54.5647 45.12C56.282 41.7973 58.4847 39.1467 61.1727 37.168C63.898 35.152 66.6794 34.144 69.5167 34.144C70.7114 34.144 71.8874 34.3307 73.0447 34.704C74.2394 35.0773 75.3034 35.544 76.2367 36.104C76.6847 35.656 77.2447 35.432 77.9167 35.432C78.6634 35.432 79.2794 35.6933 79.7647 36.216C80.25 36.7013 80.4927 37.2987 80.4927 38.008V41.592C80.4927 42.3387 80.2127 42.992 79.6527 43.552C79.13 44.112 78.4767 44.392 77.6927 44.392C76.946 44.392 76.3114 44.168 75.7887 43.72C75.3034 43.272 75.0607 42.7493 75.0607 42.152V41.76C73.6794 40.304 71.7007 39.576 69.1247 39.576C67.258 39.576 65.4287 40.3413 63.6367 41.872C61.8447 43.3653 60.3887 45.344 59.2687 47.808C58.186 50.272 57.6447 52.8293 57.6447 55.48C57.6447 57.832 58.13 59.8853 59.1007 61.64C60.0714 63.3573 61.3594 64.6827 62.9647 65.616C64.6074 66.512 66.418 66.96 68.3967 66.96C72.018 66.96 75.0047 65.4107 77.3567 62.312C77.6927 61.9013 78.0287 61.6213 78.3647 61.472C78.7007 61.2853 79.0927 61.192 79.5407 61.192C80.3247 61.192 80.978 61.4533 81.5007 61.976C82.0607 62.4613 82.3407 63.1333 82.3407 63.992C82.3407 64.6267 82.1727 65.1867 81.8367 65.672C80.306 67.8373 78.3647 69.4987 76.0127 70.656C73.698 71.776 71.1594 72.336 68.3967 72.336ZM95.1415 72.336C92.7148 72.336 90.6988 71.8507 89.0935 70.88C87.5255 69.872 86.3682 68.6027 85.6215 67.072C84.9122 65.504 84.5575 63.88 84.5575 62.2C84.5575 61.3787 84.8002 60.688 85.2855 60.128C85.8082 59.568 86.4988 59.288 87.3575 59.288C88.1415 59.288 88.7948 59.568 89.3175 60.128C89.8775 60.6507 90.1575 61.304 90.1575 62.088C90.1575 65.1867 91.8188 66.736 95.1415 66.736C96.6722 66.736 97.8295 66.3813 98.6135 65.672C99.3975 64.9253 99.7895 63.9547 99.7895 62.76V40.584H94.6935C93.9095 40.584 93.2375 40.3227 92.6775 39.8C92.1175 39.24 91.8375 38.568 91.8375 37.784C91.8375 37.0373 92.1175 36.4027 92.6775 35.88C93.2375 35.32 93.9095 35.04 94.6935 35.04H105.39C106.136 35.04 106.771 35.32 107.294 35.88C107.854 36.4027 108.134 37.0373 108.134 37.784C108.134 38.5307 107.872 39.184 107.35 39.744C106.864 40.2667 106.267 40.528 105.558 40.528H105.39V62.76C105.39 65.56 104.456 67.856 102.59 69.648C100.76 71.44 98.2775 72.336 95.1415 72.336ZM112.597 69.368C112.597 66.344 113.064 63.8053 113.997 61.752C114.93 59.6613 116.088 57.9813 117.469 56.712C118.85 55.4053 120.549 54.1173 122.565 52.848C124.357 51.6533 125.682 50.72 126.541 50.048C127.437 49.376 128.165 48.6293 128.725 47.808C129.322 46.9493 129.621 45.9787 129.621 44.896C129.621 43.5893 129.098 42.5253 128.053 41.704C127.008 40.8453 125.701 40.416 124.133 40.416C122.602 40.416 121.24 40.808 120.045 41.592C118.888 42.376 118.01 43.1227 117.413 43.832C117.04 44.2427 116.685 44.56 116.349 44.784C116.05 44.9707 115.621 45.064 115.061 45.064C114.277 45.064 113.624 44.784 113.101 44.224C112.616 43.664 112.373 43.0293 112.373 42.32C112.373 41.872 112.485 41.4427 112.709 41.032C112.97 40.6213 113.456 40.08 114.165 39.408C115.397 38.2133 116.853 37.1867 118.533 36.328C120.213 35.4693 122.08 35.04 124.133 35.04C126.224 35.04 128.09 35.488 129.733 36.384C131.376 37.2427 132.664 38.4373 133.597 39.968C134.53 41.4613 134.997 43.104 134.997 44.896C134.997 46.8373 134.568 48.5547 133.709 50.048C132.85 51.504 131.805 52.7547 130.573 53.8C129.378 54.808 127.829 55.9093 125.925 57.104C123.685 58.56 121.912 59.9787 120.605 61.36C119.298 62.7413 118.477 64.5147 118.141 66.68H132.757C133.466 66.68 134.082 66.9413 134.605 67.464C135.165 67.9867 135.445 68.6213 135.445 69.368C135.445 70.0773 135.165 70.6933 134.605 71.216C134.082 71.7387 133.466 72 132.757 72H112.597V69.368ZM156.28 72.336C153.293 72.336 150.549 71.664 148.048 70.32C145.546 68.976 143.568 67.0347 142.112 64.496C140.656 61.92 139.928 58.9147 139.928 55.48C139.928 51.8587 140.768 48.4053 142.448 45.12C144.165 41.7973 146.368 39.1467 149.056 37.168C151.781 35.152 154.562 34.144 157.4 34.144C158.594 34.144 159.77 34.3307 160.928 34.704C162.122 35.0773 163.186 35.544 164.12 36.104C164.568 35.656 165.128 35.432 165.8 35.432C166.546 35.432 167.162 35.6933 167.648 36.216C168.133 36.7013 168.376 37.2987 168.376 38.008V41.592C168.376 42.3387 168.096 42.992 167.536 43.552C167.013 44.112 166.36 44.392 165.576 44.392C164.829 44.392 164.194 44.168 163.672 43.72C163.186 43.272 162.944 42.7493 162.944 42.152V41.76C161.562 40.304 159.584 39.576 157.008 39.576C155.141 39.576 153.312 40.3413 151.52 41.872C149.728 43.3653 148.272 45.344 147.152 47.808C146.069 50.272 145.528 52.8293 145.528 55.48C145.528 57.832 146.013 59.8853 146.984 61.64C147.954 63.3573 149.242 64.6827 150.848 65.616C152.49 66.512 154.301 66.96 156.28 66.96C159.901 66.96 162.888 65.4107 165.24 62.312C165.576 61.9013 165.912 61.6213 166.248 61.472C166.584 61.2853 166.976 61.192 167.424 61.192C168.208 61.192 168.861 61.4533 169.384 61.976C169.944 62.4613 170.224 63.1333 170.224 63.992C170.224 64.6267 170.056 65.1867 169.72 65.672C168.189 67.8373 166.248 69.4987 163.896 70.656C161.581 71.776 159.042 72.336 156.28 72.336ZM185.376 72.336C183.435 72.336 181.662 71.9627 180.056 71.216C178.488 70.4693 177.2 69.6107 176.192 68.64C175.222 67.6693 174.568 66.8107 174.232 66.064C174.046 65.616 173.952 65.1867 173.952 64.776C173.952 64.0667 174.214 63.4507 174.736 62.928C175.296 62.368 175.931 62.088 176.64 62.088C177.238 62.088 177.686 62.2 177.984 62.424C178.283 62.6107 178.6 62.9467 178.936 63.432C180.542 65.7467 182.688 66.904 185.376 66.904C186.683 66.904 187.915 66.512 189.072 65.728C190.23 64.9067 191.144 63.824 191.816 62.48C192.526 61.0987 192.88 59.6053 192.88 58C192.88 55.9467 192.32 54.1733 191.2 52.68C190.118 51.1867 188.531 50.44 186.44 50.44C184.126 50.44 182.035 51.3733 180.168 53.24C179.832 53.576 179.478 53.8373 179.104 54.024C178.768 54.1733 178.339 54.248 177.816 54.248C177.032 54.248 176.398 53.968 175.912 53.408C175.427 52.848 175.222 52.1387 175.296 51.28L176.64 37.784C176.678 37.112 176.958 36.552 177.48 36.104C178.04 35.6187 178.656 35.376 179.328 35.376H194.168C194.878 35.376 195.494 35.656 196.016 36.216C196.576 36.7387 196.856 37.3547 196.856 38.064C196.856 38.848 196.576 39.5013 196.016 40.024C195.494 40.5467 194.878 40.808 194.168 40.808H181.792L181.232 46.072C182.838 45.4 184.574 45.064 186.44 45.064C188.68 45.064 190.696 45.6053 192.488 46.688C194.28 47.7707 195.68 49.3013 196.688 51.28C197.734 53.2213 198.256 55.4613 198.256 58C198.256 60.576 197.659 62.9653 196.464 65.168C195.27 67.3707 193.664 69.1253 191.648 70.432C189.67 71.7013 187.579 72.336 185.376 72.336ZM215.126 72.336C213.185 72.336 211.412 71.9627 209.806 71.216C208.238 70.4693 206.95 69.6107 205.942 68.64C204.972 67.6693 204.318 66.8107 203.982 66.064C203.796 65.616 203.702 65.1867 203.702 64.776C203.702 64.0667 203.964 63.4507 204.486 62.928C205.046 62.368 205.681 62.088 206.39 62.088C206.988 62.088 207.436 62.2 207.734 62.424C208.033 62.6107 208.35 62.9467 208.686 63.432C210.292 65.7467 212.438 66.904 215.126 66.904C216.433 66.904 217.665 66.512 218.822 65.728C219.98 64.9067 220.894 63.824 221.566 62.48C222.276 61.0987 222.63 59.6053 222.63 58C222.63 55.9467 222.07 54.1733 220.95 52.68C219.868 51.1867 218.281 50.44 216.19 50.44C213.876 50.44 211.785 51.3733 209.918 53.24C209.582 53.576 209.228 53.8373 208.854 54.024C208.518 54.1733 208.089 54.248 207.566 54.248C206.782 54.248 206.148 53.968 205.662 53.408C205.177 52.848 204.972 52.1387 205.046 51.28L206.39 37.784C206.428 37.112 206.708 36.552 207.23 36.104C207.79 35.6187 208.406 35.376 209.078 35.376H223.918C224.628 35.376 225.244 35.656 225.766 36.216C226.326 36.7387 226.606 37.3547 226.606 38.064C226.606 38.848 226.326 39.5013 225.766 40.024C225.244 40.5467 224.628 40.808 223.918 40.808H211.542L210.982 46.072C212.588 45.4 214.324 45.064 216.19 45.064C218.43 45.064 220.446 45.6053 222.238 46.688C224.03 47.7707 225.43 49.3013 226.438 51.28C227.484 53.2213 228.006 55.4613 228.006 58C228.006 60.576 227.409 62.9653 226.214 65.168C225.02 67.3707 223.414 69.1253 221.398 70.432C219.42 71.7013 217.329 72.336 215.126 72.336Z" fill="black"/>
<path d="M0 5C0 2.23858 2.23858 0 5 0H255C257.761 0 260 2.23858 260 5V20H0V5Z" fill="#1A5B8D"/>
<path d="M108.862 15.112C108.563 15.112 108.353 15.0513 108.232 14.93C108.111 14.8087 108.05 14.6127 108.05 14.342V6.306C108.05 6.11933 108.12 5.96067 108.26 5.83C108.4 5.69 108.559 5.62 108.736 5.62H111.116C111.788 5.62 112.362 5.73667 112.838 5.97C113.323 6.194 113.687 6.49733 113.93 6.88C114.173 7.25333 114.294 7.65933 114.294 8.098C114.294 8.798 114.079 9.38133 113.65 9.848C114.126 10.072 114.481 10.3707 114.714 10.744C114.947 11.108 115.064 11.5607 115.064 12.102C115.064 13.0727 114.546 13.8193 113.51 14.342C112.474 14.8553 110.925 15.112 108.862 15.112ZM111.592 9.414C111.975 9.414 112.287 9.28333 112.53 9.022C112.782 8.75133 112.908 8.448 112.908 8.112C112.908 7.78533 112.749 7.51467 112.432 7.3C112.124 7.076 111.685 6.964 111.116 6.964H109.45V9.414H111.592ZM109.45 13.782C110.691 13.7633 111.704 13.614 112.488 13.334C113.281 13.054 113.678 12.6433 113.678 12.102C113.678 11.7007 113.496 11.3787 113.132 11.136C112.768 10.884 112.255 10.758 111.592 10.758H109.45V13.782ZM117.295 15.084C117.099 15.084 116.935 15.0187 116.805 14.888C116.674 14.7573 116.609 14.594 116.609 14.398V6.376C116.609 6.124 116.632 5.942 116.679 5.83C116.735 5.718 116.837 5.64333 116.987 5.606C117.145 5.55933 117.393 5.536 117.729 5.536H118.303C119.871 5.536 121.079 5.79733 121.929 6.32C122.778 6.84267 123.203 7.57533 123.203 8.518C123.203 9.71267 122.512 10.618 121.131 11.234C122.12 12.018 122.895 12.9653 123.455 14.076C123.501 14.1693 123.525 14.2767 123.525 14.398C123.525 14.5847 123.459 14.748 123.329 14.888C123.207 15.0187 123.044 15.084 122.839 15.084C122.577 15.084 122.372 14.9627 122.223 14.72C120.991 12.76 119.889 11.78 118.919 11.78C118.629 11.78 118.317 11.808 117.981 11.864V14.398C117.981 14.594 117.911 14.7573 117.771 14.888C117.64 15.0187 117.481 15.084 117.295 15.084ZM117.981 10.576C118.989 10.5107 119.88 10.3053 120.655 9.96C121.429 9.61467 121.817 9.134 121.817 8.518C121.817 7.986 121.504 7.58 120.879 7.3C120.263 7.02 119.39 6.88 118.261 6.88H117.981V10.576ZM130.637 15.098C130.301 15.098 130.081 14.9393 129.979 14.622L128.971 11.71L126.115 12.34L125.205 14.636C125.149 14.7667 125.065 14.874 124.953 14.958C124.85 15.042 124.719 15.084 124.561 15.084C124.374 15.084 124.211 15.0187 124.071 14.888C123.931 14.7573 123.861 14.6033 123.861 14.426C123.861 14.3047 123.893 14.1647 123.959 14.006L124.519 12.606C124.463 12.5873 124.421 12.5687 124.393 12.55C124.15 12.4287 124.029 12.2233 124.029 11.934C124.029 11.766 124.075 11.6213 124.169 11.5C124.271 11.3787 124.402 11.2993 124.561 11.262L125.079 11.15L127.151 5.886C127.207 5.746 127.295 5.63867 127.417 5.564C127.538 5.48933 127.669 5.452 127.809 5.452C127.958 5.452 128.089 5.48933 128.201 5.564C128.313 5.63867 128.397 5.75533 128.453 5.914L131.239 13.992C131.248 14.0107 131.267 14.0667 131.295 14.16C131.323 14.244 131.337 14.3327 131.337 14.426C131.337 14.6033 131.271 14.762 131.141 14.902C131.01 15.0327 130.842 15.098 130.637 15.098ZM128.509 10.408L127.753 8.154L126.703 10.8L128.509 10.408ZM135.225 15.084C134.423 15.084 133.723 14.9067 133.125 14.552C132.537 14.1973 132.122 13.7633 131.879 13.25C131.777 13.026 131.725 12.844 131.725 12.704C131.725 12.508 131.795 12.3447 131.935 12.214C132.075 12.074 132.243 12.004 132.439 12.004C132.607 12.004 132.752 12.0507 132.873 12.144C132.995 12.2373 133.083 12.3633 133.139 12.522C133.289 12.9233 133.564 13.2313 133.965 13.446C134.367 13.6607 134.796 13.768 135.253 13.768C135.832 13.768 136.308 13.6327 136.681 13.362C137.064 13.082 137.255 12.7413 137.255 12.34C137.255 12.032 137.101 11.752 136.793 11.5C136.495 11.248 135.981 11.0193 135.253 10.814C134.311 10.5527 133.569 10.2167 133.027 9.806C132.486 9.386 132.215 8.812 132.215 8.084C132.215 7.58933 132.346 7.15067 132.607 6.768C132.878 6.376 133.261 6.07267 133.755 5.858C134.25 5.64333 134.829 5.536 135.491 5.536C136.443 5.536 137.19 5.72267 137.731 6.096C138.282 6.46933 138.557 6.96867 138.557 7.594C138.557 7.79933 138.492 7.972 138.361 8.112C138.231 8.252 138.067 8.322 137.871 8.322C137.703 8.322 137.559 8.266 137.437 8.154C137.316 8.042 137.246 7.902 137.227 7.734C137.19 7.47267 137.017 7.258 136.709 7.09C136.401 6.91267 135.995 6.824 135.491 6.824C134.866 6.824 134.39 6.93133 134.063 7.146C133.737 7.35133 133.573 7.63133 133.573 7.986C133.573 8.31267 133.741 8.588 134.077 8.812C134.413 9.036 134.964 9.26 135.729 9.484C136.672 9.75467 137.386 10.1187 137.871 10.576C138.357 11.0333 138.599 11.598 138.599 12.27C138.599 12.7927 138.445 13.2687 138.137 13.698C137.829 14.1273 137.414 14.468 136.891 14.72C136.378 14.9627 135.823 15.084 135.225 15.084ZM140.236 15C140.04 15 139.872 14.9347 139.732 14.804C139.601 14.664 139.536 14.496 139.536 14.3C139.536 14.104 139.601 13.9407 139.732 13.81C139.872 13.67 140.04 13.6 140.236 13.6H141.216V7.02H140.236C140.04 7.02 139.872 6.95 139.732 6.81C139.601 6.67 139.536 6.502 139.536 6.306C139.536 6.11 139.601 5.94667 139.732 5.816C139.872 5.68533 140.04 5.62 140.236 5.62H143.582C143.778 5.62 143.941 5.68533 144.072 5.816C144.203 5.94667 144.268 6.11 144.268 6.306C144.268 6.502 144.203 6.67 144.072 6.81C143.941 6.95 143.778 7.02 143.582 7.02H142.616V13.6H143.582C143.787 13.6 143.951 13.67 144.072 13.81C144.203 13.9407 144.268 14.104 144.268 14.3C144.268 14.496 144.203 14.664 144.072 14.804C143.941 14.9347 143.778 15 143.582 15H140.236ZM146.498 15.07C146.32 15.0793 146.162 15.014 146.022 14.874C145.882 14.734 145.812 14.5753 145.812 14.398V6.236C145.812 6.04933 145.877 5.89067 146.008 5.76C146.148 5.62 146.316 5.55 146.512 5.55C146.698 5.55 146.857 5.62 146.988 5.76C147.128 5.89067 147.198 6.04933 147.198 6.236V13.656L151.006 13.404C151.202 13.3947 151.365 13.4553 151.496 13.586C151.626 13.7073 151.692 13.8707 151.692 14.076C151.692 14.244 151.626 14.4027 151.496 14.552C151.374 14.692 151.23 14.7667 151.062 14.776L146.498 15.07Z" fill="white"/>
</svg>
