<svg width="260" height="95" viewBox="0 0 260 95" fill="none" xmlns="http://www.w3.org/2000/svg">
<rect x="1" y="1" width="258" height="93" rx="4" fill="#D9D9D9" stroke="black" stroke-width="2"/>
<path d="M47.664 72.392C46.32 72.392 45.4427 71.7573 45.032 70.488L41 58.84L29.576 61.36L25.936 70.544C25.712 71.0667 25.376 71.496 24.928 71.832C24.5173 72.168 23.9947 72.336 23.36 72.336C22.6133 72.336 21.96 72.0747 21.4 71.552C20.84 71.0293 20.56 70.4133 20.56 69.704C20.56 69.2187 20.6907 68.6587 20.952 68.024L23.192 62.424C22.968 62.3493 22.8 62.2747 22.688 62.2C21.7173 61.7147 21.232 60.8933 21.232 59.736C21.232 59.064 21.4187 58.4853 21.792 58C22.2027 57.5147 22.7253 57.1973 23.36 57.048L25.432 56.6L33.72 35.544C33.944 34.984 34.2987 34.5547 34.784 34.256C35.2693 33.9573 35.792 33.808 36.352 33.808C36.9493 33.808 37.472 33.9573 37.92 34.256C38.368 34.5547 38.704 35.0213 38.928 35.656L50.072 67.968C50.1093 68.0427 50.184 68.2667 50.296 68.64C50.408 68.976 50.464 69.3307 50.464 69.704C50.464 70.4133 50.2027 71.048 49.68 71.608C49.1573 72.1307 48.4853 72.392 47.664 72.392ZM39.152 53.632L36.128 44.616L31.928 55.2L39.152 53.632ZM58.3464 72.448C57.1518 72.448 56.3118 72.2053 55.8264 71.72C55.3411 71.2347 55.0984 70.4507 55.0984 69.368V37.224C55.0984 36.4773 55.3784 35.8427 55.9384 35.32C56.4984 34.76 57.1331 34.48 57.8424 34.48H67.3624C70.0504 34.48 72.3464 34.9467 74.2504 35.88C76.1918 36.776 77.6478 37.9893 78.6184 39.52C79.5891 41.0133 80.0744 42.6373 80.0744 44.392C80.0744 47.192 79.2158 49.5253 77.4984 51.392C79.4024 52.288 80.8211 53.4827 81.7544 54.976C82.6878 56.432 83.1544 58.2427 83.1544 60.408C83.1544 64.2907 81.0824 67.2773 76.9384 69.368C72.7944 71.4213 66.5971 72.448 58.3464 72.448ZM69.2664 49.656C70.7971 49.656 72.0478 49.1333 73.0184 48.088C74.0264 47.0053 74.5304 45.792 74.5304 44.448C74.5304 43.1413 73.8958 42.0587 72.6264 41.2C71.3944 40.304 69.6398 39.856 67.3624 39.856H60.6984V49.656H69.2664ZM60.6984 67.128C65.6638 67.0533 69.7144 66.456 72.8504 65.336C76.0238 64.216 77.6104 62.5733 77.6104 60.408C77.6104 58.8027 76.8824 57.5147 75.4264 56.544C73.9704 55.536 71.9171 55.032 69.2664 55.032H60.6984V67.128ZM103.725 72.336C100.738 72.336 97.9941 71.664 95.4928 70.32C92.9915 68.976 91.0128 67.0347 89.5568 64.496C88.1008 61.92 87.3728 58.9147 87.3728 55.48C87.3728 51.8587 88.2128 48.4053 89.8928 45.12C91.6101 41.7973 93.8128 39.1467 96.5008 37.168C99.2261 35.152 102.007 34.144 104.845 34.144C106.039 34.144 107.215 34.3307 108.373 34.704C109.567 35.0773 110.631 35.544 111.565 36.104C112.013 35.656 112.573 35.432 113.245 35.432C113.991 35.432 114.607 35.6933 115.093 36.216C115.578 36.7013 115.821 37.2987 115.821 38.008V41.592C115.821 42.3387 115.541 42.992 114.981 43.552C114.458 44.112 113.805 44.392 113.021 44.392C112.274 44.392 111.639 44.168 111.117 43.72C110.631 43.272 110.389 42.7493 110.389 42.152V41.76C109.007 40.304 107.029 39.576 104.453 39.576C102.586 39.576 100.757 40.3413 98.9648 41.872C97.1728 43.3653 95.7168 45.344 94.5968 47.808C93.5141 50.272 92.9728 52.8293 92.9728 55.48C92.9728 57.832 93.4581 59.8853 94.4288 61.64C95.3995 63.3573 96.6875 64.6827 98.2928 65.616C99.9355 66.512 101.746 66.96 103.725 66.96C107.346 66.96 110.333 65.4107 112.685 62.312C113.021 61.9013 113.357 61.6213 113.693 61.472C114.029 61.2853 114.421 61.192 114.869 61.192C115.653 61.192 116.306 61.4533 116.829 61.976C117.389 62.4613 117.669 63.1333 117.669 63.992C117.669 64.6267 117.501 65.1867 117.165 65.672C115.634 67.8373 113.693 69.4987 111.341 70.656C109.026 71.776 106.487 72.336 103.725 72.336ZM134.222 72.336C131.795 72.336 129.592 71.5333 127.614 69.928C125.672 68.2853 124.142 66.1013 123.022 63.376C121.939 60.6507 121.398 57.72 121.398 54.584C121.398 51.1867 122.014 47.9947 123.246 45.008C124.515 41.984 126.214 39.576 128.342 37.784C130.507 35.9547 132.859 35.04 135.398 35.04C137.824 35.04 140.008 35.8613 141.95 37.504C143.891 39.1093 145.403 41.2747 146.486 44C147.606 46.7253 148.166 49.6747 148.166 52.848C148.166 56.2827 147.531 59.4933 146.262 62.48C145.03 65.4667 143.331 67.856 141.166 69.648C139.038 71.44 136.723 72.336 134.222 72.336ZM134.222 66.96C135.752 66.96 137.171 66.3253 138.478 65.056C139.822 63.7867 140.886 62.088 141.67 59.96C142.491 57.7947 142.902 55.4613 142.902 52.96C142.902 50.7573 142.566 48.704 141.894 46.8C141.259 44.8587 140.363 43.3093 139.206 42.152C138.048 40.9947 136.779 40.416 135.398 40.416C133.867 40.416 132.43 41.0507 131.086 42.32C129.742 43.5893 128.678 45.3067 127.894 47.472C127.11 49.6373 126.718 51.9707 126.718 54.472C126.718 56.6373 127.035 58.6907 127.67 60.632C128.304 62.536 129.2 64.0667 130.358 65.224C131.515 66.3813 132.803 66.96 134.222 66.96ZM163.861 72.672C162.554 72.672 161.229 72.5413 159.885 72.28C158.541 72.056 157.626 71.8693 157.141 71.72C156.543 71.5333 156.039 71.1787 155.629 70.656C155.218 70.1333 155.013 69.5733 155.013 68.976V37.224C155.013 36.44 155.274 35.7867 155.797 35.264C156.357 34.7413 157.029 34.48 157.812 34.48C161.583 34.48 165.391 35.04 169.237 36.16C173.082 37.28 176.405 39.3707 179.205 42.432C182.042 45.4933 183.461 49.7307 183.461 55.144C183.461 59.064 182.602 62.3493 180.885 65C179.167 67.6133 176.834 69.5547 173.885 70.824C170.935 72.056 167.594 72.672 163.861 72.672ZM163.861 67.072C168.229 67.072 171.645 66.064 174.109 64.048C176.61 62.032 177.861 59.064 177.861 55.144C177.861 50.2907 176.274 46.688 173.101 44.336C169.965 41.984 165.802 40.6027 160.613 40.192V66.736C161.882 66.96 162.965 67.072 163.861 67.072ZM191.695 72C190.911 72 190.258 71.7387 189.735 71.216C189.25 70.6933 189.007 70.0587 189.007 69.312C189.007 68.5653 189.25 67.9307 189.735 67.408C190.258 66.8853 190.911 66.624 191.695 66.624H194.943L195.335 44.728L193.487 46.688C192.964 47.2107 192.311 47.472 191.527 47.472C190.78 47.472 190.146 47.2107 189.623 46.688C189.1 46.1653 188.839 45.5307 188.839 44.784C188.839 44.1493 189.082 43.552 189.567 42.992L196.119 35.88C196.343 35.656 196.642 35.4693 197.015 35.32C197.388 35.1333 197.724 35.04 198.023 35.04C198.844 35.04 199.498 35.32 199.983 35.88C200.506 36.4027 200.767 37.0187 200.767 37.728L200.375 66.624H202.671C203.53 66.624 204.202 66.8853 204.687 67.408C205.21 67.9307 205.471 68.5653 205.471 69.312C205.471 70.0587 205.191 70.6933 204.631 71.216C204.108 71.7387 203.492 72 202.783 72H191.695ZM210.488 69.368C210.488 66.344 210.954 63.8053 211.888 61.752C212.821 59.6613 213.978 57.9813 215.36 56.712C216.741 55.4053 218.44 54.1173 220.456 52.848C222.248 51.6533 223.573 50.72 224.432 50.048C225.328 49.376 226.056 48.6293 226.616 47.808C227.213 46.9493 227.512 45.9787 227.512 44.896C227.512 43.5893 226.989 42.5253 225.944 41.704C224.898 40.8453 223.592 40.416 222.024 40.416C220.493 40.416 219.13 40.808 217.936 41.592C216.778 42.376 215.901 43.1227 215.304 43.832C214.93 44.2427 214.576 44.56 214.24 44.784C213.941 44.9707 213.512 45.064 212.952 45.064C212.168 45.064 211.514 44.784 210.992 44.224C210.506 43.664 210.264 43.0293 210.264 42.32C210.264 41.872 210.376 41.4427 210.6 41.032C210.861 40.6213 211.346 40.08 212.056 39.408C213.288 38.2133 214.744 37.1867 216.424 36.328C218.104 35.4693 219.97 35.04 222.024 35.04C224.114 35.04 225.981 35.488 227.624 36.384C229.266 37.2427 230.554 38.4373 231.488 39.968C232.421 41.4613 232.888 43.104 232.888 44.896C232.888 46.8373 232.458 48.5547 231.6 50.048C230.741 51.504 229.696 52.7547 228.464 53.8C227.269 54.808 225.72 55.9093 223.816 57.104C221.576 58.56 219.802 59.9787 218.496 61.36C217.189 62.7413 216.368 64.5147 216.032 66.68H230.648C231.357 66.68 231.973 66.9413 232.496 67.464C233.056 67.9867 233.336 68.6213 233.336 69.368C233.336 70.0773 233.056 70.6933 232.496 71.216C231.973 71.7387 231.357 72 230.648 72H210.488V69.368Z" fill="black"/>
<mask id="path-3-inside-1_51_114" fill="white">
<path d="M0 5C0 2.23858 2.23858 0 5 0H255C257.761 0 260 2.23858 260 5V20H0V5Z"/>
</mask>
<path d="M0 5C0 2.23858 2.23858 0 5 0H255C257.761 0 260 2.23858 260 5V20H0V5Z" fill="#1A5B8D"/>
<path d="M-2 5C-2 1.13401 1.13401 -2 5 -2H255C258.866 -2 262 1.13401 262 5H258C258 3.34315 256.657 2 255 2H5C3.34315 2 2 3.34315 2 5H-2ZM262 21H-2L2 19H258L262 21ZM-2 21V5C-2 1.13401 1.13401 -2 5 -2V2C3.34315 2 2 3.34315 2 5V19L-2 21ZM255 -2C258.866 -2 262 1.13401 262 5V21L258 19V5C258 3.34315 256.657 2 255 2V-2Z" fill="black" mask="url(#path-3-inside-1_51_114)"/>
<path d="M108.862 15.112C108.563 15.112 108.353 15.0513 108.232 14.93C108.111 14.8087 108.05 14.6127 108.05 14.342V6.306C108.05 6.11933 108.12 5.96067 108.26 5.83C108.4 5.69 108.559 5.62 108.736 5.62H111.116C111.788 5.62 112.362 5.73667 112.838 5.97C113.323 6.194 113.687 6.49733 113.93 6.88C114.173 7.25333 114.294 7.65933 114.294 8.098C114.294 8.798 114.079 9.38133 113.65 9.848C114.126 10.072 114.481 10.3707 114.714 10.744C114.947 11.108 115.064 11.5607 115.064 12.102C115.064 13.0727 114.546 13.8193 113.51 14.342C112.474 14.8553 110.925 15.112 108.862 15.112ZM111.592 9.414C111.975 9.414 112.287 9.28333 112.53 9.022C112.782 8.75133 112.908 8.448 112.908 8.112C112.908 7.78533 112.749 7.51467 112.432 7.3C112.124 7.076 111.685 6.964 111.116 6.964H109.45V9.414H111.592ZM109.45 13.782C110.691 13.7633 111.704 13.614 112.488 13.334C113.281 13.054 113.678 12.6433 113.678 12.102C113.678 11.7007 113.496 11.3787 113.132 11.136C112.768 10.884 112.255 10.758 111.592 10.758H109.45V13.782ZM117.295 15.084C117.099 15.084 116.935 15.0187 116.805 14.888C116.674 14.7573 116.609 14.594 116.609 14.398V6.376C116.609 6.124 116.632 5.942 116.679 5.83C116.735 5.718 116.837 5.64333 116.987 5.606C117.145 5.55933 117.393 5.536 117.729 5.536H118.303C119.871 5.536 121.079 5.79733 121.929 6.32C122.778 6.84267 123.203 7.57533 123.203 8.518C123.203 9.71267 122.512 10.618 121.131 11.234C122.12 12.018 122.895 12.9653 123.455 14.076C123.501 14.1693 123.525 14.2767 123.525 14.398C123.525 14.5847 123.459 14.748 123.329 14.888C123.207 15.0187 123.044 15.084 122.839 15.084C122.577 15.084 122.372 14.9627 122.223 14.72C120.991 12.76 119.889 11.78 118.919 11.78C118.629 11.78 118.317 11.808 117.981 11.864V14.398C117.981 14.594 117.911 14.7573 117.771 14.888C117.64 15.0187 117.481 15.084 117.295 15.084ZM117.981 10.576C118.989 10.5107 119.88 10.3053 120.655 9.96C121.429 9.61467 121.817 9.134 121.817 8.518C121.817 7.986 121.504 7.58 120.879 7.3C120.263 7.02 119.39 6.88 118.261 6.88H117.981V10.576ZM130.637 15.098C130.301 15.098 130.081 14.9393 129.979 14.622L128.971 11.71L126.115 12.34L125.205 14.636C125.149 14.7667 125.065 14.874 124.953 14.958C124.85 15.042 124.719 15.084 124.561 15.084C124.374 15.084 124.211 15.0187 124.071 14.888C123.931 14.7573 123.861 14.6033 123.861 14.426C123.861 14.3047 123.893 14.1647 123.959 14.006L124.519 12.606C124.463 12.5873 124.421 12.5687 124.393 12.55C124.15 12.4287 124.029 12.2233 124.029 11.934C124.029 11.766 124.075 11.6213 124.169 11.5C124.271 11.3787 124.402 11.2993 124.561 11.262L125.079 11.15L127.151 5.886C127.207 5.746 127.295 5.63867 127.417 5.564C127.538 5.48933 127.669 5.452 127.809 5.452C127.958 5.452 128.089 5.48933 128.201 5.564C128.313 5.63867 128.397 5.75533 128.453 5.914L131.239 13.992C131.248 14.0107 131.267 14.0667 131.295 14.16C131.323 14.244 131.337 14.3327 131.337 14.426C131.337 14.6033 131.271 14.762 131.141 14.902C131.01 15.0327 130.842 15.098 130.637 15.098ZM128.509 10.408L127.753 8.154L126.703 10.8L128.509 10.408ZM135.225 15.084C134.423 15.084 133.723 14.9067 133.125 14.552C132.537 14.1973 132.122 13.7633 131.879 13.25C131.777 13.026 131.725 12.844 131.725 12.704C131.725 12.508 131.795 12.3447 131.935 12.214C132.075 12.074 132.243 12.004 132.439 12.004C132.607 12.004 132.752 12.0507 132.873 12.144C132.995 12.2373 133.083 12.3633 133.139 12.522C133.289 12.9233 133.564 13.2313 133.965 13.446C134.367 13.6607 134.796 13.768 135.253 13.768C135.832 13.768 136.308 13.6327 136.681 13.362C137.064 13.082 137.255 12.7413 137.255 12.34C137.255 12.032 137.101 11.752 136.793 11.5C136.495 11.248 135.981 11.0193 135.253 10.814C134.311 10.5527 133.569 10.2167 133.027 9.806C132.486 9.386 132.215 8.812 132.215 8.084C132.215 7.58933 132.346 7.15067 132.607 6.768C132.878 6.376 133.261 6.07267 133.755 5.858C134.25 5.64333 134.829 5.536 135.491 5.536C136.443 5.536 137.19 5.72267 137.731 6.096C138.282 6.46933 138.557 6.96867 138.557 7.594C138.557 7.79933 138.492 7.972 138.361 8.112C138.231 8.252 138.067 8.322 137.871 8.322C137.703 8.322 137.559 8.266 137.437 8.154C137.316 8.042 137.246 7.902 137.227 7.734C137.19 7.47267 137.017 7.258 136.709 7.09C136.401 6.91267 135.995 6.824 135.491 6.824C134.866 6.824 134.39 6.93133 134.063 7.146C133.737 7.35133 133.573 7.63133 133.573 7.986C133.573 8.31267 133.741 8.588 134.077 8.812C134.413 9.036 134.964 9.26 135.729 9.484C136.672 9.75467 137.386 10.1187 137.871 10.576C138.357 11.0333 138.599 11.598 138.599 12.27C138.599 12.7927 138.445 13.2687 138.137 13.698C137.829 14.1273 137.414 14.468 136.891 14.72C136.378 14.9627 135.823 15.084 135.225 15.084ZM140.236 15C140.04 15 139.872 14.9347 139.732 14.804C139.601 14.664 139.536 14.496 139.536 14.3C139.536 14.104 139.601 13.9407 139.732 13.81C139.872 13.67 140.04 13.6 140.236 13.6H141.216V7.02H140.236C140.04 7.02 139.872 6.95 139.732 6.81C139.601 6.67 139.536 6.502 139.536 6.306C139.536 6.11 139.601 5.94667 139.732 5.816C139.872 5.68533 140.04 5.62 140.236 5.62H143.582C143.778 5.62 143.941 5.68533 144.072 5.816C144.203 5.94667 144.268 6.11 144.268 6.306C144.268 6.502 144.203 6.67 144.072 6.81C143.941 6.95 143.778 7.02 143.582 7.02H142.616V13.6H143.582C143.787 13.6 143.951 13.67 144.072 13.81C144.203 13.9407 144.268 14.104 144.268 14.3C144.268 14.496 144.203 14.664 144.072 14.804C143.941 14.9347 143.778 15 143.582 15H140.236ZM146.498 15.07C146.32 15.0793 146.162 15.014 146.022 14.874C145.882 14.734 145.812 14.5753 145.812 14.398V6.236C145.812 6.04933 145.877 5.89067 146.008 5.76C146.148 5.62 146.316 5.55 146.512 5.55C146.698 5.55 146.857 5.62 146.988 5.76C147.128 5.89067 147.198 6.04933 147.198 6.236V13.656L151.006 13.404C151.202 13.3947 151.365 13.4553 151.496 13.586C151.626 13.7073 151.692 13.8707 151.692 14.076C151.692 14.244 151.626 14.4027 151.496 14.552C151.374 14.692 151.23 14.7667 151.062 14.776L146.498 15.07Z" fill="white"/>
</svg>
